<?xml version="1.0" encoding="UTF-8" standalone="no"?>
<!-- Created with Inkscape (http://www.inkscape.org/) -->

<svg
   version="1.1"
   id="svg1"
   width="800"
   height="800"
   viewBox="0 0 800 799.99999"
   sodipodi:docname="peace-800.svg"
   inkscape:version="1.4.2 (ebf0e940, 2025-05-08)"
   xmlns:inkscape="http://www.inkscape.org/namespaces/inkscape"
   xmlns:sodipodi="http://sodipodi.sourceforge.net/DTD/sodipodi-0.dtd"
   xmlns="http://www.w3.org/2000/svg"
   xmlns:svg="http://www.w3.org/2000/svg">
  <defs
     id="defs1">
    <clipPath
       clipPathUnits="userSpaceOnUse"
       id="clipPath3">
      <path
         d="M 0,4000 H 4000 V 0 H 0 Z"
         transform="translate(-2637.006,-413.18464)"
         id="path3" />
    </clipPath>
    <clipPath
       clipPathUnits="userSpaceOnUse"
       id="clipPath5">
      <path
         d="M 0,4000 H 4000 V 0 H 0 Z"
         transform="translate(-3066.8341,-628.45699)"
         id="path5" />
    </clipPath>
    <clipPath
       clipPathUnits="userSpaceOnUse"
       id="clipPath7">
      <path
         d="M 0,4000 H 4000 V 0 H 0 Z"
         transform="translate(-2634.1855,-595.54391)"
         id="path7" />
    </clipPath>
    <clipPath
       clipPathUnits="userSpaceOnUse"
       id="clipPath9">
      <path
         d="M 0,4000 H 4000 V 0 H 0 Z"
         transform="translate(-2568.6016,-499.86911)"
         id="path9" />
    </clipPath>
    <clipPath
       clipPathUnits="userSpaceOnUse"
       id="clipPath11">
      <path
         d="M 0,4000 H 4000 V 0 H 0 Z"
         transform="translate(-2536.8165,-410.20699)"
         id="path11" />
    </clipPath>
    <clipPath
       clipPathUnits="userSpaceOnUse"
       id="clipPath13">
      <path
         d="M 0,4000 H 4000 V 0 H 0 Z"
         transform="translate(-2242.4287,-566.36621)"
         id="path13" />
    </clipPath>
    <clipPath
       clipPathUnits="userSpaceOnUse"
       id="clipPath15">
      <path
         d="M 0,4000 H 4000 V 0 H 0 Z"
         transform="translate(-2260.1788,-421.65229)"
         id="path15" />
    </clipPath>
    <clipPath
       clipPathUnits="userSpaceOnUse"
       id="clipPath17">
      <path
         d="M 0,4000 H 4000 V 0 H 0 Z"
         transform="translate(-1598.8306,-309.47561)"
         id="path17" />
    </clipPath>
    <clipPath
       clipPathUnits="userSpaceOnUse"
       id="clipPath19">
      <path
         d="M 0,4000 H 4000 V 0 H 0 Z"
         transform="translate(-1711.2085,-365.66891)"
         id="path19" />
    </clipPath>
    <clipPath
       clipPathUnits="userSpaceOnUse"
       id="clipPath21">
      <path
         d="M 0,4000 H 4000 V 0 H 0 Z"
         transform="translate(-2671.9786,-760.25592)"
         id="path21" />
    </clipPath>
    <clipPath
       clipPathUnits="userSpaceOnUse"
       id="clipPath23">
      <path
         d="M 0,4000 H 4000 V 0 H 0 Z"
         transform="translate(-2733.3535,-975.8057)"
         id="path23" />
    </clipPath>
    <clipPath
       clipPathUnits="userSpaceOnUse"
       id="clipPath25">
      <path
         d="M 0,4000 H 4000 V 0 H 0 Z"
         transform="translate(-3238.7335,-1136.582)"
         id="path25" />
    </clipPath>
    <clipPath
       clipPathUnits="userSpaceOnUse"
       id="clipPath27">
      <path
         d="M 0,4000 H 4000 V 0 H 0 Z"
         transform="translate(-3165.4835,-1133.1338)"
         id="path27" />
    </clipPath>
    <clipPath
       clipPathUnits="userSpaceOnUse"
       id="clipPath29">
      <path
         d="M 0,4000 H 4000 V 0 H 0 Z"
         transform="translate(-2571.9513,-1080.5723)"
         id="path29" />
    </clipPath>
    <clipPath
       clipPathUnits="userSpaceOnUse"
       id="clipPath31">
      <path
         d="M 0,4000 H 4000 V 0 H 0 Z"
         transform="translate(-2887.0273,-1181.084)"
         id="path31" />
    </clipPath>
    <clipPath
       clipPathUnits="userSpaceOnUse"
       id="clipPath33">
      <path
         d="M 0,4000 H 4000 V 0 H 0 Z"
         transform="translate(-2623.0528,-1502.416)"
         id="path33" />
    </clipPath>
    <clipPath
       clipPathUnits="userSpaceOnUse"
       id="clipPath35">
      <path
         d="M 0,4000 H 4000 V 0 H 0 Z"
         transform="translate(-2699.3839,-1421.2042)"
         id="path35" />
    </clipPath>
    <clipPath
       clipPathUnits="userSpaceOnUse"
       id="clipPath37">
      <path
         d="M 0,4000 H 4000 V 0 H 0 Z"
         transform="translate(-2769.0157,-1339.9922)"
         id="path37" />
    </clipPath>
    <clipPath
       clipPathUnits="userSpaceOnUse"
       id="clipPath39">
      <path
         d="M 0,4000 H 4000 V 0 H 0 Z"
         transform="translate(-3418.8009,-1350.3359)"
         id="path39" />
    </clipPath>
    <clipPath
       clipPathUnits="userSpaceOnUse"
       id="clipPath41">
      <path
         d="M 0,4000 H 4000 V 0 H 0 Z"
         transform="translate(-3565.005,-1323.9971)"
         id="path41" />
    </clipPath>
    <clipPath
       clipPathUnits="userSpaceOnUse"
       id="clipPath43">
      <path
         d="M 0,4000 H 4000 V 0 H 0 Z"
         transform="translate(-2562.1896,-1417.5547)"
         id="path43" />
    </clipPath>
    <clipPath
       clipPathUnits="userSpaceOnUse"
       id="clipPath45">
      <path
         d="M 0,4000 H 4000 V 0 H 0 Z"
         transform="translate(-1837.9834,-1458.0889)"
         id="path45" />
    </clipPath>
    <clipPath
       clipPathUnits="userSpaceOnUse"
       id="clipPath47">
      <path
         d="M 0,4000 H 4000 V 0 H 0 Z"
         transform="translate(-2141.2363,-1408.5586)"
         id="path47" />
    </clipPath>
    <clipPath
       clipPathUnits="userSpaceOnUse"
       id="clipPath49">
      <path
         d="M 0,4000 H 4000 V 0 H 0 Z"
         transform="translate(-2070.1084,-1407.211)"
         id="path49" />
    </clipPath>
    <clipPath
       clipPathUnits="userSpaceOnUse"
       id="clipPath51">
      <path
         d="M 0,4000 H 4000 V 0 H 0 Z"
         transform="translate(-1956.3486,-1459.7813)"
         id="path51" />
    </clipPath>
    <clipPath
       clipPathUnits="userSpaceOnUse"
       id="clipPath53">
      <path
         d="M 0,4000 H 4000 V 0 H 0 Z"
         transform="translate(-2115.0939,-1516.4854)"
         id="path53" />
    </clipPath>
    <clipPath
       clipPathUnits="userSpaceOnUse"
       id="clipPath55">
      <path
         d="M 0,4000 H 4000 V 0 H 0 Z"
         transform="translate(-2441.5264,-1623.5303)"
         id="path55" />
    </clipPath>
    <clipPath
       clipPathUnits="userSpaceOnUse"
       id="clipPath57">
      <path
         d="M 0,4000 H 4000 V 0 H 0 Z"
         transform="translate(-2126.0293,-800.15435)"
         id="path57" />
    </clipPath>
    <clipPath
       clipPathUnits="userSpaceOnUse"
       id="clipPath59">
      <path
         d="M 0,4000 H 4000 V 0 H 0 Z"
         transform="translate(-2114.0284,-606.64062)"
         id="path59" />
    </clipPath>
    <clipPath
       clipPathUnits="userSpaceOnUse"
       id="clipPath61">
      <path
         d="M 0,4000 H 4000 V 0 H 0 Z"
         transform="translate(-2130.292,-1096.5586)"
         id="path61" />
    </clipPath>
    <clipPath
       clipPathUnits="userSpaceOnUse"
       id="clipPath63">
      <path
         d="M 0,4000 H 4000 V 0 H 0 Z"
         transform="translate(-1885.4092,-896.918)"
         id="path63" />
    </clipPath>
    <clipPath
       clipPathUnits="userSpaceOnUse"
       id="clipPath65">
      <path
         d="M 0,4000 H 4000 V 0 H 0 Z"
         transform="translate(-2148.1681,-854.34672)"
         id="path65" />
    </clipPath>
    <clipPath
       clipPathUnits="userSpaceOnUse"
       id="clipPath67">
      <path
         d="M 0,4000 H 4000 V 0 H 0 Z"
         transform="translate(-2034.339,-864.83795)"
         id="path67" />
    </clipPath>
    <clipPath
       clipPathUnits="userSpaceOnUse"
       id="clipPath69">
      <path
         d="M 0,4000 H 4000 V 0 H 0 Z"
         transform="translate(-1332.9795,-724.84962)"
         id="path69" />
    </clipPath>
    <clipPath
       clipPathUnits="userSpaceOnUse"
       id="clipPath71">
      <path
         d="M 0,4000 H 4000 V 0 H 0 Z"
         transform="translate(-1901.832,-743.02542)"
         id="path71" />
    </clipPath>
    <clipPath
       clipPathUnits="userSpaceOnUse"
       id="clipPath73">
      <path
         d="M 0,4000 H 4000 V 0 H 0 Z"
         transform="translate(-1274.106,-614.59369)"
         id="path73" />
    </clipPath>
    <clipPath
       clipPathUnits="userSpaceOnUse"
       id="clipPath75">
      <path
         d="M 0,4000 H 4000 V 0 H 0 Z"
         transform="translate(-3358.3214,-1648.4053)"
         id="path75" />
    </clipPath>
    <clipPath
       clipPathUnits="userSpaceOnUse"
       id="clipPath77">
      <path
         d="M 0,4000 H 4000 V 0 H 0 Z"
         transform="translate(-2403.5449,-3578.1251)"
         id="path77" />
    </clipPath>
    <clipPath
       clipPathUnits="userSpaceOnUse"
       id="clipPath79">
      <path
         d="M 0,4000 H 4000 V 0 H 0 Z"
         transform="translate(-2123.9161,-3225.4855)"
         id="path79" />
    </clipPath>
    <clipPath
       clipPathUnits="userSpaceOnUse"
       id="clipPath81">
      <path
         d="M 0,4000 H 4000 V 0 H 0 Z"
         transform="translate(-2124.256,-2927.7701)"
         id="path81" />
    </clipPath>
    <clipPath
       clipPathUnits="userSpaceOnUse"
       id="clipPath83">
      <path
         d="M 0,4000 H 4000 V 0 H 0 Z"
         transform="translate(-2161.7266,-2108.0411)"
         id="path83" />
    </clipPath>
    <clipPath
       clipPathUnits="userSpaceOnUse"
       id="clipPath85">
      <path
         d="M 0,4000 H 4000 V 0 H 0 Z"
         transform="translate(-2253.2208,-1847.3467)"
         id="path85" />
    </clipPath>
    <clipPath
       clipPathUnits="userSpaceOnUse"
       id="clipPath87">
      <path
         d="M 0,4000 H 4000 V 0 H 0 Z"
         transform="translate(-2113.123,-2759.4644)"
         id="path87" />
    </clipPath>
    <clipPath
       clipPathUnits="userSpaceOnUse"
       id="clipPath89">
      <path
         d="M 0,4000 H 4000 V 0 H 0 Z"
         transform="translate(-2128.1875,-2695.1255)"
         id="path89" />
    </clipPath>
    <clipPath
       clipPathUnits="userSpaceOnUse"
       id="clipPath91">
      <path
         d="M 0,4000 H 4000 V 0 H 0 Z"
         transform="translate(-3156.4376,-3262.3321)"
         id="path91" />
    </clipPath>
    <clipPath
       clipPathUnits="userSpaceOnUse"
       id="clipPath93">
      <path
         d="M 0,4000 H 4000 V 0 H 0 Z"
         transform="translate(-2878.3399,-3292.0768)"
         id="path93" />
    </clipPath>
    <clipPath
       clipPathUnits="userSpaceOnUse"
       id="clipPath95">
      <path
         d="M 0,4000 H 4000 V 0 H 0 Z"
         transform="translate(-3307.6671,-3102.7096)"
         id="path95" />
    </clipPath>
    <clipPath
       clipPathUnits="userSpaceOnUse"
       id="clipPath97">
      <path
         d="M 0,4000 H 4000 V 0 H 0 Z"
         transform="translate(-3466.9112,-2893.1108)"
         id="path97" />
    </clipPath>
    <clipPath
       clipPathUnits="userSpaceOnUse"
       id="clipPath99">
      <path
         d="M 0,4000 H 4000 V 0 H 0 Z"
         transform="translate(-3503.1017,-2813.8243)"
         id="path99" />
    </clipPath>
    <clipPath
       clipPathUnits="userSpaceOnUse"
       id="clipPath101">
      <path
         d="M 0,4000 H 4000 V 0 H 0 Z"
         transform="translate(-3368.7189,-2709.1235)"
         id="path101" />
    </clipPath>
    <clipPath
       clipPathUnits="userSpaceOnUse"
       id="clipPath103">
      <path
         d="M 0,4000 H 4000 V 0 H 0 Z"
         transform="translate(-3683.3927,-2278.6685)"
         id="path103" />
    </clipPath>
    <clipPath
       clipPathUnits="userSpaceOnUse"
       id="clipPath105">
      <path
         d="M 0,4000 H 4000 V 0 H 0 Z"
         transform="translate(-3698.0177,-2176.0787)"
         id="path105" />
    </clipPath>
    <clipPath
       clipPathUnits="userSpaceOnUse"
       id="clipPath107">
      <path
         d="M 0,4000 H 4000 V 0 H 0 Z"
         transform="translate(-3726.461,-2041.6358)"
         id="path107" />
    </clipPath>
    <clipPath
       clipPathUnits="userSpaceOnUse"
       id="clipPath109">
      <path
         d="M 0,4000 H 4000 V 0 H 0 Z"
         transform="translate(-3437.0079,-2002.0484)"
         id="path109" />
    </clipPath>
    <clipPath
       clipPathUnits="userSpaceOnUse"
       id="clipPath111">
      <path
         d="M 0,4000 H 4000 V 0 H 0 Z"
         transform="translate(-2356.5625,-1789.8232)"
         id="path111" />
    </clipPath>
    <clipPath
       clipPathUnits="userSpaceOnUse"
       id="clipPath113">
      <path
         d="M 0,4000 H 4000 V 0 H 0 Z"
         transform="translate(-2418.9669,-1701.2677)"
         id="path113" />
    </clipPath>
    <clipPath
       clipPathUnits="userSpaceOnUse"
       id="clipPath115">
      <path
         d="M 0,4000 H 4000 V 0 H 0 Z"
         transform="translate(-2142.9649,-2410.4005)"
         id="path115" />
    </clipPath>
    <clipPath
       clipPathUnits="userSpaceOnUse"
       id="clipPath117">
      <path
         d="M 0,4000 H 4000 V 0 H 0 Z"
         transform="translate(-2118.4435,-2335.1105)"
         id="path117" />
    </clipPath>
    <clipPath
       clipPathUnits="userSpaceOnUse"
       id="clipPath119">
      <path
         d="M 0,4000 H 4000 V 0 H 0 Z"
         transform="translate(-1918.338,-2517.235)"
         id="path119" />
    </clipPath>
    <clipPath
       clipPathUnits="userSpaceOnUse"
       id="clipPath121">
      <path
         d="M 0,4000 H 4000 V 0 H 0 Z"
         transform="translate(-2633.4238,-3623.6524)"
         id="path121" />
    </clipPath>
    <clipPath
       clipPathUnits="userSpaceOnUse"
       id="clipPath123">
      <path
         d="M 0,4000 H 4000 V 0 H 0 Z"
         transform="translate(-1928.3125,-2048.8585)"
         id="path123" />
    </clipPath>
    <clipPath
       clipPathUnits="userSpaceOnUse"
       id="clipPath125">
      <path
         d="M 0,4000 H 4000 V 0 H 0 Z"
         transform="translate(-2161.7266,-2077.5689)"
         id="path125" />
    </clipPath>
    <clipPath
       clipPathUnits="userSpaceOnUse"
       id="clipPath127">
      <path
         d="M 0,4000 H 4000 V 0 H 0 Z"
         transform="translate(-2117.1445,-2563.6153)"
         id="path127" />
    </clipPath>
    <clipPath
       clipPathUnits="userSpaceOnUse"
       id="clipPath129">
      <path
         d="M 0,4000 H 4000 V 0 H 0 Z"
         transform="translate(-2131.0089,-3041.4313)"
         id="path129" />
    </clipPath>
    <clipPath
       clipPathUnits="userSpaceOnUse"
       id="clipPath131">
      <path
         d="M 0,4000 H 4000 V 0 H 0 Z"
         transform="translate(-1948.9561,-3225.3355)"
         id="path131" />
    </clipPath>
    <clipPath
       clipPathUnits="userSpaceOnUse"
       id="clipPath133">
      <path
         d="M 0,4000 H 4000 V 0 H 0 Z"
         transform="translate(-2021.2363,-3169.4015)"
         id="path133" />
    </clipPath>
    <clipPath
       clipPathUnits="userSpaceOnUse"
       id="clipPath135">
      <path
         d="M 0,4000 H 4000 V 0 H 0 Z"
         transform="translate(-1911.6162,-3161.131)"
         id="path135" />
    </clipPath>
    <clipPath
       clipPathUnits="userSpaceOnUse"
       id="clipPath137">
      <path
         d="M 0,4000 H 4000 V 0 H 0 Z"
         transform="translate(-2191.7745,-3578.2662)"
         id="path137" />
    </clipPath>
    <clipPath
       clipPathUnits="userSpaceOnUse"
       id="clipPath139">
      <path
         d="M 0,4000 H 4000 V 0 H 0 Z"
         transform="translate(-2060.1583,-3436.213)"
         id="path139" />
    </clipPath>
    <clipPath
       clipPathUnits="userSpaceOnUse"
       id="clipPath141">
      <path
         d="M 0,4000 H 4000 V 0 H 0 Z"
         transform="translate(-2618.5929,-3541.6905)"
         id="path141" />
    </clipPath>
    <clipPath
       clipPathUnits="userSpaceOnUse"
       id="clipPath143">
      <path
         d="M 0,4000 H 4000 V 0 H 0 Z"
         transform="translate(-2705.9571,-3426.565)"
         id="path143" />
    </clipPath>
    <clipPath
       clipPathUnits="userSpaceOnUse"
       id="clipPath145">
      <path
         d="M 0,4000 H 4000 V 0 H 0 Z"
         transform="translate(-2296.7013,-3709.9444)"
         id="path145" />
    </clipPath>
    <clipPath
       clipPathUnits="userSpaceOnUse"
       id="clipPath147">
      <path
         d="M 0,4000 H 4000 V 0 H 0 Z"
         transform="translate(-2292.5635,-3643.7608)"
         id="path147" />
    </clipPath>
    <clipPath
       clipPathUnits="userSpaceOnUse"
       id="clipPath149">
      <path
         d="M 0,4000 H 4000 V 0 H 0 Z"
         transform="translate(-1876.0797,-3305.3316)"
         id="path149" />
    </clipPath>
    <clipPath
       clipPathUnits="userSpaceOnUse"
       id="clipPath151">
      <path
         d="M 0,4000 H 4000 V 0 H 0 Z"
         transform="translate(-3412.9259,-1140.3214)"
         id="path151" />
    </clipPath>
    <clipPath
       clipPathUnits="userSpaceOnUse"
       id="clipPath153">
      <path
         d="M 0,4000 H 4000 V 0 H 0 Z"
         transform="translate(-1858.6539,-2515.0586)"
         id="path153" />
    </clipPath>
    <clipPath
       clipPathUnits="userSpaceOnUse"
       id="clipPath155">
      <path
         d="M 0,4000 H 4000 V 0 H 0 Z"
         transform="translate(-2046.0528,-3312.1134)"
         id="path155" />
    </clipPath>
    <clipPath
       clipPathUnits="userSpaceOnUse"
       id="clipPath157">
      <path
         d="M 0,4000 H 4000 V 0 H 0 Z"
         transform="translate(-2385.2481,-3647.173)"
         id="path157" />
    </clipPath>
    <clipPath
       clipPathUnits="userSpaceOnUse"
       id="clipPath159">
      <path
         d="M 0,4000 H 4000 V 0 H 0 Z"
         transform="translate(-616.85501,-1558.7666)"
         id="path159" />
    </clipPath>
    <clipPath
       clipPathUnits="userSpaceOnUse"
       id="clipPath161">
      <path
         d="M 0,4000 H 4000 V 0 H 0 Z"
         transform="translate(-1630.915,-1574.4746)"
         id="path161" />
    </clipPath>
    <clipPath
       clipPathUnits="userSpaceOnUse"
       id="clipPath163">
      <path
         d="M 0,4000 H 4000 V 0 H 0 Z"
         transform="translate(-1684.1553,-1894.168)"
         id="path163" />
    </clipPath>
    <clipPath
       clipPathUnits="userSpaceOnUse"
       id="clipPath165">
      <path
         d="M 0,4000 H 4000 V 0 H 0 Z"
         transform="translate(-1875.3741,-1848.0898)"
         id="path165" />
    </clipPath>
    <clipPath
       clipPathUnits="userSpaceOnUse"
       id="clipPath167">
      <path
         d="M 0,4000 H 4000 V 0 H 0 Z"
         transform="translate(-1833.6846,-1757.1124)"
         id="path167" />
    </clipPath>
    <clipPath
       clipPathUnits="userSpaceOnUse"
       id="clipPath169">
      <path
         d="M 0,4000 H 4000 V 0 H 0 Z"
         transform="translate(-1833.1113,-1654.5674)"
         id="path169" />
    </clipPath>
    <clipPath
       clipPathUnits="userSpaceOnUse"
       id="clipPath171">
      <path
         d="M 0,4000 H 4000 V 0 H 0 Z"
         transform="translate(-1751.2887,-1513.4854)"
         id="path171" />
    </clipPath>
    <clipPath
       clipPathUnits="userSpaceOnUse"
       id="clipPath173">
      <path
         d="M 0,4000 H 4000 V 0 H 0 Z"
         transform="translate(-616.50782,-1683.0107)"
         id="path173" />
    </clipPath>
    <clipPath
       clipPathUnits="userSpaceOnUse"
       id="clipPath175">
      <path
         d="M 0,4000 H 4000 V 0 H 0 Z"
         transform="translate(-1030.9878,-548.25679)"
         id="path175" />
    </clipPath>
    <clipPath
       clipPathUnits="userSpaceOnUse"
       id="clipPath177">
      <path
         d="M 0,4000 H 4000 V 0 H 0 Z"
         transform="translate(-606.27542,-1009.3369)"
         id="path177" />
    </clipPath>
    <clipPath
       clipPathUnits="userSpaceOnUse"
       id="clipPath179">
      <path
         d="M 0,4000 H 4000 V 0 H 0 Z"
         transform="translate(-774.96834,-1223.2168)"
         id="path179" />
    </clipPath>
    <clipPath
       clipPathUnits="userSpaceOnUse"
       id="clipPath181">
      <path
         d="M 0,4000 H 4000 V 0 H 0 Z"
         transform="translate(-503.70412,-1187.2412)"
         id="path181" />
    </clipPath>
    <clipPath
       clipPathUnits="userSpaceOnUse"
       id="clipPath183">
      <path
         d="M 0,4000 H 4000 V 0 H 0 Z"
         transform="translate(-1185.669,-1324.2344)"
         id="path183" />
    </clipPath>
    <clipPath
       clipPathUnits="userSpaceOnUse"
       id="clipPath185">
      <path
         d="M 0,4000 H 4000 V 0 H 0 Z"
         transform="translate(-649.53472,-1417.4161)"
         id="path185" />
    </clipPath>
    <clipPath
       clipPathUnits="userSpaceOnUse"
       id="clipPath187">
      <path
         d="M 0,4000 H 4000 V 0 H 0 Z"
         transform="translate(-579.36331,-1410.1748)"
         id="path187" />
    </clipPath>
    <clipPath
       clipPathUnits="userSpaceOnUse"
       id="clipPath189">
      <path
         d="M 0,4000 H 4000 V 0 H 0 Z"
         transform="translate(-494.01861,-1278.1924)"
         id="path189" />
    </clipPath>
    <clipPath
       clipPathUnits="userSpaceOnUse"
       id="clipPath191">
      <path
         d="M 0,4000 H 4000 V 0 H 0 Z"
         transform="translate(-1482.8296,-3605.0758)"
         id="path191" />
    </clipPath>
    <clipPath
       clipPathUnits="userSpaceOnUse"
       id="clipPath193">
      <path
         d="M 0,4000 H 4000 V 0 H 0 Z"
         transform="translate(-1585.9767,-3485.1188)"
         id="path193" />
    </clipPath>
    <clipPath
       clipPathUnits="userSpaceOnUse"
       id="clipPath195">
      <path
         d="M 0,4000 H 4000 V 0 H 0 Z"
         transform="translate(-1789.5099,-3597.9649)"
         id="path195" />
    </clipPath>
    <clipPath
       clipPathUnits="userSpaceOnUse"
       id="clipPath197">
      <path
         d="M 0,4000 H 4000 V 0 H 0 Z"
         transform="translate(-838.84862,-3277.6803)"
         id="path197" />
    </clipPath>
    <clipPath
       clipPathUnits="userSpaceOnUse"
       id="clipPath199">
      <path
         d="M 0,4000 H 4000 V 0 H 0 Z"
         transform="translate(-2028.5353,-3707.4591)"
         id="path199" />
    </clipPath>
    <clipPath
       clipPathUnits="userSpaceOnUse"
       id="clipPath201">
      <path
         d="M 0,4000 H 4000 V 0 H 0 Z"
         transform="translate(-1153.3203,-3141.1886)"
         id="path201" />
    </clipPath>
    <clipPath
       clipPathUnits="userSpaceOnUse"
       id="clipPath203">
      <path
         d="M 0,4000 H 4000 V 0 H 0 Z"
         transform="translate(-1345.0455,-3380.588)"
         id="path203" />
    </clipPath>
    <clipPath
       clipPathUnits="userSpaceOnUse"
       id="clipPath205">
      <path
         d="M 0,4000 H 4000 V 0 H 0 Z"
         transform="translate(-1443.4414,-3383.1651)"
         id="path205" />
    </clipPath>
    <clipPath
       clipPathUnits="userSpaceOnUse"
       id="clipPath207">
      <path
         d="M 0,4000 H 4000 V 0 H 0 Z"
         transform="translate(-1399.645,-3335.504)"
         id="path207" />
    </clipPath>
    <clipPath
       clipPathUnits="userSpaceOnUse"
       id="clipPath209">
      <path
         d="M 0,4000 H 4000 V 0 H 0 Z"
         transform="translate(-671.34472,-2622.379)"
         id="path209" />
    </clipPath>
    <clipPath
       clipPathUnits="userSpaceOnUse"
       id="clipPath211">
      <path
         d="M 0,4000 H 4000 V 0 H 0 Z"
         transform="translate(-628.40332,-2425.3184)"
         id="path211" />
    </clipPath>
    <clipPath
       clipPathUnits="userSpaceOnUse"
       id="clipPath213">
      <path
         d="M 0,4000 H 4000 V 0 H 0 Z"
         transform="translate(-357.80621,-2404.0571)"
         id="path213" />
    </clipPath>
    <clipPath
       clipPathUnits="userSpaceOnUse"
       id="clipPath215">
      <path
         d="M 0,4000 H 4000 V 0 H 0 Z"
         transform="translate(-733.48932,-2731.0454)"
         id="path215" />
    </clipPath>
    <clipPath
       clipPathUnits="userSpaceOnUse"
       id="clipPath217">
      <path
         d="M 0,4000 H 4000 V 0 H 0 Z"
         transform="translate(-814.0942,-2814.4469)"
         id="path217" />
    </clipPath>
    <clipPath
       clipPathUnits="userSpaceOnUse"
       id="clipPath219">
      <path
         d="M 0,4000 H 4000 V 0 H 0 Z"
         transform="translate(-884.81882,-2899.297)"
         id="path219" />
    </clipPath>
    <clipPath
       clipPathUnits="userSpaceOnUse"
       id="clipPath221">
      <path
         d="M 0,4000 H 4000 V 0 H 0 Z"
         transform="translate(-443.65481,-2241.0782)"
         id="path221" />
    </clipPath>
    <clipPath
       clipPathUnits="userSpaceOnUse"
       id="clipPath223">
      <path
         d="M 0,4000 H 4000 V 0 H 0 Z"
         transform="translate(-421.09521,-2161.4429)"
         id="path223" />
    </clipPath>
    <clipPath
       clipPathUnits="userSpaceOnUse"
       id="clipPath225">
      <path
         d="M 0,4000 H 4000 V 0 H 0 Z"
         transform="translate(-532.79741,-2347.8346)"
         id="path225" />
    </clipPath>
    <clipPath
       clipPathUnits="userSpaceOnUse"
       id="clipPath227">
      <path
         d="M 0,4000 H 4000 V 0 H 0 Z"
         transform="translate(-448.58301,-2329.4327)"
         id="path227" />
    </clipPath>
    <clipPath
       clipPathUnits="userSpaceOnUse"
       id="clipPath229">
      <path
         d="M 0,4000 H 4000 V 0 H 0 Z"
         transform="translate(-378.41111,-2322.1895)"
         id="path229" />
    </clipPath>
    <clipPath
       clipPathUnits="userSpaceOnUse"
       id="clipPath231">
      <path
         d="M 0,4000 H 4000 V 0 H 0 Z"
         transform="translate(-553.42291,-2197.0201)"
         id="path231" />
    </clipPath>
    <clipPath
       clipPathUnits="userSpaceOnUse"
       id="clipPath233">
      <path
         d="M 0,4000 H 4000 V 0 H 0 Z"
         transform="translate(-451.30321,-2068.3643)"
         id="path233" />
    </clipPath>
    <clipPath
       clipPathUnits="userSpaceOnUse"
       id="clipPath235">
      <path
         d="M 0,4000 H 4000 V 0 H 0 Z"
         transform="translate(-304.27691,-1644.5771)"
         id="path235" />
    </clipPath>
    <clipPath
       clipPathUnits="userSpaceOnUse"
       id="clipPath237">
      <path
         d="M 0,4000 H 4000 V 0 H 0 Z"
         transform="translate(-334.67291,-1844.4991)"
         id="path237" />
    </clipPath>
    <clipPath
       clipPathUnits="userSpaceOnUse"
       id="clipPath239">
      <path
         d="M 0,4000 H 4000 V 0 H 0 Z"
         transform="translate(-284.54691,-1867.753)"
         id="path239" />
    </clipPath>
    <clipPath
       clipPathUnits="userSpaceOnUse"
       id="clipPath241">
      <path
         d="M 0,4000 H 4000 V 0 H 0 Z"
         transform="translate(-462.62601,-1713.6494)"
         id="path241" />
    </clipPath>
    <clipPath
       clipPathUnits="userSpaceOnUse"
       id="clipPath243">
      <path
         d="M 0,4000 H 4000 V 0 H 0 Z"
         transform="translate(-557.24662,-2149.1753)"
         id="path243" />
    </clipPath>
    <clipPath
       clipPathUnits="userSpaceOnUse"
       id="clipPath245">
      <path
         d="M 0,4000 H 4000 V 0 H 0 Z"
         transform="translate(-554.70121,-2051.2745)"
         id="path245" />
    </clipPath>
    <clipPath
       clipPathUnits="userSpaceOnUse"
       id="clipPath247">
      <path
         d="M 0,4000 H 4000 V 0 H 0 Z"
         transform="translate(-561.11332,-1952.086)"
         id="path247" />
    </clipPath>
    <clipPath
       clipPathUnits="userSpaceOnUse"
       id="clipPath249">
      <path
         d="M 0,4000 H 4000 V 0 H 0 Z"
         transform="translate(-548.62012,-1839.4121)"
         id="path249" />
    </clipPath>
    <clipPath
       clipPathUnits="userSpaceOnUse"
       id="clipPath251">
      <path
         d="M 0,4000 H 4000 V 0 H 0 Z"
         transform="translate(-352.12351,-1930.3633)"
         id="path251" />
    </clipPath>
    <clipPath
       clipPathUnits="userSpaceOnUse"
       id="clipPath253">
      <path
         d="M 0,4000 H 4000 V 0 H 0 Z"
         transform="translate(-400.12261,-1291.1113)"
         id="path253" />
    </clipPath>
    <clipPath
       clipPathUnits="userSpaceOnUse"
       id="clipPath255">
      <path
         d="M 0,4000 H 4000 V 0 H 0 Z"
         transform="translate(-382.43951,-1409.8027)"
         id="path255" />
    </clipPath>
    <clipPath
       clipPathUnits="userSpaceOnUse"
       id="clipPath257">
      <path
         d="M 0,4000 H 4000 V 0 H 0 Z"
         transform="translate(-353.54791,-1484.54)"
         id="path257" />
    </clipPath>
    <clipPath
       clipPathUnits="userSpaceOnUse"
       id="clipPath259">
      <path
         d="M 0,4000 H 4000 V 0 H 0 Z"
         transform="translate(-318.92431,-1559.21)"
         id="path259" />
    </clipPath>
    <clipPath
       clipPathUnits="userSpaceOnUse"
       id="clipPath261">
      <path
         d="M 0,4000 H 4000 V 0 H 0 Z"
         transform="translate(-1518.915,-1247.335)"
         id="path261" />
    </clipPath>
    <clipPath
       clipPathUnits="userSpaceOnUse"
       id="clipPath263">
      <path
         d="M 0,4000 H 4000 V 0 H 0 Z"
         transform="translate(-3559.6046,-2678.1227)"
         id="path263" />
    </clipPath>
    <clipPath
       clipPathUnits="userSpaceOnUse"
       id="clipPath265">
      <path
         d="M 0,4000 H 4000 V 0 H 0 Z"
         transform="translate(-2208.6651,-1956.5011)"
         id="path265" />
    </clipPath>
    <clipPath
       clipPathUnits="userSpaceOnUse"
       id="clipPath267">
      <path
         d="M 0,4000 H 4000 V 0 H 0 Z"
         transform="translate(-1887.1914,-1386.6388)"
         id="path267" />
    </clipPath>
    <clipPath
       clipPathUnits="userSpaceOnUse"
       id="clipPath269">
      <path
         d="M 0,4000 H 4000 V 0 H 0 Z"
         transform="translate(-1963.7286,-1382.0314)"
         id="path269" />
    </clipPath>
  </defs>
  <sodipodi:namedview
     id="namedview1"
     pagecolor="#505050"
     bordercolor="#ffffff"
     borderopacity="1"
     inkscape:showpageshadow="0"
     inkscape:pageopacity="0"
     inkscape:pagecheckerboard="1"
     inkscape:deskcolor="#505050"
     inkscape:zoom="0.86974131"
     inkscape:cx="419.66501"
     inkscape:cy="478.87802"
     inkscape:window-width="1920"
     inkscape:window-height="1080"
     inkscape:window-x="0"
     inkscape:window-y="0"
     inkscape:window-maximized="0"
     inkscape:current-layer="layer-MC0">
    <inkscape:page
       x="0"
       y="0"
       inkscape:label="1"
       id="page1"
       width="800"
       height="800"
       margin="66.544266 67.066666 67.58667 67.066399"
       bleed="0" />
  </sodipodi:namedview>
  <g
     id="layer-MC0"
     inkscape:groupmode="layer"
     inkscape:label="Layer 1"
     transform="translate(-272.22784,-316.06129)">
    <path
       id="path2"
       d="m 0,0 c 4.344,32.362 18.262,61.142 38.573,77.393 77.568,62.045 90.634,29.2 68.943,17.235 C 89.863,84.884 39.209,48.487 31.337,1.832 19.166,-70.402 -7.89,-58.688 0,0"
       style="fill:#1dc5d3;fill-opacity:1;fill-rule:evenodd;stroke:none"
       transform="matrix(0.22652023,0,0,-0.23079425,819.19875,1082.1072)"
       clip-path="url(#clipPath3)" />
    <path
       id="path4"
       d="m 0,0 c -155.124,-47.395 -313.687,-74.97 -369.707,-13.787 -56.019,61.186 -1.72,37.058 37.06,19.823 38.778,-17.24 323.163,-1.72 404.169,54.3 C 153.684,117.156 52.724,16.107 0,0 m -294.334,-160.185 c 9.171,53.068 48.334,89.093 152.143,90.383 105.589,1.312 45.047,-20.881 -13.3,-34.874 -27.244,-6.533 -50.583,-17.079 -65.996,-33.2 -14.052,-14.687 -89.031,-115.97 -72.847,-22.309"
       style="fill:#158c97;fill-opacity:1;fill-rule:evenodd;stroke:none"
       transform="matrix(0.22652023,0,0,-0.23079425,916.56356,1032.4234)"
       clip-path="url(#clipPath5)" />
    <path
       id="path6"
       d="m 0,0 c 0,0 -25.855,-46.534 -122.373,-35.331 -96.518,11.204 -118.065,55.155 -117.206,12.924 0.869,-42.227 117.206,-65.499 174.944,-54.291 57.739,11.204 93.07,49.983 81.865,67.219 C 6.036,7.756 0,0 0,0"
       style="fill:#19407a;fill-opacity:1;fill-rule:evenodd;stroke:none"
       transform="matrix(0.22652023,0,0,-0.23079425,818.55993,1040.0197)"
       clip-path="url(#clipPath7)" />
    <path
       id="path8"
       d="m 0,0 c 0,0 -84.454,-53.427 -137.885,-13.788 -53.43,39.639 -87.042,59.467 -81.875,12.063 5.177,-47.394 116.337,-70.666 174.085,-60.326 57.738,10.344 77.558,31.892 76.698,51.711 C 30.163,9.479 0,0 0,0"
       style="fill:#19407a;fill-opacity:1;fill-rule:evenodd;stroke:none"
       transform="matrix(0.22652023,0,0,-0.23079425,803.7038,1062.1009)"
       clip-path="url(#clipPath9)" />
    <path
       id="path10"
       d="m 0,0 c 0,0 -24.127,-36.199 -110.309,-26.716 -86.182,9.481 -88.761,49.984 -103.414,24.128 -14.651,-25.851 6.037,-68.083 85.324,-69.803 79.277,-1.728 110.299,-6.036 155.115,37.055 C 71.531,7.756 13.793,24.132 0,0"
       style="fill:#19407a;fill-opacity:1;fill-rule:evenodd;stroke:none"
       transform="matrix(0.22652023,0,0,-0.23079425,796.50381,1082.7944)"
       clip-path="url(#clipPath11)" />
    <path
       id="path12"
       d="m 0,0 c 0,0 -106.87,-148.233 -358.508,-93.074 -251.642,55.159 -418.831,117.201 -544.649,81.011 -125.819,-36.196 -160.293,-96.518 -136.163,-106.862 24.132,-10.345 31.025,74.114 139.611,77.562 108.583,3.448 303.349,-91.355 523.965,-122.377 220.619,-31.024 344.721,37.919 401.591,112.038 C 82.726,22.407 18.96,28.439 0,0"
       style="fill:#453367;fill-opacity:1;fill-rule:evenodd;stroke:none"
       transform="matrix(0.22652023,0,0,-0.23079425,729.81901,1046.7537)"
       clip-path="url(#clipPath13)" />
    <path
       id="path14"
       d="m 0,0 c -10.335,-1.72 -66.354,-81.01 -258.533,-94.793 -192.18,-13.788 -214.583,7.76 -212.859,-15.512 1.724,-23.271 155.982,-31.027 278.358,-20.683 122.373,10.343 205.958,80.15 211.135,105.141 C 23.268,-0.855 18.101,12.933 0,0"
       style="fill:#44d7e0;fill-opacity:1;fill-rule:evenodd;stroke:none"
       transform="matrix(0.22652023,0,0,-0.23079425,733.83974,1080.1529)"
       clip-path="url(#clipPath15)" />
    <path
       id="path16"
       d="m 0,0 c 0,0 19.783,124.097 -142.891,141.333 -63.506,6.73 -123.322,-0.726 -172.262,-14.881 -76.013,-21.981 -37.948,-37.775 2.991,-29.93 98.927,18.964 186.858,-6.891 234.125,-51.707 C -30.775,0 -8.791,-10.339 0,0"
       style="fill:#1dc5d3;fill-opacity:1;fill-rule:evenodd;stroke:none"
       transform="matrix(0.22652023,0,0,-0.23079425,584.03104,1106.0426)"
       clip-path="url(#clipPath17)" />
    <path
       id="path18"
       d="M 0,0 C 0,0 -37.917,7.752 -43.086,-16.375 -48.258,-40.503 -12.063,-42.227 -1.724,-35.331 8.62,-28.438 12.93,-2.588 0,0"
       style="fill:#ffcc00;fill-opacity:1;fill-rule:evenodd;stroke:none"
       transform="matrix(0.22652023,0,0,-0.23079425,609.48691,1093.0735)"
       clip-path="url(#clipPath19)" />
    <path
       id="path20"
       d="M 0,0 C 14.93,-12.789 55.356,-20.28 160.4,7.026 356.032,57.873 530.403,133.255 586.986,138.02 736.048,150.575 678.246,66.072 548.718,68.437 506.527,69.207 459.41,62.324 409.454,32.022 280.193,-46.404 157.82,-62.78 68.19,-55.024 24.898,-51.276 0.107,-27.427 -11.141,-6.094 -7.415,-4.079 -3.698,-2.046 0,0"
       style="fill:#453367;fill-opacity:1;fill-rule:evenodd;stroke:none"
       transform="matrix(0.22652023,0,0,-0.23079425,827.12082,1002.0051)"
       clip-path="url(#clipPath21)" />
    <path
       id="path22"
       d="M 0,0 C 71.064,26.496 180.156,15.57 257.177,27.186 365.758,43.562 306.3,115.956 235.629,85.793 164.967,55.625 65.861,35.806 15.879,63.386 -34.104,90.965 -58.23,159.043 -25.488,137.5 7.254,115.956 104.641,71.137 170.994,104.748 318.91,179.678 277.855,41.188 339.732,115.119 354.599,102.747 360.823,82.412 351.975,51.317 321.812,-54.68 173.574,-47.783 92.577,-33.996 64.85,-29.281 39.559,-33.951 20.93,-42.961 -53.771,-79.111 -59.941,-22.345 0,0 m 586.377,-29.688 c -205.099,-18.959 -287.833,-25.851 -394.694,-96.518 -31.776,-21.01 -70.699,-31.649 -108.671,-33.75 -53.511,-2.951 -56.959,44.895 -10.639,49.374 84.023,8.132 218.111,59.023 291.665,102.437 65.109,38.425 158.224,47.037 245.284,39.554 152.232,-13.085 66.023,-52.876 -22.945,-61.097"
       style="fill:#1dc5d3;fill-opacity:1;fill-rule:evenodd;stroke:none"
       transform="matrix(0.22652023,0,0,-0.23079425,841.02344,952.25737)"
       clip-path="url(#clipPath23)" />
    <path
       id="path24"
       d="M 0,0 C 28.435,-11.204 32.752,-39.647 14.651,-49.128 -3.448,-58.603 12.063,-87.047 35.331,-74.114 58.599,-61.187 64.635,-6.036 36.19,10.34 7.756,26.715 -18.1,11.204 0,0"
       style="fill:#e50f57;fill-opacity:1;fill-rule:evenodd;stroke:none"
       transform="matrix(0.22652023,0,0,-0.23079425,955.50229,915.1512)"
       clip-path="url(#clipPath25)" />
    <path
       id="path26"
       d="m 0,0 c 31.015,-12.063 33.603,-41.367 27.575,-73.25 -6.036,-31.888 -38.788,-37.924 -38.788,-20.688 0,17.24 23.276,26.72 6.036,50.847 -17.23,24.131 -37.919,15.521 -36.199,32.751 C -39.647,6.892 -31.892,14.652 0,0"
       style="fill:#453367;fill-opacity:1;fill-rule:evenodd;stroke:none"
       transform="matrix(0.22652023,0,0,-0.23079425,938.90964,915.94696)"
       clip-path="url(#clipPath27)" />
    <path
       id="path28"
       d="M 0,0 C 44.734,-19.766 77.906,-47.789 74.889,-83.442 Z M 20.419,75.843 C 60.058,53.435 53.171,12.076 -14.052,37.928 c -9.78,3.761 -20.509,8.289 -31.865,13.223 l -92.899,103.503 C -47.672,134.719 20.419,75.843 20.419,75.843"
       style="fill:#e50f57;fill-opacity:1;fill-rule:evenodd;stroke:none"
       transform="matrix(0.22652023,0,0,-0.23079425,804.46258,928.07793)"
       clip-path="url(#clipPath29)" />
    <path
       id="path30"
       d="m 0,0 c -83.576,3.394 -183.371,64.773 -283.48,120.984 -87.616,49.2 -159.747,64.554 -218.819,62.446 -164.672,-5.885 56.091,-73.945 68.871,-79.686 C -348.975,65.825 -192.121,-84.123 -7.702,-59.996 106.771,-45.018 111.671,-4.532 0,0 M 600.715,60.658 C 541.006,95.268 454.197,97.381 353.372,83.809 303.748,77.128 211.511,29.375 344.828,42.267 c 34.776,3.363 72.265,1.773 114.555,-7.455 54.102,-11.804 95.254,-27.253 128.965,-41.83 80.521,-34.806 123.93,2.992 12.367,67.676"
       style="fill:#1dc5d3;fill-opacity:1;fill-rule:evenodd;stroke:none"
       transform="matrix(0.22652023,0,0,-0.23079425,875.83368,904.88036)"
       clip-path="url(#clipPath31)" />
    <path
       id="path32"
       d="m 0,0 c -31.766,-29.702 -38.716,-55.334 -19.506,-62.454 13.533,-5.011 27.495,3.085 45.962,17.093 C 71.513,-11.177 19.649,18.382 0,0 m 945.705,-69.35 c -67.232,16.063 -138.359,45.885 -212.613,76.846 -56.968,23.746 -119.391,-42.415 81.615,-95.806 59.1,-15.695 110.632,-28.295 153.611,-35.783 58.464,-10.187 95.569,26.505 -22.613,54.743"
       style="fill:#e50f57;fill-opacity:1;fill-rule:evenodd;stroke:none"
       transform="matrix(0.22652023,0,0,-0.23079425,816.03808,830.71881)"
       clip-path="url(#clipPath33)" />
    <path
       id="path34"
       d="m 0,0 c -28.793,-20.895 -46.759,-41.502 -47.573,-55.356 -0.842,-14.348 27.933,0.73 69.685,28.806 C 49.23,-8.32 21.799,15.816 0,0 m 667.714,-103.615 c 0,0 -13.783,26.586 -48.236,59.458 -60.318,57.554 -76.796,8.168 -38.922,-28.677 23.697,-23.039 41.635,-41.752 57.855,-46.293 43.096,-12.067 29.303,15.512 29.303,15.512"
       style="fill:#44d7e0;fill-opacity:1;fill-rule:evenodd;stroke:none"
       transform="matrix(0.22652023,0,0,-0.23079425,833.32861,849.46201)"
       clip-path="url(#clipPath35)" />
    <path
       id="path36"
       d="m 0,0 c -7.442,-18.937 11.123,-25.398 35.492,-27.615 2.813,-0.256 5.696,-0.457 8.634,-0.614 2.929,-0.152 5.911,-0.264 8.911,-0.345 19.882,-22.148 27.942,-23.173 -5.75,-21.758 -43.328,1.822 -91.592,13.787 -95.55,36.545 -2.731,15.748 7.317,33.132 29.394,48.361 C 2.383,49.222 9.959,25.35 0,0"
       style="fill:#ffcc00;fill-opacity:1;fill-rule:evenodd;stroke:none"
       transform="matrix(0.22652023,0,0,-0.23079425,849.10167,868.20527)"
       clip-path="url(#clipPath37)" />
    <path
       id="path38"
       d="M 0,0 C 31.031,1.725 39.647,-27.575 27.584,-34.471 15.52,-41.367 -32.743,-25.855 0,0"
       style="fill:#f0bb61;fill-opacity:1;fill-rule:evenodd;stroke:none"
       transform="matrix(0.22652023,0,0,-0.23079425,996.29113,865.818)"
       clip-path="url(#clipPath39)" />
    <path
       id="path40"
       d="m 0,0 c 14.499,0 16.909,-50.717 -4.827,-53.131 -21.736,-2.418 -48.299,2.414 -48.299,24.154 C -53.126,-7.241 -48.299,21.74 0,0"
       style="fill:#ffcc00;fill-opacity:1;fill-rule:evenodd;stroke:none"
       transform="matrix(0.22652023,0,0,-0.23079425,1029.4094,871.89682)"
       clip-path="url(#clipPath41)" />
    <path
       id="path42"
       d="M 0,0 C 18.959,-3.448 17.23,-27.575 3.447,-36.195 -10.345,-44.811 -39.648,-10.344 0,0"
       style="fill:#f0bb61;fill-opacity:1;fill-rule:evenodd;stroke:none"
       transform="matrix(0.22652023,0,0,-0.23079425,802.25132,850.30426)"
       clip-path="url(#clipPath43)" />
    <path
       id="path44"
       d="M 0,0 C 27,-2.915 46.192,-14.679 46.192,-14.679 46.317,-14.684 35.036,8.073 -2.501,17.531 -23.294,22.771 -27.965,3.009 0,0 m 309.674,-333.539 c 41.77,235.875 -185.902,194.114 -288.5,171.832 -54.145,-11.764 -73.747,-82.892 12.673,-68.606 116.778,19.308 258.444,55.588 275.827,-103.226"
       style="fill:#1dc5d3;fill-opacity:1;fill-rule:evenodd;stroke:none"
       transform="matrix(0.22652023,0,0,-0.23079425,638.20403,840.9492)"
       clip-path="url(#clipPath45)" />
    <path
       id="path46"
       d="M 0,0 C -37.534,-4.111 -44.52,-15.955 -30.62,-38.403 6.125,-97.794 47.618,5.212 0,0 m 302.027,44.327 c 0,0 -43.677,-32.34 -124.63,-42.451 -77.02,-9.618 -14.418,-39.365 21.522,-27.965 51.747,16.412 91.573,40.11 103.108,70.416"
       style="fill:#654996;fill-opacity:1;fill-rule:evenodd;stroke:none"
       transform="matrix(0.22652023,0,0,-0.23079425,706.89692,852.38053)"
       clip-path="url(#clipPath47)" />
    <path
       id="path48"
       d="M 0,0 C -4.308,5.172 -54.29,43.95 -53.431,16.375 -52.571,-11.2 15.512,-23.268 0,0"
       style="fill:#ffcc00;fill-opacity:1;fill-rule:evenodd;stroke:none"
       transform="matrix(0.22652023,0,0,-0.23079425,690.78501,852.6916)"
       clip-path="url(#clipPath49)" />
    <path
       id="path50"
       d="M 0,0 C 18.962,-7.756 38.784,-22.407 19.826,-24.131 0.864,-25.855 -34.469,-3.448 0,0"
       style="fill:#e50f57;fill-opacity:1;fill-rule:evenodd;stroke:none"
       transform="matrix(0.22652023,0,0,-0.23079425,665.01612,840.55865)"
       clip-path="url(#clipPath51)" />
    <path
       id="path52"
       d="m 0,0 c -159.119,13.475 -241.141,66.479 -257.853,55.339 -20.679,-13.792 49.985,-60.322 170.632,-81.011 24.987,-4.281 55.956,-7.532 90.051,-9.739 C 72.973,-39.961 68.19,-5.771 0,0 m 414.344,55.339 c 0,0 -44.816,-43.087 -287.842,-56.879 -106.199,-6.023 -34.507,-37.82 14.114,-37.314 96.24,0.998 189.336,8.843 230.632,23.526 77.566,27.58 94.798,63.77 43.096,70.667"
       style="fill:#309608;fill-opacity:1;fill-rule:evenodd;stroke:none"
       transform="matrix(0.22652023,0,0,-0.23079425,700.97515,827.47162)"
       clip-path="url(#clipPath53)" />
    <path
       id="path54"
       d="m 0,0 c 0,0 -210.274,-60.331 -380.902,-22.407 -170.634,37.919 -184.424,48.259 -186.148,20.683 -1.724,-27.575 151.677,-81.01 344.711,-81.01 193.045,0 251.643,25.86 255.091,46.544 C 36.2,-15.516 13.792,6.896 0,0"
       style="fill:#1dc5d3;fill-opacity:1;fill-rule:evenodd;stroke:none"
       transform="matrix(0.22652023,0,0,-0.23079425,774.91869,802.7663)"
       clip-path="url(#clipPath55)" />
    <path
       id="path56"
       d="m 0,0 c -45.666,21.799 -89.326,30.123 -127.472,4.693 -87.899,-58.598 -20.678,-130.989 -20.678,-130.989 0,0 -37.917,112.025 58.6,106.858 26.697,-1.429 49.705,-10.112 71.387,-22.874 C 94.52,-108.63 32.903,-15.713 0,0 m 446.477,-95.272 c -3.475,-4.573 -8.042,-8.916 -13.55,-12.959 -18.647,-13.699 -48.103,-23.984 -82.663,-28.381 -49.401,-6.284 -254.875,-50.7 -76.125,-50.417 96.831,0.156 197.119,33.973 211.986,62.458 32.446,62.189 -5.615,47.627 -39.648,29.299"
       style="fill:#44d7e0;fill-opacity:1;fill-rule:evenodd;stroke:none"
       transform="matrix(0.22652023,0,0,-0.23079425,703.45224,992.79674)"
       clip-path="url(#clipPath57)" />
    <path
       id="path58"
       d="M 0,0 C 0,0 -135.565,-136.035 -306.418,-92.55 -477.27,-49.061 -694.412,80.401 -806.631,34.471 -758.225,215.778 -273.452,-134.996 0,0"
       style="fill:#1dc5d3;fill-opacity:1;fill-rule:evenodd;stroke:none"
       transform="matrix(0.22652023,0,0,-0.23079425,700.73378,1037.4587)"
       clip-path="url(#clipPath59)" />
    <path
       id="path60"
       d="m 0,0 c -21.638,43.148 -65.728,97.171 -151.513,101.268 -59.431,2.839 -98.007,-11.266 -129.581,-25.233 -41.918,-18.548 -53.976,-85.632 11.569,-73.045 85.251,16.376 165.315,53.195 193.471,15.543 36.084,-48.254 3.279,-139.603 -127.952,-94.793 -29.648,10.125 -55.524,17.961 -77.802,23.249 -45.117,10.707 -39.967,-25.716 -3.289,-34.422 C -169.532,-114.873 97.888,-195.274 0,0"
       style="fill:#453367;fill-opacity:1;fill-rule:evenodd;stroke:none"
       transform="matrix(0.22652023,0,0,-0.23079425,704.41782,924.38834)"
       clip-path="url(#clipPath61)" />
    <path
       id="path62"
       d="M 0,0 C 48.98,-25.336 27.024,-54.053 -3.378,-48.979 -33.781,-43.91 -28.71,3.377 0,0"
       style="fill:#ffcc00;fill-opacity:1;fill-rule:evenodd;stroke:none"
       transform="matrix(0.22652023,0,0,-0.23079425,648.9469,970.46426)"
       clip-path="url(#clipPath63)" />
    <path
       id="path64"
       d="m 0,0 c -0.869,5.172 -85.26,95.657 -111.957,94.798 -26.698,-0.86 8.615,-24.996 31.864,-43.951 C -56.843,31.892 0.859,-37.055 0,0"
       style="fill:#ffcc00;fill-opacity:1;fill-rule:evenodd;stroke:none"
       transform="matrix(0.22652023,0,0,-0.23079425,708.46708,980.28949)"
       clip-path="url(#clipPath65)" />
    <path
       id="path66"
       d="M 0,0 C 0,0 -77.697,107.296 -93.728,90.029 -109.756,72.763 28.363,-54.259 0,0"
       style="fill:#ffcc00;fill-opacity:1;fill-rule:evenodd;stroke:none"
       transform="matrix(0.22652023,0,0,-0.23079425,682.68251,977.86813)"
       clip-path="url(#clipPath67)" />
    <path
       id="path68"
       d="m 0,0 c -39.564,-21.186 -52.743,-38.148 -47.36,-20.205 2.948,9.829 16.245,23.24 37.48,37.113 C -0.985,22.721 43.938,23.522 0,0 m 573.891,-111.295 c 0,0 -23.651,23.639 -65.076,52.562 -27.774,19.389 -39.912,73.658 3.573,41.179 58.758,-43.897 88.556,-87.213 61.503,-93.741"
       style="fill:#309608;fill-opacity:1;fill-rule:evenodd;stroke:none"
       transform="matrix(0.22652023,0,0,-0.23079425,523.81043,1010.1766)"
       clip-path="url(#clipPath69)" />
    <path
       id="path70"
       d="M 0,0 C 0,0 -23.99,17.459 -63.681,39.36 -87.546,52.53 -96.408,95.429 -59.604,75.892 -30.723,60.551 -8.582,43.113 3.32,23.916 15.344,4.527 0,0 0,0"
       style="fill:#1dc5d3;fill-opacity:1;fill-rule:evenodd;stroke:none"
       transform="matrix(0.22652023,0,0,-0.23079425,652.667,1005.9816)"
       clip-path="url(#clipPath71)" />
    <path
       id="path72"
       d="M 0,0 C 26.715,-3.448 31.885,-46.535 14.647,-58.604 -2.588,-70.667 -24.131,-19.819 0,0"
       style="fill:#ffcc00;fill-opacity:1;fill-rule:evenodd;stroke:none"
       transform="matrix(0.22652023,0,0,-0.23079425,510.47437,1035.6231)"
       clip-path="url(#clipPath73)" />
    <path
       id="path74"
       d="M 0,0 C 19.237,-12.395 28.292,-25.663 15.601,-39.459 8.177,-47.528 -2.821,-53.059 -15.574,-56.65 -9.995,-37.933 -4.81,-19.04 0,0 M 282.755,-132.533 C 143.142,-144.597 24.217,-91.166 72.479,-48.075 120.734,-4.988 254.75,-27.624 293.099,7.075 327.91,38.582 192.014,59.127 56.808,67.908 c -68.317,4.433 -53.924,47.771 11.651,49.527 85.976,2.296 174.138,-1.438 233.435,-10.081 124.925,-18.194 49.275,-157.771 -30.343,-155.429 -87.902,2.58 -138.753,-21.548 -93.07,-39.648 22.605,-8.956 68.235,-14.746 106.459,-13.814 78.194,1.908 40.866,-27.271 -2.185,-30.996"
       style="fill:#1dc5d3;fill-opacity:1;fill-rule:evenodd;stroke:none"
       transform="matrix(0.22652023,0,0,-0.23079425,982.59128,797.02528)"
       clip-path="url(#clipPath75)" />
    <path
       id="path76"
       d="M 0,0 C 4.138,-33.089 -134.437,-48.258 310.24,-248.194 519.047,-342.074 660.952,-525.643 714.93,-736.079 556.76,-426.337 -225.562,-127.592 0,0"
       style="fill:#e50f57;fill-opacity:1;fill-rule:evenodd;stroke:none"
       transform="matrix(0.22652023,0,0,-0.23079425,766.31511,351.65708)"
       clip-path="url(#clipPath77)" />
    <path
       id="path78"
       d="M 0,0 C -34.186,0.528 -69.148,-2.362 -104.722,-9.296 -109.647,2.19 -67.6,19.298 -1.021,25.283 49.364,29.808 64.589,-0.996 0,0 m 217.923,300.588 c 0,0 -66.776,15.292 36.737,-124.18 110.587,-149.008 -64.357,-21.615 -80.236,6.079 -45.129,78.724 -48.711,136.541 43.499,118.101"
       style="fill:#44d7e0;fill-opacity:1;fill-rule:evenodd;stroke:none"
       transform="matrix(0.22652023,0,0,-0.23079425,702.97356,433.04427)"
       clip-path="url(#clipPath79)" />
    <path
       id="path80"
       d="m 0,0 c -57.56,1.589 -116.713,-9.478 -177.449,-30.421 -27.332,-9.424 -56.407,-19.43 -86.232,-29.68 -78.877,-27.107 -40.649,66.343 -11.329,79.759 83.439,38.183 177.445,53.917 267.254,52.763 C 60.828,71.544 65.889,-1.818 0,0"
       style="fill:#e50f57;fill-opacity:1;fill-rule:evenodd;stroke:none"
       transform="matrix(0.22652023,0,0,-0.23079425,703.05052,501.75529)"
       clip-path="url(#clipPath81)" />
    <path
       id="path82"
       d="m 0,0 c -108.85,-24.456 -50.591,70.133 -8.283,72.952 0,0 -28.373,30.361 -6.708,40.72 21.664,10.36 8.785,3.728 14.991,6.073 z m -135.645,742.773 c 37.211,13.132 72.56,19.795 105.876,20.988 42.568,1.523 56.458,-60.04 -1.191,-41.295 -58.249,18.939 -104.685,20.307 -104.685,20.307"
       style="fill:#44d7e0;fill-opacity:1;fill-rule:evenodd;stroke:none"
       transform="matrix(0.22652023,0,0,-0.23079425,711.53838,690.94401)"
       clip-path="url(#clipPath83)" />
    <path
       id="path84"
       d="m 0,0 c -166.463,-18.825 -334.07,9.874 -469.505,87.405 -67.196,38.47 -27.994,68.407 29.908,44.466 C -334.332,88.337 -193.537,54.224 -18.234,63.233 45.791,66.524 133.486,15.095 0,0"
       style="fill:#44d7e0;fill-opacity:1;fill-rule:evenodd;stroke:none"
       transform="matrix(0.22652023,0,0,-0.23079425,732.26369,751.1107)"
       clip-path="url(#clipPath85)" />
    <path
       id="path86"
       d="m 0,0 c -96.965,42.187 -196.223,9.849 -260.474,-7.27 -55.032,-14.663 -43.159,43.741 -2.447,60.764 33,13.798 77.327,23.162 130.209,19.758 C -82.331,70.013 -30.53,54.58 16.265,30.851 57.892,9.749 85.609,-37.245 0,0"
       style="fill:#654996;fill-opacity:1;fill-rule:evenodd;stroke:none"
       transform="matrix(0.22652023,0,0,-0.23079425,700.52869,540.59925)"
       clip-path="url(#clipPath87)" />
    <path
       id="path88"
       d="m 0,0 c -28.919,16.067 -66.426,29.711 -113.318,35.915 -54.184,7.165 -109.209,2.765 -158.081,-15.411 -40.335,-15.001 -78.608,-130.16 5.087,-88.432 C -149.901,-9.885 -85.815,1.037 -3.117,-34.711 68.449,-65.646 34.82,-19.333 0,0"
       style="fill:#1f5b95;fill-opacity:1;fill-rule:evenodd;stroke:none"
       transform="matrix(0.22652023,0,0,-0.23079425,703.94112,555.4483)"
       clip-path="url(#clipPath89)" />
    <path
       id="path90"
       d="m 0,0 c -18.521,-4.321 -28.372,-10.189 -23.016,-18.519 8.535,-13.276 46.301,-17.161 78.256,-20.84 34.364,-3.954 70.474,-18.507 13.614,-30.573 -37.454,-7.95 -98.802,-7.641 -147.02,20.393 -57.819,33.613 -26.474,68.277 40.838,83.533 C -1.325,42.149 72.427,16.897 0,0 m -233.229,181.045 c -55.195,-1.189 -75.981,-6.186 -70.724,-27.203 2.75,-11.003 66.963,-16.246 147.315,-19.665 67.079,-2.852 181.5,-60.098 14.84,-53.317 -101.416,4.129 -199.268,14.494 -212.138,40.232 -25.855,51.709 17.231,84.457 84.455,82.733 46.811,-1.203 139.308,-20.568 36.252,-22.78 m -220.681,84.828 c 23.285,0 74.289,1.281 130.926,1.37 22.013,-12.103 43.776,-24.617 65.208,-37.612 -80.066,-2.235 -246.582,-11.325 -196.134,36.242"
       style="fill:#309608;fill-opacity:1;fill-rule:evenodd;stroke:none"
       transform="matrix(0.22652023,0,0,-0.23079425,936.86055,424.5403)"
       clip-path="url(#clipPath91)" />
    <path
       id="path92"
       d="m 0,0 c 0,0 165.442,-55.146 289.544,-420.539 11.069,-32.581 18.476,-66.235 22.721,-100.536 8.275,-66.963 59.511,-181.815 38.483,-15.796 C 318.937,-285.73 168.541,-101.159 130.971,-58.578 79.26,0.025 19.802,28.466 9.458,28.466 -0.877,28.466 -22.425,18.989 0,0"
       style="fill:#158c97;fill-opacity:1;fill-rule:evenodd;stroke:none"
       transform="matrix(0.22652023,0,0,-0.23079425,873.86579,417.67539)"
       clip-path="url(#clipPath93)" />
    <path
       id="path94"
       d="M 0,0 C -50.243,-1.567 -84.598,-5.458 -85.502,-13.114 -88.95,-42.413 -111.357,-59.648 -2.776,-75.162 190.089,-102.717 42.119,1.312 0,0"
       style="fill:#ffaa00;fill-opacity:1;fill-rule:evenodd;stroke:none"
       transform="matrix(0.22652023,0,0,-0.23079425,971.1171,461.38024)"
       clip-path="url(#clipPath95)" />
    <path
       id="path96"
       d="M 0,0 C 0,0 -229.234,24.125 -208.556,-5.172 -187.867,-34.471 -43.087,-41.367 -8.615,-37.919 25.847,-34.471 34.472,-6.896 0,0"
       style="fill:#654996;fill-opacity:1;fill-rule:evenodd;stroke:none"
       transform="matrix(0.22652023,0,0,-0.23079425,1007.189,509.75444)"
       clip-path="url(#clipPath97)" />
    <path
       id="path98"
       d="M 0,0 C 0,0 -227.515,20.688 -205.107,-10.339 -182.699,-41.363 74.119,-70.668 0,0"
       style="fill:#9b205e;fill-opacity:1;fill-rule:evenodd;stroke:none"
       transform="matrix(0.22652023,0,0,-0.23079425,1015.3869,528.05331)"
       clip-path="url(#clipPath99)" />
    <path
       id="path100"
       d="m 0,0 c -10.344,-3.448 -149.948,0.004 -103.413,22.41 46.534,22.401 234.401,43.087 236.13,-37.924 1.72,-81.006 -196.483,-51.704 -196.483,-94.793 0,-43.087 268.873,53.432 341.264,-49.981 72.391,-103.418 -170.637,-99.972 -280.936,-105.142 -47.082,-2.207 -71.281,21.009 -9.923,28.775 99.722,12.635 216.409,13.737 221.917,40.17 5.57,26.724 -108.993,-1.216 -200.083,-3.426 -121.084,-2.942 -163.597,140.038 -37.768,143.035 C 43.096,-55.155 101.694,-12.063 0,0"
       style="fill:#ffaa00;fill-opacity:1;fill-rule:evenodd;stroke:none"
       transform="matrix(0.22652023,0,0,-0.23079425,984.94659,552.21764)"
       clip-path="url(#clipPath101)" />
    <path
       id="path102"
       d="M 0,0 C 0,0 -129.646,37.8 -259.191,19.759 -349.226,7.223 -327.185,59.266 -303.354,64.632 -112.038,107.719 -3.448,85.313 15.512,43.949 34.471,2.583 0,0 0,0"
       style="fill:#309608;fill-opacity:1;fill-rule:evenodd;stroke:none"
       transform="matrix(0.22652023,0,0,-0.23079425,1056.2266,651.56419)"
       clip-path="url(#clipPath103)" />
    <path
       id="path104"
       d="M 0,0 C 0,0 -123.224,48.04 -268.604,41.007 -338.049,37.648 -317.02,-13.606 -291.29,-12.065 -32.752,3.444 -17.24,-82.736 8.615,-46.539 34.471,-10.342 13.783,-3.452 0,0"
       style="fill:#309608;fill-opacity:1;fill-rule:evenodd;stroke:none"
       transform="matrix(0.22652023,0,0,-0.23079425,1059.5394,675.24132)"
       clip-path="url(#clipPath105)" />
    <path
       id="path106"
       d="m 0,0 c 0,0 -49.982,58.603 -215.442,67.22 -27.799,1.449 -52.329,1.874 -73.824,1.442 -63.568,-1.276 -60.559,-57.579 -1.091,-49.98 49.695,6.345 104.783,12.357 145.577,3.728 C -55.158,3.45 13.783,-62.047 0,0"
       style="fill:#e50f57;fill-opacity:1;fill-rule:evenodd;stroke:none"
       transform="matrix(0.22652023,0,0,-0.23079425,1065.9823,706.26997)"
       clip-path="url(#clipPath107)" />
    <path
       id="path108"
       d="m 0,0 c 78.623,6.898 194.745,1.973 262.039,-29.176 61.366,-28.404 67.761,-133.192 -16.021,-158.752 -49.446,-15.081 -124.684,-21.57 -229.907,-18.064 -91.018,3.036 -85.555,45.765 -25.049,43.006 123.967,-5.664 247.827,-6.699 256.012,24.217 C 259.254,-92.767 98.049,-82.822 -3.592,-77.74 -62.611,-74.792 -53.978,-4.74 0,0"
       style="fill:#e50f57;fill-opacity:1;fill-rule:evenodd;stroke:none"
       transform="matrix(0.22652023,0,0,-0.23079425,1000.4154,715.40655)"
       clip-path="url(#clipPath109)" />
    <path
       id="path110"
       d="m 0,0 c -23.08,-4.259 -47.189,-6.717 -72.032,-7.55 -35.842,-1.2 -334.368,44.82 -339.538,25.856 -5.172,-18.959 86.175,-65.494 287.836,-70.666 46.856,-1.201 92.594,3.931 135.287,12.748 C 94.403,-22.502 44.26,8.159 0,0"
       style="fill:#158c97;fill-opacity:1;fill-rule:evenodd;stroke:none"
       transform="matrix(0.22652023,0,0,-0.23079425,755.67267,764.38686)"
       clip-path="url(#clipPath111)" />
    <path
       id="path112"
       d="m 0,0 c -225.787,-36.19 -467.083,44.815 -477.422,18.96 -10.344,-25.856 145.526,-63.072 263.708,-60.322 80.012,1.858 150.79,3.053 210.803,7.505 C 119.543,-24.768 74.639,11.965 0,0"
       style="fill:#654996;fill-opacity:1;fill-rule:evenodd;stroke:none"
       transform="matrix(0.22652023,0,0,-0.23079425,769.8085,784.82497)"
       clip-path="url(#clipPath113)" />
    <path
       id="path114"
       d="m 0,0 c -54.712,1.019 -103.754,0.018 -104.892,-6.782 -2.587,-15.511 -12.922,-24.989 45.675,-34.471 14.124,-2.284 30.755,-4.073 48.192,-5.342 C 34.381,-49.898 33.36,-0.614 0,0"
       style="fill:#158c97;fill-opacity:1;fill-rule:evenodd;stroke:none"
       transform="matrix(0.22652023,0,0,-0.23079425,707.28848,621.16121)"
       clip-path="url(#clipPath115)" />
    <path
       id="path116"
       d="m 0,0 c -59.127,2.799 -120.385,0.623 -147.588,-18.532 -32.649,-22.987 -16.374,-78.426 53.426,-85.32 152.07,-15.019 185.565,49.277 60.327,39.645 -44.815,-3.448 -113.753,13.79 -68.942,25.853 22.336,6.017 55.786,4.322 96.391,1.427 C 57.354,-41.465 49.714,-2.353 0,0"
       style="fill:#1dc5d3;fill-opacity:1;fill-rule:evenodd;stroke:none"
       transform="matrix(0.22652023,0,0,-0.23079425,701.73388,638.53771)"
       clip-path="url(#clipPath117)" />
    <path
       id="path118"
       d="m 0,0 c 0,0 3.186,-87.635 14.341,-95.6 11.152,-7.963 13.545,-12.744 13.545,-12.744 l 50.986,-11.152 -55.768,-21.51 -8.759,-21.51 -14.343,-86.838 -21.51,92.416 c 0,0 -11.152,14.345 -15.932,18.326 -4.78,3.981 -38.242,11.947 -38.242,11.947 l 40.631,18.321 c 0,0 12.746,22.309 15.935,31.87 C -15.93,-66.914 0,0 0,0"
       style="fill:#ffcc00;fill-opacity:1;fill-rule:evenodd;stroke:none"
       transform="matrix(0.22652023,0,0,-0.23079425,656.40593,596.50439)"
       clip-path="url(#clipPath119)" />
    <path
       id="path120"
       d="m 0,0 c -98.604,-2.286 -169.525,-9.393 -169.525,-25.125 0,-20.63 135.027,-28.908 297.29,-31.414 C 86.066,-36.085 43.48,-17.153 0,0"
       style="fill:#453367;fill-opacity:1;fill-rule:evenodd;stroke:none"
       transform="matrix(0.22652023,0,0,-0.23079425,818.38734,341.14964)"
       clip-path="url(#clipPath121)" />
    <path
       id="path122"
       d="M 0,0 C 0,0 -73.785,14.128 -106.909,86.138 -105.637,7.897 -97.507,-28.359 0,0 m -93.954,-56.718 c 59.257,-22.466 130.328,-23.894 228.648,0.672 0,0 -129.448,12.323 -213.465,39.305 -50.382,16.179 -73.58,-17.835 -15.183,-39.977 m 281.12,56.443 c 0,0 -55.947,-8.86 -90.113,75.337 -34.169,84.187 -143.37,133.072 -143.37,133.072 0,0 55.443,-70.099 41.257,-79.492 -13.002,-8.613 -65.607,-9.162 -101.849,68.671 0,-135.679 176.124,-252.557 294.075,-197.588"
       style="fill:#ffcc00;fill-opacity:1;fill-rule:evenodd;stroke:none"
       transform="matrix(0.22652023,0,0,-0.23079425,658.66538,704.60297)"
       clip-path="url(#clipPath123)" />
    <path
       id="path124"
       d="m 0,0 c -9.6,-4.715 -11.068,-12.899 -2.176,-24.011 0.618,-0.779 1.353,-1.52 2.176,-2.232 z"
       style="fill:#654996;fill-opacity:1;fill-rule:evenodd;stroke:none"
       transform="matrix(0.22652023,0,0,-0.23079425,711.53838,697.97682)"
       clip-path="url(#clipPath125)" />
    <path
       id="path126"
       d="m 0,0 c -93.267,2.579 -218.288,2.796 -208.797,12.283 13.445,13.443 10.344,11.378 50.677,12.41 40.33,1.033 15.512,34.124 -19.65,36.193 -35.16,2.069 -112.727,-58.949 -26.889,-84.801 46.288,-13.941 134.687,-10.44 205.985,-10.903 C 65.342,-35.232 69.391,-1.917 0,0 m -61.947,-64.245 c -39.299,-11.374 -51.732,-43.239 -31.024,-48.604 16.094,-4.169 57.712,-7.305 100.744,-7.256 53.637,0.058 60.184,37.91 1.891,44.415 -37.686,4.209 -71.611,11.445 -71.611,11.445"
       style="fill:#453367;fill-opacity:1;fill-rule:evenodd;stroke:none"
       transform="matrix(0.22652023,0,0,-0.23079425,701.43965,585.80014)"
       clip-path="url(#clipPath127)" />
    <path
       id="path128"
       d="m 0,0 c 0,0 -157.283,30.573 -269.442,-34.426 -11.67,-6.76 -22.851,-14.558 -33.314,-23.532 -15.433,-13.228 -21.458,25.314 29.03,59.143 25.429,17.04 47.597,30.169 51.455,31.77 C -44.815,106.611 67.76,-17.043 0,0"
       style="fill:#309608;fill-opacity:1;fill-rule:evenodd;stroke:none"
       transform="matrix(0.22652023,0,0,-0.23079425,704.58019,475.52293)"
       clip-path="url(#clipPath129)" />
    <path
       id="path130"
       d="M 0,0 C 27.984,-6.995 30.315,-39.65 4.661,-38.483 -20.993,-37.317 -26.825,-1.167 0,0"
       style="fill:#ffcc00;fill-opacity:1;fill-rule:evenodd;stroke:none"
       transform="matrix(0.22652023,0,0,-0.23079425,663.34156,433.07889)"
       clip-path="url(#clipPath131)" />
    <path
       id="path132"
       d="M 0,0 C 20.41,-5.1 22.112,-28.912 3.403,-28.061 -15.306,-27.212 -19.555,-0.851 0,0"
       style="fill:#158c97;fill-opacity:1;fill-rule:evenodd;stroke:none"
       transform="matrix(0.22652023,0,0,-0.23079425,679.7145,445.98815)"
       clip-path="url(#clipPath133)" />
    <path
       id="path134"
       d="M 0,0 C 20.408,-5.101 22.108,-28.912 3.401,-28.061 -15.305,-27.21 -19.557,-0.851 0,0"
       style="fill:#9b205e;fill-opacity:1;fill-rule:evenodd;stroke:none"
       transform="matrix(0.22652023,0,0,-0.23079425,654.88333,447.89691)"
       clip-path="url(#clipPath135)" />
    <path
       id="path136"
       d="m 0,0 c 0,0 2.319,-63.914 10.46,-69.724 8.132,-5.807 9.879,-9.294 9.879,-9.294 L 57.515,-87.152 16.846,-102.84 10.46,-118.524 0,-181.858 l -15.69,67.4 c 0,0 -8.133,10.46 -11.617,13.364 -3.483,2.904 -27.888,8.714 -27.888,8.714 l 29.626,13.362 c 0,0 9.296,16.271 11.625,23.243 C -11.625,-48.803 0,0 0,0"
       style="fill:#ffcc00;fill-opacity:1;fill-rule:evenodd;stroke:none"
       transform="matrix(0.22652023,0,0,-0.23079425,718.34482,351.62453)"
       clip-path="url(#clipPath137)" />
    <path
       id="path138"
       d="M 0,0 C 36.289,-9.073 39.316,-51.414 6.046,-49.9 -27.217,-48.389 -34.775,-1.514 0,0"
       style="fill:#e50f57;fill-opacity:1;fill-rule:evenodd;stroke:none"
       transform="matrix(0.22652023,0,0,-0.23079425,688.53112,384.4096)"
       clip-path="url(#clipPath139)" />
    <path
       id="path140"
       d="M 0,0 C 36.29,-9.068 39.308,-51.411 6.046,-49.897 -27.217,-48.386 -34.784,-1.511 0,0"
       style="fill:#f0bb61;fill-opacity:1;fill-rule:evenodd;stroke:none"
       transform="matrix(0.22652023,0,0,-0.23079425,815.02785,360.06598)"
       clip-path="url(#clipPath141)" />
    <path
       id="path142"
       d="M 0,0 C 20.259,-5.064 21.951,-28.706 3.377,-27.862 -15.197,-27.018 -19.425,-0.844 0,0"
       style="fill:#1f5b95;fill-opacity:1;fill-rule:evenodd;stroke:none"
       transform="matrix(0.22652023,0,0,-0.23079425,834.81762,386.63628)"
       clip-path="url(#clipPath143)" />
    <path
       id="path144"
       d="m 0,0 c 0,0 -322.646,-45.5 -570.843,-252.327 -182.281,-151.901 -27.428,-105.323 62.434,-22.188 C -398.454,-172.783 -238.934,-75.05 0,0"
       style="fill:#44d7e0;fill-opacity:1;fill-rule:evenodd;stroke:none"
       transform="matrix(0.22652023,0,0,-0.23079425,742.11283,321.23395)"
       clip-path="url(#clipPath145)" />
    <path
       id="path146"
       d="m 0,0 c 0,0 -339.201,-78.597 -434.337,-256.467 0,0 -12.413,-51.709 26.887,-57.913 C -368.149,-320.583 -361.947,-161.325 0,0"
       style="fill:#309608;fill-opacity:1;fill-rule:evenodd;stroke:none"
       transform="matrix(0.22652023,0,0,-0.23079425,741.17562,336.50873)"
       clip-path="url(#clipPath147)" />
    <path
       id="path148"
       d="M 0,0 C 45.83,-11.455 49.642,-64.926 7.632,-63.016 -34.375,-61.106 -43.924,-1.91 0,0"
       style="fill:#e50f57;fill-opacity:1;fill-rule:evenodd;stroke:none"
       transform="matrix(0.22652023,0,0,-0.23079425,646.83359,414.61625)"
       clip-path="url(#clipPath149)" />
    <path
       id="path150"
       d="m 0,0 c 21.529,0 25.111,-75.333 -7.174,-78.919 -32.286,-3.587 -71.746,3.586 -71.746,35.872 0,32.29 7.174,75.333 78.92,43.047"
       style="fill:#ffcc00;fill-opacity:1;fill-rule:evenodd;stroke:none"
       transform="matrix(0.22652023,0,0,-0.23079425,994.96029,914.28814)"
       clip-path="url(#clipPath151)" />
    <path
       id="path152"
       d="M 0,0 C 26.005,-6.498 28.168,-36.838 4.333,-35.756 -19.504,-34.675 -24.922,-1.083 0,0"
       style="fill:#158c97;fill-opacity:1;fill-rule:evenodd;stroke:none"
       transform="matrix(0.22652023,0,0,-0.23079425,642.88627,597.0067)"
       clip-path="url(#clipPath153)" />
    <path
       id="path154"
       d="M 0,0 C 20.411,-5.1 22.112,-28.912 3.403,-28.061 -15.306,-27.21 -19.56,-0.849 0,0"
       style="fill:#654996;fill-opacity:1;fill-rule:evenodd;stroke:none"
       transform="matrix(0.22652023,0,0,-0.23079425,685.33591,413.05105)"
       clip-path="url(#clipPath155)" />
    <path
       id="path156"
       d="M 0,0 C 20.41,-5.098 22.111,-28.91 3.403,-28.059 -15.306,-27.208 -19.56,-0.847 0,0"
       style="fill:#1f5b95;fill-opacity:1;fill-rule:evenodd;stroke:none"
       transform="matrix(0.22652023,0,0,-0.23079425,762.17048,335.72122)"
       clip-path="url(#clipPath157)" />
    <path
       id="path158"
       d="M 0,0 C -100.243,-47.287 -137.657,-107.287 -106.56,-118.805 -80.03,-128.629 -51.817,-88.05 8.723,-51.34 67.572,-15.655 45.925,21.664 0,0 m 1020.663,-86.062 c 0,0 32.747,-86.173 -162.017,-39.638 -37.561,8.973 -76.342,22.246 -116.209,37.614 -57.224,22.059 -139.859,-23.352 -14.784,-56.574 220.619,-58.603 336.098,-74.114 293.01,58.598"
       style="fill:#ffcc00;fill-opacity:1;fill-rule:evenodd;stroke:none"
       transform="matrix(0.22652023,0,0,-0.23079425,361.59371,817.71341)"
       clip-path="url(#clipPath159)" />
    <path
       id="path160"
       d="m 0,0 c 0,0 75.836,-46.534 -63.773,-58.603 -58.352,-5.042 -113.083,1.362 -153.506,13.667 -136.552,41.569 152.143,115.186 163.85,125.942 0.956,0.883 26.821,23.607 -20.226,29.344 -49.907,6.086 -61.977,107.224 78.827,60.287 C 108.585,136.161 12.93,23.272 -74.975,25.855 -162.878,28.436 -213.723,4.308 -168.048,-13.792 -122.373,-31.887 17.237,-37.06 0,0"
       style="fill:#1dc5d3;fill-opacity:1;fill-rule:evenodd;stroke:none"
       transform="matrix(0.22652023,0,0,-0.23079425,591.29885,814.08807)"
       clip-path="url(#clipPath161)" />
    <path
       id="path162"
       d="M 0,0 C 2.841,-34.999 -18.942,-61.791 -70.579,-78.633 Z"
       style="fill:#654996;fill-opacity:1;fill-rule:evenodd;stroke:none"
       transform="matrix(0.22652023,0,0,-0.23079425,603.35881,740.30468)"
       clip-path="url(#clipPath163)" />
    <path
       id="path164"
       d="m 0,0 c 0,0 -24.816,-42.912 -85.698,-20.93 -60.88,21.983 -67.353,67.729 -74.043,26.026 -6.688,-41.699 65.015,-77.818 104.512,-73.326 39.496,4.487 69.142,38.68 64.814,56.932 C 5.255,6.955 0,0 0,0"
       style="fill:#e50f57;fill-opacity:1;fill-rule:evenodd;stroke:none"
       transform="matrix(0.22652023,0,0,-0.23079425,646.67375,750.93922)"
       clip-path="url(#clipPath165)" />
    <path
       id="path166"
       d="m 0,0 c 0,0 -55.784,-53.431 -91.074,-13.792 -35.291,39.643 -57.49,59.467 -54.076,12.067 3.415,-47.398 76.844,-70.671 114.98,-60.331 38.141,10.344 51.228,31.892 50.661,51.711 C 19.922,9.475 0,0 0,0"
       style="fill:#ffcc00;fill-opacity:1;fill-rule:evenodd;stroke:none"
       transform="matrix(0.22652023,0,0,-0.23079425,637.23026,771.93632)"
       clip-path="url(#clipPath167)" />
    <path
       id="path168"
       d="m 0,0 c 0,0 -15.937,-36.204 -72.86,-26.72 -56.922,9.48 -58.63,49.988 -68.305,24.131 -9.679,-25.855 3.983,-68.082 56.353,-69.807 52.367,-1.723 72.856,-6.036 102.458,37.06 C 47.247,7.756 9.106,24.127 0,0"
       style="fill:#309608;fill-opacity:1;fill-rule:evenodd;stroke:none"
       transform="matrix(0.22652023,0,0,-0.23079425,637.10039,795.60311)"
       clip-path="url(#clipPath169)" />
    <path
       id="path170"
       d="M 0,0 C -4.31,5.172 -54.289,43.946 -53.429,16.371 -52.569,-11.204 15.514,-23.268 0,0"
       style="fill:#e50f57;fill-opacity:1;fill-rule:evenodd;stroke:none"
       transform="matrix(0.22652023,0,0,-0.23079425,618.56588,828.16399)"
       clip-path="url(#clipPath171)" />
    <path
       id="path172"
       d="M 0,0 C -42.268,33.294 -52.486,60.547 -14.338,72.27 -10.169,47.964 -5.394,23.863 0,0 m -9.025,-76.317 c -91.662,3.779 -170.455,34.395 -127.823,42.764 36.544,7.178 84.4,2.692 119.952,-1.245 27.706,-3.067 66.399,-43.937 7.871,-41.519"
       style="fill:#e50f57;fill-opacity:1;fill-rule:evenodd;stroke:none"
       transform="matrix(0.22652023,0,0,-0.23079425,361.51509,789.03855)"
       clip-path="url(#clipPath173)" />
    <path
       id="path174"
       d="m 0,0 c 220.995,-53.735 257.822,155.896 194.804,222.42 -68.309,72.107 -87.929,43.512 -65.922,26.54 22.004,-16.971 99.849,-95.626 38.456,-161.936 C 137.58,54.878 62.104,52.786 -19.862,69.167 -77.477,80.675 -138.303,101.313 -188.714,127.053 -134.976,80.223 -70.324,17.097 0,0"
       style="fill:#654996;fill-opacity:1;fill-rule:evenodd;stroke:none"
       transform="matrix(0.22652023,0,0,-0.23079425,455.40319,1050.9332)"
       clip-path="url(#clipPath175)" />
    <path
       id="path176"
       d="m 0,0 c 46.143,29.146 133.888,5.893 250.897,-48.371 147.147,-68.243 300.424,-117.326 364.311,-64.41 63.887,52.916 6.795,36.468 -33.983,24.718 C 540.444,-99.809 260.889,-45.397 188.34,21.212 138.393,67.066 29.781,85.17 -35.46,58.275 -75.017,41.972 -107.618,-67.984 0,0 m 389.664,-239.865 c 0,0 -78.212,50.856 -143.183,52.902 -64.97,2.042 -75.48,-48.706 -55.586,-55.812 19.893,-7.103 62.306,22.689 117.969,-27.657 55.665,-50.345 183.06,-116.726 203.925,-35.223 20.865,81.503 6.573,147.866 -130.626,168.621 -83.957,12.7 -229.678,21.584 -323.251,43.154 -149.337,34.426 -36.291,-31.148 9.796,-41.689 37.187,-8.504 72.858,-11.778 96.441,-10.533 72.742,3.842 238.036,-2.534 286.211,-69.247 48.177,-66.708 -28.938,-45.581 -61.696,-24.516"
       style="fill:#44d7e0;fill-opacity:1;fill-rule:evenodd;stroke:none"
       transform="matrix(0.22652023,0,0,-0.23079425,359.19722,944.51862)"
       clip-path="url(#clipPath177)" />
    <path
       id="path178"
       d="m 0,0 c -57.611,0.156 -104.425,-23.89 -67.688,-58.604 26.99,-25.505 54.953,-25.263 88.262,-23.289 C 175.014,-72.718 31.881,-0.09 0,0 m 492.754,-207.525 c -9.484,3.505 -19.617,7.477 -30.443,11.951 -71.855,29.707 -136.431,61.751 -193.261,90.965 -55.119,28.336 -87.852,-1.218 -50.007,-32.013 83.668,-68.083 168.196,-104.395 242.393,-121.298 66.582,-15.163 163.973,1.352 31.318,50.395"
       style="fill:#654996;fill-opacity:1;fill-rule:evenodd;stroke:none"
       transform="matrix(0.22652023,0,0,-0.23079425,397.40959,895.15637)"
       clip-path="url(#clipPath179)" />
    <path
       id="path180"
       d="M 0,0 C -23.165,2.342 -15.827,-32.604 6.222,-30.441 28.273,-28.278 15.341,3.963 0,0"
       style="fill:#e50f57;fill-opacity:1;fill-rule:evenodd;stroke:none"
       transform="matrix(0.22652023,0,0,-0.23079425,335.96276,903.45929)"
       clip-path="url(#clipPath181)" />
    <path
       id="path182"
       d="m 0,0 c 9.522,-6.144 19.741,-12.126 30.376,-17.755 54.792,-28.981 120.764,-48.567 160.449,-32.219 47.388,19.52 76.951,80.715 45.48,64.639 C 204.832,-1.41 113.585,-31.019 59.241,9.448 1.234,52.651 -10.839,6.99 0,0 m -79.44,-139.551 c 32.706,-16.845 61.627,-37.659 92.274,-66.622 85.495,-80.805 256.653,-61.424 233.305,33.383 -23.348,94.807 -178.625,90.503 -272.267,120.21 -48.548,15.395 -74.471,-22.824 -14.505,-53.122 47.308,-23.907 109.535,-27.692 152.013,-26.285 73.033,2.418 118.065,-68.212 57.094,-79.076 -49.634,-8.839 -149.962,34.44 -236.592,95.161 -42.534,29.814 -85.202,14.405 -11.322,-23.649 m -518.169,10.896 c 0,0 47.92,54.863 138.78,71.436 95.53,17.428 40.516,55.49 -7.328,48.107 -17.341,-2.674 -33.636,-6.001 -48.441,-9.825 -108.048,-27.934 -127.238,-80.715 -118.06,-99.518 9.175,-18.803 30.953,-17.889 35.049,-10.2"
       style="fill:#309608;fill-opacity:1;fill-rule:evenodd;stroke:none"
       transform="matrix(0.22652023,0,0,-0.23079425,490.44159,871.84209)"
       clip-path="url(#clipPath183)" />
    <path
       id="path184"
       d="m 0,0 c -6.82,0.944 -11.267,-22.766 -1.191,-25.323 10.073,-2.552 22.889,-2.011 24.309,8.221 C 24.535,-6.874 24.152,7.079 0,0"
       style="fill:#44d7e0;fill-opacity:1;fill-rule:evenodd;stroke:none"
       transform="matrix(0.22652023,0,0,-0.23079425,368.99633,850.33632)"
       clip-path="url(#clipPath185)" />
    <path
       id="path186"
       d="M 0,0 C -6.822,0.945 -11.264,-22.766 -1.193,-25.322 8.882,-27.875 21.7,-27.333 23.117,-17.105 24.535,-6.874 24.152,7.08 0,0"
       style="fill:#44d7e0;fill-opacity:1;fill-rule:evenodd;stroke:none"
       transform="matrix(0.22652023,0,0,-0.23079425,353.1011,852.00751)"
       clip-path="url(#clipPath187)" />
    <path
       id="path188"
       d="M 0,0 C 1.567,5.002 97.581,83.048 123.911,78.529 150.241,74.011 111.948,54.953 86.314,39.37 60.68,23.786 -5.936,-36.59 0,0"
       style="fill:#ffcc00;fill-opacity:1;fill-rule:evenodd;stroke:none"
       transform="matrix(0.22652023,0,0,-0.23079425,333.76879,882.46833)"
       clip-path="url(#clipPath189)" />
    <path
       id="path190"
       d="m 0,0 c 0,0 -157.236,18.516 -159.695,-4.274 -2.456,-22.788 21.504,-29.915 84.152,-33.473 C -12.896,-41.305 31.325,-24.217 0,0"
       style="fill:#309608;fill-opacity:1;fill-rule:evenodd;stroke:none"
       transform="matrix(0.22652023,0,0,-0.23079425,557.75449,345.43702)"
       clip-path="url(#clipPath191)" />
    <path
       id="path192"
       d="m 0,0 c 0,0 -218.091,15.478 -401.387,19.714 -79.998,1.847 -290.512,-66.645 43.689,-74.851 168.819,-4.142 266.789,-11.676 344.77,-6.056 C 38.51,-57.49 72.554,-5.405 0,0"
       style="fill:#e50f57;fill-opacity:1;fill-rule:evenodd;stroke:none"
       transform="matrix(0.22652023,0,0,-0.23079425,581.11937,373.12239)"
       clip-path="url(#clipPath193)" />
    <path
       id="path194"
       d="m 0,0 c 0,0 -271.618,15.516 -271.618,-5.167 0,-20.684 165.433,-34.472 234.579,-34.472 C 32.103,-39.639 54.329,-10.337 0,0"
       style="fill:#1f5b95;fill-opacity:1;fill-rule:evenodd;stroke:none"
       transform="matrix(0.22652023,0,0,-0.23079425,627.22377,347.07818)"
       clip-path="url(#clipPath195)" />
    <path
       id="path196"
       d="m 0,0 c 29.169,-1.793 51.825,-4.07 63.705,-7.196 65.495,-17.231 74.114,-98.242 -6.896,-103.413 -81.008,-5.17 -193.039,-8.62 -177.525,-32.747 15.513,-24.128 127.543,-17.236 125.82,-34.472 -1.723,-17.237 -106.861,-39.638 -180.975,3.448 -45.525,26.467 53.366,89.68 105.138,91.35 106.858,3.448 117.2,34.471 65.494,36.196 -7.595,0.25 -14.316,-1.046 -33.515,-1.075 C -121.243,-48.039 -40.756,2.505 0,0"
       style="fill:#44d7e0;fill-opacity:1;fill-rule:evenodd;stroke:none"
       transform="matrix(0.22652023,0,0,-0.23079425,411.87977,420.99803)"
       clip-path="url(#clipPath197)" />
    <path
       id="path198"
       d="m 0,0 c 0,0 -334.166,15.516 -334.166,-5.167 0,-20.684 203.527,-34.474 288.592,-34.474 C 39.496,-39.641 66.838,-10.337 0,0"
       style="fill:#309608;fill-opacity:1;fill-rule:evenodd;stroke:none"
       transform="matrix(0.22652023,0,0,-0.23079425,681.36785,321.80754)"
       clip-path="url(#clipPath199)" />
    <path
       id="path200"
       d="m 0,0 c -86.699,39.336 -187.811,-24.56 -142.488,-94.413 43.875,-67.599 -33.269,-76.483 -55.286,-36.985 C -251.7,-34.673 -160.361,87.015 -79.286,76.667 -47.125,72.563 -15.426,53.69 14.121,32.778 57.425,2.136 13.483,-6.112 0,0 m 174.082,172.033 c 39.641,-24.31 32.745,-69.182 -34.473,-41.137 -67.218,28.046 -179.255,95.367 -230.961,74.798 -51.705,-20.572 -10.342,-78.539 82.732,-78.539 34.574,0 48.964,3.849 92.678,-11.15 C 211.119,72.401 62.206,71.4 47.399,71.994 c -69.804,2.801 -247.334,34.594 -231.82,100.044 15.513,65.449 65.492,103.783 170.629,90.691 C 91.35,249.64 174.082,172.033 174.082,172.033"
       style="fill:#654996;fill-opacity:1;fill-rule:evenodd;stroke:none"
       transform="matrix(0.22652023,0,0,-0.23079425,483.11398,452.49953)"
       clip-path="url(#clipPath201)" />
    <path
       id="path202"
       d="M 0,0 C 20.408,-5.101 22.108,-28.91 3.401,-28.061 -15.305,-27.21 -19.557,-0.849 0,0"
       style="fill:#ffcc00;fill-opacity:1;fill-rule:evenodd;stroke:none"
       transform="matrix(0.22652023,0,0,-0.23079425,526.54358,397.24751)"
       clip-path="url(#clipPath203)" />
    <path
       id="path204"
       d="M 0,0 C 29.396,-7.346 31.84,-41.643 4.896,-40.416 -22.045,-39.191 -28.168,-1.225 0,0"
       style="fill:#309608;fill-opacity:1;fill-rule:evenodd;stroke:none"
       transform="matrix(0.22652023,0,0,-0.23079425,548.83225,396.65274)"
       clip-path="url(#clipPath205)" />
    <path
       id="path206"
       d="M 0,0 C 29.393,-7.348 31.838,-41.64 4.897,-40.416 -22.047,-39.191 -28.17,-1.225 0,0"
       style="fill:#e50f57;fill-opacity:1;fill-rule:evenodd;stroke:none"
       transform="matrix(0.22652023,0,0,-0.23079425,538.91151,407.65265)"
       clip-path="url(#clipPath207)" />
    <path
       id="path208"
       d="M 0,0 C -103.015,24.409 -187.097,40.362 -258.426,32.754 -296.182,28.726 -357.644,-1.05 -281.564,-5.763 -220.12,-9.571 -136.369,-37.361 -38.766,-66.435 50.238,-92.948 86.391,-20.464 0,0"
       style="fill:#44d7e0;fill-opacity:1;fill-rule:evenodd;stroke:none"
       transform="matrix(0.22652023,0,0,-0.23079425,373.93675,572.23777)"
       clip-path="url(#clipPath209)" />
    <path
       id="path210"
       d="m 0,0 c 0,0 14.33,114.613 -103.469,130.53 -117.793,15.921 -218.08,-54.116 -213.307,-93.916 4.778,-39.798 19.105,35.02 90.736,52.531 71.634,17.511 135.308,-6.363 169.531,-47.755 C -22.282,0 -6.363,-9.551 0,0"
       style="fill:#1f5b95;fill-opacity:1;fill-rule:evenodd;stroke:none"
       transform="matrix(0.22652023,0,0,-0.23079425,364.20965,617.71823)"
       clip-path="url(#clipPath211)" />
    <path
       id="path212"
       d="m 0,0 c 9.482,13.79 58.601,57.741 112.896,43.951 54.292,-13.79 35.333,-69.804 12.065,-63.772 C 101.692,-13.79 73.259,24.992 48.263,5.172 23.267,-14.649 0.864,-12.925 0,0"
       style="fill:#e50f57;fill-opacity:1;fill-rule:evenodd;stroke:none"
       transform="matrix(0.22652023,0,0,-0.23079425,302.91393,622.62522)"
       clip-path="url(#clipPath213)" />
    <path
       id="path214"
       d="m 0,0 c -117.389,45.973 -234.59,63.938 -312.343,13.626 0,0 27.179,100.04 220.613,79.287 C -49.851,88.417 -11.376,74.676 25.977,55.965 103.631,17.063 68.335,-26.756 0,0"
       style="fill:#e50f57;fill-opacity:1;fill-rule:evenodd;stroke:none"
       transform="matrix(0.22652023,0,0,-0.23079425,388.01375,547.1582)"
       clip-path="url(#clipPath215)" />
    <path
       id="path216"
       d="m 0,0 c -70.341,34.95 -168.833,71.083 -283.245,77.235 -6.797,0.368 -13.655,0.63 -20.565,0.777 -39.757,0.842 -11.378,35.824 34.731,34.653 17.737,-0.45 35.036,-1.623 52.305,-3.632 C -191.969,106.145 -61.262,69.025 14.715,33.188 64.926,9.502 33.265,-16.53 0,0"
       style="fill:#44d7e0;fill-opacity:1;fill-rule:evenodd;stroke:none"
       transform="matrix(0.22652023,0,0,-0.23079425,406.27239,527.90961)"
       clip-path="url(#clipPath217)" />
    <path
       id="path218"
       d="m 0,0 c 0,0 -137.016,69.997 -300.913,87.575 -55.148,5.915 -25.159,22.838 3.719,21.06 C -166.61,100.581 -41.345,72.332 1.059,24.127 16.978,6.034 0,0 0,0"
       style="fill:#19407a;fill-opacity:1;fill-rule:evenodd;stroke:none"
       transform="matrix(0.22652023,0,0,-0.23079425,422.29293,508.3267)"
       clip-path="url(#clipPath219)" />
    <path
       id="path220"
       d="m 0,0 c 0,0 -64.525,-40.821 -105.343,-10.534 -40.824,30.284 -66.502,45.431 -62.55,9.218 3.949,-36.213 88.882,-53.993 132.999,-46.092 C 9.22,-39.506 24.36,-23.043 23.702,-7.903 23.046,7.241 0,0 0,0"
       style="fill:#1f5b95;fill-opacity:1;fill-rule:evenodd;stroke:none"
       transform="matrix(0.22652023,0,0,-0.23079425,322.36038,660.23983)"
       clip-path="url(#clipPath221)" />
    <path
       id="path222"
       d="m 0,0 c 0,0 -18.434,-27.656 -84.277,-20.413 -65.844,7.246 -67.818,38.19 -79.011,18.438 -11.193,-19.754 4.61,-52.018 65.185,-53.335 60.576,-1.316 84.273,-4.609 118.513,28.312 C 54.648,5.924 10.534,18.436 0,0"
       style="fill:#309608;fill-opacity:1;fill-rule:evenodd;stroke:none"
       transform="matrix(0.22652023,0,0,-0.23079425,317.25017,678.61919)"
       clip-path="url(#clipPath223)" />
    <path
       id="path224"
       d="m 0,0 c -12.507,1.733 -20.657,-41.746 -2.188,-46.432 18.472,-4.681 41.974,-3.692 44.574,15.069 C 44.987,-12.603 44.284,12.984 0,0"
       style="fill:#e50f57;fill-opacity:1;fill-rule:evenodd;stroke:none"
       transform="matrix(0.22652023,0,0,-0.23079425,342.55297,635.60108)"
       clip-path="url(#clipPath225)" />
    <path
       id="path226"
       d="M 0,0 C -6.822,0.945 -11.265,-22.768 -1.193,-25.323 8.882,-27.877 21.7,-27.335 23.115,-17.104 24.534,-6.874 24.149,7.08 0,0"
       style="fill:#1f5b95;fill-opacity:1;fill-rule:evenodd;stroke:none"
       transform="matrix(0.22652023,0,0,-0.23079425,323.47671,639.84811)"
       clip-path="url(#clipPath227)" />
    <path
       id="path228"
       d="m 0,0 c -6.819,0.947 -11.266,-22.766 -1.193,-25.323 10.075,-2.554 22.891,-2.012 24.311,8.219 C 24.535,-6.874 24.152,7.082 0,0"
       style="fill:#e50f57;fill-opacity:1;fill-rule:evenodd;stroke:none"
       transform="matrix(0.22652023,0,0,-0.23079425,307.58135,641.51976)"
       clip-path="url(#clipPath229)" />
    <path
       id="path230"
       d="m 0,0 c -65.613,1.301 -80.263,12.952 -62.17,39.977 7.277,10.865 39.267,15.514 81.474,14.372 C 74.228,52.864 62.084,-1.229 0,0"
       style="fill:#ffcc00;fill-opacity:1;fill-rule:evenodd;stroke:none"
       transform="matrix(0.22652023,0,0,-0.23079425,347.22506,670.40815)"
       clip-path="url(#clipPath231)" />
    <path
       id="path232"
       d="m 0,0 c 0,0 -29.644,-42.912 -102.359,-20.928 -72.717,21.98 -80.448,67.725 -88.439,26.026 -7.991,-41.699 77.656,-77.82 124.831,-73.328 47.175,4.489 82.587,38.682 77.417,56.932 C 6.278,6.954 0,0 0,0"
       style="fill:#ffcc00;fill-opacity:1;fill-rule:evenodd;stroke:none"
       transform="matrix(0.22652023,0,0,-0.23079425,324.09289,700.10117)"
       clip-path="url(#clipPath233)" />
    <path
       id="path234"
       d="m 0,0 c 0,0 72.833,35.326 62.49,88.762 -10.342,53.43 -24.996,84.887 6.031,76.267 C 99.547,156.414 99.119,88.331 85.332,51.276 71.542,14.222 22.419,-19.824 7.771,-18.53 -6.878,-17.235 -8.602,-3.453 0,0"
       style="fill:#1f5b95;fill-opacity:1;fill-rule:evenodd;stroke:none"
       transform="matrix(0.22652023,0,0,-0.23079425,290.78845,797.90888)"
       clip-path="url(#clipPath235)" />
    <path
       id="path236"
       d="m 0,0 c 40.505,0.43 65.927,9.05 97.382,39.647 31.455,30.589 23.7,75.405 -4.308,51.273 C 65.067,66.788 74.119,33.177 21.114,29.733 -31.889,26.285 -13.79,-1.294 0,0"
       style="fill:#309608;fill-opacity:1;fill-rule:evenodd;stroke:none"
       transform="matrix(0.22652023,0,0,-0.23079425,297.67378,751.76795)"
       clip-path="url(#clipPath237)" />
    <path
       id="path238"
       d="M 0,0 C 23.27,0.859 11.204,34.471 -10.342,29.299 -31.885,24.127 -14.651,-6.036 0,0"
       style="fill:#f0bb61;fill-opacity:1;fill-rule:evenodd;stroke:none"
       transform="matrix(0.22652023,0,0,-0.23079425,286.31921,746.40111)"
       clip-path="url(#clipPath239)" />
    <path
       id="path240"
       d="M 0,0 C 58.965,2.181 28.388,87.355 -26.212,74.253 -80.812,61.146 -37.138,-15.292 0,0"
       style="fill:#ffcc00;fill-opacity:1;fill-rule:evenodd;stroke:none"
       transform="matrix(0.22652023,0,0,-0.23079425,326.65775,781.96731)"
       clip-path="url(#clipPath241)" />
    <path
       id="path242"
       d="m 0,0 c -43.297,-0.372 -77.609,-3.074 -77.609,-10.707 0,-9.081 29.581,-16.836 68.194,-22.674 C 52.56,-42.749 53.881,0.459 0,0"
       style="fill:#44d7e0;fill-opacity:1;fill-rule:evenodd;stroke:none"
       transform="matrix(0.22652023,0,0,-0.23079425,348.09122,681.45044)"
       clip-path="url(#clipPath243)" />
    <path
       id="path244"
       d="m 0,0 c -43.313,-0.372 -77.643,-3.074 -77.643,-10.707 0,-9.307 31.075,-17.218 71.098,-23.104 C 47.358,-41.732 44.676,0.38 0,0"
       style="fill:#1f5b95;fill-opacity:1;fill-rule:evenodd;stroke:none"
       transform="matrix(0.22652023,0,0,-0.23079425,347.51463,704.04542)"
       clip-path="url(#clipPath245)" />
    <path
       id="path246"
       d="m 0,0 c -34.075,1.732 -64.106,-2.449 -64.106,-11.996 0,-10.439 24.906,-19.126 54.826,-25.162 C 49.837,-49.087 27.027,-1.375 0,0"
       style="fill:#453367;fill-opacity:1;fill-rule:evenodd;stroke:#453367;stroke-width:0.216;stroke-linecap:butt;stroke-linejoin:miter;stroke-miterlimit:22.926;stroke-dasharray:none;stroke-opacity:1"
       transform="matrix(0.22652023,0,0,-0.23079425,348.9671,726.93753)"
       clip-path="url(#clipPath247)" />
    <path
       id="path248"
       d="M 0,0 C 23.267,0.859 11.201,34.471 -10.342,29.299 -31.885,24.127 -14.652,-6.032 0,0"
       style="fill:#f0bb61;fill-opacity:1;fill-rule:evenodd;stroke:none"
       transform="matrix(0.22652023,0,0,-0.23079425,346.13715,752.94203)"
       clip-path="url(#clipPath249)" />
    <path
       id="path250"
       d="M 0,0 C 34.406,1.271 16.564,50.968 -15.292,43.319 -47.148,35.676 -21.664,-8.925 0,0"
       style="fill:#f0bb61;fill-opacity:1;fill-rule:evenodd;stroke:none"
       transform="matrix(0.22652023,0,0,-0.23079425,301.62668,731.951)"
       clip-path="url(#clipPath251)" />
    <path
       id="path252"
       d="M 0,0 C 1.953,6.237 121.67,103.552 154.498,97.919 187.328,92.285 139.582,68.525 107.621,49.092 75.657,29.657 -7.404,-45.621 0,0"
       style="fill:#654996;fill-opacity:1;fill-rule:evenodd;stroke:none"
       transform="matrix(0.22652023,0,0,-0.23079425,312.49945,879.48667)"
       clip-path="url(#clipPath253)" />
    <path
       id="path254"
       d="M 0,0 C 24.34,14.258 45.964,23.653 57.924,21.602 97.113,14.881 24.174,-23.182 1.968,-36.683 -49.188,-67.782 -43.239,-25.327 0,0"
       style="fill:#44d7e0;fill-opacity:1;fill-rule:evenodd;stroke:none"
       transform="matrix(0.22652023,0,0,-0.23079425,308.49387,852.09345)"
       clip-path="url(#clipPath255)" />
    <path
       id="path256"
       d="M 0,0 C 71.754,52.217 153.437,106.333 174.411,102.732 213.6,96.012 156.609,67.644 118.455,44.448 103.565,35.394 62.915,4.231 19.4,-27.177 -40.803,-70.626 -38.999,-28.381 0,0"
       style="fill:#1f5b95;fill-opacity:1;fill-rule:evenodd;stroke:none"
       transform="matrix(0.22652023,0,0,-0.23079425,301.94933,834.84445)"
       clip-path="url(#clipPath257)" />
    <path
       id="path258"
       d="M 0,0 C 40.147,32.411 81.687,56.162 99.542,52.539 120.17,48.353 81.738,17.45 43.583,-5.75 36.495,-10.058 26.937,-17.339 16.138,-25.99 -31.464,-64.111 -24.68,-19.927 0,0"
       style="fill:#309608;fill-opacity:1;fill-rule:evenodd;stroke:none"
       transform="matrix(0.22652023,0,0,-0.23079425,294.10639,817.61107)"
       clip-path="url(#clipPath259)" />
    <path
       id="path260"
       d="M 0,0 C 58.965,2.181 28.388,87.36 -26.212,74.253 -80.812,61.15 -37.138,-15.292 0,0"
       style="fill:#ffcc00;fill-opacity:1;fill-rule:evenodd;stroke:none"
       transform="matrix(0.22652023,0,0,-0.23079425,565.92857,889.59002)"
       clip-path="url(#clipPath261)" />
    <path
       id="path262"
       d="M 0,0 C 51.702,0 36.19,-55.155 -3.448,-51.707 -43.087,-48.259 -25.855,3.446 0,0"
       style="fill:#654996;fill-opacity:1;fill-rule:evenodd;stroke:none"
       transform="matrix(0.22652023,0,0,-0.23079425,1028.1859,559.37245)"
       clip-path="url(#clipPath263)" />
    <path
       id="path264"
       d="m 0,0 c -52.911,1.796 -72.498,7.72 -72.498,7.72 0,0 31.283,2.494 73.814,6.207 C 28.659,16.309 60.067,-2.033 0,0"
       style="fill:#ffcc00;fill-opacity:1;fill-rule:evenodd;stroke:none"
       transform="matrix(0.22652023,0,0,-0.23079425,722.17091,725.91856)"
       clip-path="url(#clipPath265)" />
    <path
       id="path266"
       d="M 0,0 C 18.96,-3.452 17.236,-27.575 3.448,-36.195 -10.342,-44.815 -39.646,-10.344 0,0"
       style="fill:#f0bb61;fill-opacity:1;fill-rule:evenodd;stroke:none"
       transform="matrix(0.22652023,0,0,-0.23079425,649.3506,857.43951)"
       clip-path="url(#clipPath267)" />
    <path
       id="path268"
       d="M 0,0 C 23.135,-4.209 21.033,-33.652 4.205,-44.166 -12.621,-54.685 -48.38,-12.623 0,0"
       style="fill:#f0bb61;fill-opacity:1;fill-rule:evenodd;stroke:none"
       transform="matrix(0.22652023,0,0,-0.23079425,666.68782,858.50289)"
       clip-path="url(#clipPath269)" />
  </g>
</svg>
