<?xml version="1.0" encoding="UTF-8" standalone="no"?>
<!-- Created with Inkscape (http://www.inkscape.org/) -->

<svg
   version="1.1"
   id="svg1"
   width="666"
   height="666"
   viewBox="0 0 666 665.99999"
   xml:space="preserve"
   xmlns="http://www.w3.org/2000/svg"
   xmlns:svg="http://www.w3.org/2000/svg"><defs
     id="defs1"><filter
       style="color-interpolation-filters:sRGB"
       id="filter10"
       x="-0.0064162122"
       y="-0.0038106933"
       width="1.0127592"
       height="1.0072248"><feGaussianBlur
         stdDeviation="0.20998589"
         id="feGaussianBlur10" /></filter><filter
       style="color-interpolation-filters:sRGB"
       id="filter11"
       x="-0.0056438462"
       y="-0.0030450902"
       width="1.0112145"
       height="1.0056936"><feGaussianBlur
         stdDeviation="0.66959785"
         id="feGaussianBlur11" /></filter></defs><g
     id="g1"
     transform="translate(0.13352372,-1.4936082)"
     style="mix-blend-mode:normal;fill:#00ff00;fill-opacity:0.408654;filter:url(#filter10)"><path
       style="opacity:1;fill:#00ff00;fill-opacity:0.408654;stroke:#4b94cc;stroke-width:1.33146;filter:url(#filter11)"
       d="m 225.82587,3.5297342 6.71058,7.9602218 -4.47373,6.36818 c 4.03804,8.626329 5.05835,13.29857 1.11842,22.288629 l 2.2369,-14.328409 m -5.59217,-15.9204439 1.11842,4.7761339 3.3553,-4.7761339 m -3.3553,6.3681789 c -2.95436,5.683411 -2.9326,9.913062 -1.11842,17.512487 m 7.82902,-19.104532 -2.23685,6.368181 m -6.71063,36.617016 c 5.05016,-0.406032 6.68868,3.439254 11.18434,12.736349 l -10.06588,6.368188 c -2.14235,-14.901069 -3.91685,-21.114713 -3.35529,-30.248829 l 4.47371,6.368152 2.23685,-3.184095 c -2.39241,-4.579634 -4.83637,-8.107207 -3.35527,-15.92043 m 8.94746,1.592033 v 4.776154 h -3.35529 m -2.2369,0 -1.11842,6.368186 m 7.82903,-4.776139 -6.71061,7.960196 m -6.71056,-6.368162 v 3.184105 m 12.30275,1.592035 -2.23688,15.920432 m 1.11844,-4.776128 1.11844,1.592034 m 2.23685,1.592059 -1.11843,6.368174 m 1.11843,4.776118 c 0.18866,29.227935 -0.35342,23.367666 -8.54788,41.393165 -2.88588,6.34808 -5.16614,12.60847 -6.45931,17.5084 -1.34874,5.11086 -1.43418,15.11934 1.81644,15.11958 10.87631,8.3e-4 5.05069,-15.58543 2.00644,-21.48368 M 2.1392411,83.131956 v -7.960222 c 1.2562802,5.601937 1.6755436,10.36617 6.7105903,20.696572 h 7.8290406 l -6.7106002,9.552254 7.8290292,-3.18408 4.473732,9.55227 c 3.45362,-0.0557 2.936077,14.98705 -3.3553,27.06479 -2.687176,-10.40011 -1.305533,-15.69488 3.3553,-27.06479 m 203.554837,-35.02497 1.11842,15.920445 8.94746,-6.368175 m -6.71061,6.368175 h 6.71061 m -10.06588,1.592031 3.35527,19.104544 M 8.8498314,95.868306 v 7.960254 m 8.9474696,-4.77615 v 3.18407 m -5.59216,6.36819 4.473731,9.55229 m 212.502268,-3.18412 c 4.71663,7.21036 10.57886,23.72433 -2.23685,39.80113 l 4.47375,6.36818 -8.94746,12.73636 c -4.65785,-12.32067 -12.64657,-8.32569 -10.0659,4.77613 l -7.82905,1.59206 M 18.915733,138.85354 c 4.735883,5.41404 7.171995,1.23965 10.065888,-1.59208 -0.984853,-8.68579 1.74073,-11.95873 5.592172,-15.92042 v 9.55226 l -1.11843,-1.59204 -1.11843,-1.59204 1.11843,-1.59208 1.11843,1.59208 1.118441,1.59204 1.118429,-1.59204 m -16.7765,-4.77614 h 2.23687 m 11.18433,0 v 3.18406 m 4.47374,1.59208 6.710592,9.55224 c -0.485951,2.61066 -0.379246,8.65525 2.236869,7.96026 m -13.421201,-15.92046 -4.473742,6.36816 m -2.236849,-1.59202 -6.710609,9.55225 m 314.279717,-4.77611 h 3.3553 v 1.59203 l -4.47376,7.96021 -1.46663,-13.89534 m -285.970656,2.75102 1.11843,7.96026 m 323.227176,-7.96026 c -6.51172,15.83879 -3.76392,21.42732 -13.42122,39.80113 l -6.71058,-9.55229 c -1.03988,4.24112 -3.01421,14.21488 6.71058,11.14434 m -124.14607,-39.8011 h 2.23688 m -205.791709,1.59203 7.829042,14.3284 c 2.761809,-3.93133 4.490522,-6.39209 10.065901,-14.3284 m -4.47373,1.59205 -6.7106,9.55226 m 13.421191,-9.55226 6.710601,15.92044 1.118439,-6.36818 c 2.867035,10.75142 -4.252924,15.58837 -6.710602,19.10453 2.37412,3.89969 6.825233,13.0219 10.659669,15.64556 7.085897,4.84835 11.929822,-8.38351 16.182724,6.64309 -8.639555,7.00486 -4.287853,18.61508 -2.236871,33.4329 8.352604,-14.10071 11.837499,-17.78436 3.355301,-31.8409 m 289.674174,-50.94541 3.3553,4.77613 -3.3553,4.77614 m -318.753435,-6.36819 2.236868,4.77615 3.355301,-1.59205 m 181.186156,-3.1841 c -0.004,18.4171 5.31113,36.72198 -4.47371,46.16933 l 5.59214,12.73632 V 189.79894 M 46.876564,149.99783 c -6.538168,5.7569 -14.515648,15.35077 -9.840135,20.91895 2.433071,2.89758 4.396567,-2.89952 5.610572,-6.687 2.162718,-6.74729 5.11525,-11.32513 7.584862,-14.23195 m 5.592163,0 1.118439,1.59205 m 275.134525,-1.59205 -8.94745,28.65681 c -14.17756,-15.68059 -21.37182,11.46915 -17.89494,25.47272 7.99916,-7.56533 13.37799,3.95474 27.96082,17.5125 8.57032,-12.07051 16.78105,-19.25229 16.77652,-33.43297 -4.33055,3.60187 -8.72243,7.40442 -11.18434,15.92047 l 1.11843,1.59202 1.11844,1.59205 1.11843,1.59203 m -293.029475,-57.31358 3.355309,3.18409 m 170.001846,-3.18409 v 12.73635 m 2.23683,-12.73635 2.23688,3.18409 m 4.47375,-1.59205 h 3.35529 m 90.59307,11.14431 h -6.7106 l 2.23687,-11.14431 6.7106,6.36818 m -290.792607,-3.18407 3.355299,4.77612 m 320.990318,9.55226 -5.59218,-11.14431 7.82904,-1.59204 m -303.095384,1.59204 5.592168,4.77613 -1.118439,1.59206 -2.236862,-3.18407 m 291.911037,-3.18412 -4.47372,6.36819 m -291.911056,-3.18407 -1.118419,1.59201 m 295.266345,-1.59201 6.71057,9.55224 m -301.976915,-7.96023 -4.473731,9.55228 m 266.187066,-9.55228 -3.35531,4.77614 m -271.779237,-1.59207 5.592172,1.59207 m 17.894941,-1.59207 c 9.402896,12.94102 18.159847,21.18353 30.197693,27.06476 H 93.850766 M 49.113425,169.10237 c -5.544123,18.56938 2.406109,24.49757 8.947459,17.51249 m 164.409696,-12.73635 -3.35533,15.92043 c 3.4248,-2.92951 6.83684,-9.45596 16.7765,-14.32841 m 70.75934,5.93515 c 4.19993,5.39782 11.32877,0.19215 16.47845,2.02509 v -4.77613 m -284.082016,-3.18411 4.473729,7.96024 -2.236859,-4.77613 m 162.172786,-1.59205 c -5.08451,13.07888 -0.99222,14.90181 3.35531,14.32837 l -5.59215,-7.96019 m 136.44884,0 c 1.96219,-4.50357 2.4632,-4.62492 5.59214,-4.77613 -3.01433,5.55568 -5.50089,9.7875 -2.23685,15.92042 m 2.23685,-15.92042 h 2.23689 m -262.831794,1.59206 -1.118419,1.59205 m 130.856683,-1.59205 6.71057,9.55224 m -163.291224,-7.96019 -7.829032,11.14431 m 29.079262,-11.14431 -13.421201,11.14431 m -20.131802,-9.55229 3.355311,4.77612 m 2.236861,-4.77612 h 3.355309 M 226.87053,102.5138 c 3.74013,5.32391 -14.24807,90.77928 -6.63684,101.61356 l 9.18356,-22.14533 m 99.30445,17.36918 c -3.23235,-10.68151 1.23669,-13.2054 7.82903,-7.96025 -8.11238,11.65712 -5.06493,15.82203 1.11845,12.7364 l -4.47376,-6.36817 m 17.89493,-12.73641 -2.23684,3.18411 m -263.950225,0 -4.473729,7.96022 m 223.686634,6.36818 -7.82904,11.14433 c -11.52732,-0.61711 -14.99052,-9.34713 -12.30278,-20.69656 l 6.71062,7.9602 -3.35533,-9.5523 c 7.46343,-3.5556 10.61547,-0.42763 14.53964,3.1841 m 14.53965,0 4.47372,-6.36817 3.35531,4.77617 m -262.831786,-3.18412 -8.94746,7.96025 m 154.343756,-6.36823 c 1.53608,2.22311 3.1052,4.33946 4.5651,6.71006 12.92775,20.99185 -15.24297,20.04267 -1.20979,45.82744 6.37906,-1.63574 9.44204,1.33247 14.53961,6.36817 l 8.94748,-3.18409 c 0,-2.45016 -0.23843,-1.89646 -2.23685,0 m -11.18435,-55.72158 -2.23687,15.92047 m 67.106,-15.92047 h 2.23684 m -223.686605,3.1841 -10.065901,7.96023 m 148.751596,-7.96023 -3.3553,12.73637 -4.47374,-4.77614 -1.11843,1.59207 7.82906,12.73635 c -2.03002,0.59654 -8.0303,-3.19492 -11.7417,1.38555 -3.58112,4.41979 9.55097,27.11928 13.97854,27.27126 l -5.59213,-7.96023 4.4737,-6.36817 m -134.211965,-35.02501 2.23687,3.1841 m 26.842404,-1.59202 11.184321,14.32837 6.71059,-7.9602 c 1.38386,11.29367 -2.10032,11.20221 -2.23684,30.24883 4.90492,-6.63522 7.81134,-10.32719 13.4212,-11.1443 -3.02877,4.78357 -5.24789,8.74396 -11.18436,19.10456 l 5.59216,4.77609 -6.71058,7.96024 m 227.04192,-57.31359 4.47374,6.36817 m -240.46315,-1.59207 c 3.49096,-1.08037 3.8509,-0.53199 5.59218,3.18409 m 85.00092,-6.36817 -1.11845,1.59205 m -92.82992,0 c -8.494504,16.90601 -10.057385,17.14553 -15.658064,27.06477 l 4.473731,-4.77614 m 195.725803,-9.55227 -1.11844,12.73634 c -4.08107,-5.80923 -7.81453,-11.12366 -15.65808,-22.2886 l 11.18433,-3.1841 m 10.06592,0 5.59216,7.9602 M 97.206059,205.71938 h 2.236856 m -39.145159,-1.59202 c 1.165478,3.84538 1.599441,5.35484 5.592168,4.7761 l 1.118442,7.96025 -4.473743,-3.18409 m 7.829032,-9.55226 -3.355289,4.7761 m 168.883384,-4.7761 c -4.67097,6.37679 -9.57364,13.25924 -16.7765,7.9602 v 0 m 22.36869,-7.9602 c 0.91648,6.0879 3.27786,5.06745 5.59214,6.36818 -0.25491,5.43442 1.45587,8.92445 5.59217,14.32841 l -3.35529,9.55224 -4.47374,-6.36816 4.47374,3.18409 m -5.59218,-20.69658 2.23688,-6.36818 11.18434,17.5125 -3.35532,3.18409 m 30.19769,35.02497 2.23689,6.36817 c -10.84122,0.36323 -12.54494,-9.95423 -11.18434,-19.10455 2.72236,3.55971 6.85754,7.07978 15.65807,17.5125 l 13.4212,-14.32841 c -7.90226,-13.24446 -14.32819,-17.04106 -19.01337,-22.2886 -7.23534,4.11498 -8.35634,3.51845 -16.50268,-0.76843 -10.24123,-5.38922 -3.18878,-16.97687 0.8446,-23.11224 m 36.90829,0 c 3.64085,6.37684 5.55012,14.35746 10.9541,21.36647 4.27397,5.54333 9.52505,2.91605 9.17771,-5.44603 m -229.278781,-14.32842 -10.065903,6.36818 -1.11843,-1.59202 -1.118441,-1.59208 M 237.01018,205.71938 225.82587,220.0478 M 328.7217,205.71938 v 7.96024 m -129.73825,-6.36819 8.94748,11.14432 m 33.55301,-9.55229 c -5.18738,7.52999 -7.43939,11.26387 -10.0659,15.92049 l 13.42118,9.55224 4.47374,9.55227 -12.30278,35.02499 1.11845,1.59206 c 6.07331,-8.8028 7.83414,-11.7204 11.18433,-17.51248 l 4.47372,11.14429 m 70.4613,-65.27386 h 2.23686 m -250.529015,1.59208 h 6.710591 m 165.528114,0 7.82902,11.14432 m 79.40876,-11.14432 v 1.59202 m -227.04193,0 c 1.92997,6.93498 7.18757,6.63265 12.30275,7.96024 m 15.65808,27.06474 -8.94747,-23.88065 c 9.16055,-10.84807 15.29106,-3.45413 24.60554,7.96023 -7.78088,8.8264 -11.3951,11.71626 -16.6942,20.64274 -7.51549,12.65997 -7.02811,8.80341 -23.5694,12.79018 6.32965,4.38756 11.8105,9.71322 15.65806,0 m 116.31704,-52.53748 1.11844,1.59206 m 77.17188,7.96024 v -9.5523 m -180.06773,9.5523 c 7.83251,-6.02722 11.05507,-2.28557 15.65806,3.18409 7.28877,-7.71785 21.22972,2.3999 21.25023,-7.96024 l -5.59217,6.36818 m 123.02766,-9.55227 6.71058,25.47271 h -3.35529 m 14.53963,-23.88067 4.47373,-1.59204 m -241.581544,11.14433 1.11843,7.9602 c 5.35138,-11.05814 7.311212,-13.11013 13.421201,-17.51249 m 143.159443,11.1443 8.94745,-11.1443 m -61.5138,3.18409 4.47373,-1.59204 m 58.15851,0 -8.94747,12.73635 m -167.764965,-11.14431 4.47374,1.59205 m 22.368652,-1.59205 h 12.302763 m 60.39538,0 -8.94746,12.73637 c 2.88847,1.7582 6.19189,3.43447 11.19137,8.48245 3.23341,3.26482 6.90674,8.58509 9.50611,5.12264 3.16184,-4.21165 -2.33632,-10.03028 -6.15785,-15.19715 2.61509,8.69901 4.70568,11.15043 7.82905,15.92046 m 78.29031,-25.47272 2.23687,-1.59205 m -162.172805,1.59205 -2.236856,14.32839 -6.710602,-7.96023 m 13.421193,-6.36816 c -0.015,4.94068 -8.97765,32.17686 -1.11843,36.61704 l -3.355305,-3.18412 M 310.82678,220.0478 c -0.27398,5.6291 -0.83,10.13632 3.35529,20.6966 l 1.11842,-1.59207 -2.23684,-7.96021 3.3553,7.96021 m -120.79079,-17.51247 -4.47374,6.36817 m 38.02672,-6.36817 2.2369,3.18409 m 101.77738,-3.18409 -2.23685,3.18409 m -197.96265,3.18408 7.82902,-4.77614 m 183.42304,0 2.23686,3.18407 m -168.88341,-1.59201 -2.23687,6.36817 m 107.36959,-6.36817 c -3.0926,6.67485 -10.17612,27.18936 -19.01337,39.80109 m -168.883395,-38.20908 1.11844,4.77616 m 105.132715,-4.77616 7.82903,3.1841 1.11844,-1.59203 m 2.23685,-1.59207 7.82904,9.55227 m -26.84241,-7.9602 v 1.59203 m 129.73824,-1.59203 5.59217,1.59203 m -221.449744,0 c -3.700461,12.62483 1.937963,17.35936 10.065903,20.69657 m 57.040071,-20.69657 c -1.0971,15.53858 -4.58607,20.88422 -14.53962,27.06478 l -3.3553,-4.77613 m 164.40969,-22.28865 -4.47375,6.36817 m 12.30275,-6.36817 v 3.18409 m -153.22534,-1.59203 h 3.3553 m 7.82904,3.18407 5.59217,-3.18407 m 74.93501,0 -2.23686,3.18407 M 82.666416,232.78415 h 2.236869 m 92.829975,0 1.1184,1.59204 m 7.82905,-1.59204 c 2.39549,7.72056 4.97818,7.39542 7.829,7.96025 m 83.88251,-7.96025 c 4.00614,9.06458 6.75906,12.34997 14.53963,25.47272 m -11.18433,-25.47272 12.30277,17.51248 3.3553,-4.77611 4.47371,6.36819 m 6.7106,-19.10456 -1.11843,15.92045 h -1.11844 l -1.11843,1.59203 m 16.7765,-17.51248 -2.23685,3.18408 m -241.581564,-1.59204 4.47373,4.77614 m 4.47374,-4.77614 5.592172,1.59204 m 20.131802,-1.59204 -3.35531,4.77614 5.59215,3.18412 m 48.09265,-7.96026 c 5.202,7.98691 6.1758,14.46799 15.65804,15.92044 m -80.527173,-14.3284 3.355303,3.1841 m 98.42211,-3.1841 c 5.19944,6.89225 9.86722,12.09727 16.77648,7.96023 m 60.39539,-6.36817 -2.23685,9.55225 m -170.00186,-7.96021 h 4.47376 m 74.93502,1.59207 h 1.11842 m 0,0 c 2.47127,3.21059 4.76587,9.31302 12.30279,9.55223 m 116.31702,-9.55223 -2.23687,3.18406 m -34.67143,-1.59201 8.94749,12.73633 m -76.05346,-11.14432 -2.23687,4.77614 m 41.38203,-4.77614 5.59215,1.59206 m 42.50048,-1.59206 v 1.59206 m -164.40967,0 -10.06591,14.3284 m 80.52717,-14.3284 3.35531,4.77611 m -85.0009,-3.18409 -1.11846,14.32841 m 2.23688,-12.73635 h 3.35532 m 27.9608,0 c 0.91232,7.8372 6.3247,13.73139 12.24997,18.61548 5.6725,4.67574 10.54767,28.42764 -4.42092,19.5936 -3.82144,8.86536 -8.6752,7.51269 -16.7765,0 6.07493,-11.63538 8.6212,-16.59286 12.30275,-22.28864 m 69.34286,-15.92044 4.47375,6.36818 c -4.74783,-0.51234 -5.11013,-2.27503 -6.71063,-4.77615 m 8.94748,-1.59203 3.35529,6.36818 h -4.47373 M 257.142,248.7046 c 4.44325,6.24588 7.87725,8.81114 14.53962,6.36818 m -41.38203,-4.77615 1.11845,1.59208 m 25.72396,-1.59208 -8.94747,9.55229 m -42.50048,-7.96021 c 0.0841,5.86067 0.75735,10.30085 5.59217,15.92042 l 1.11846,-4.7761 m 81.64561,-11.14432 2.23686,3.18407 m -119.67234,-1.59206 -7.82906,9.55231 m 25.72396,-9.55231 c -4.6931,9.60869 -6.39405,14.58985 -5.59214,22.28864 l 8.94748,-12.73633 -4.47377,-7.96025 m 5.59217,-1.59206 -1.1184,7.96023 m 30.19767,-7.96023 -8.35136,-21.64056 m -112.43942,24.82468 3.3553,3.18408 1.11844,-1.59205 -1.11844,-1.59203 -2.23686,3.18408 h 2.23686 m 126.38294,-3.18408 2.23688,3.18408 m 23.48709,-3.18408 -8.94747,12.73635 m -152.10689,-11.14432 7.82903,4.77616 m 3.35531,-4.77616 1.11842,1.59205 m 26.84239,-1.59205 c 2.44522,5.72743 4.46198,7.17677 8.94748,9.55226 -1.75274,3.45783 -3.82378,5.54735 -3.35531,14.3284 m 53.68479,-23.88066 h 3.35528 m 61.51386,0 c 1.69243,9.21707 4.51225,12.40679 7.829,14.32841 m -4.47373,-14.32841 c 2.31372,3.1699 4.67876,11.861 14.53963,11.14432 m -63.75069,-9.55227 h 1.11844 m -29.07927,1.59203 3.35529,4.77614 m -53.68477,-3.18406 c -2.67246,3.80792 -4.36048,10.68368 -14.53961,11.14429 m 114.08016,-11.14429 -3.35531,12.73633 M 110.62724,264.62504 h 1.11844 m 108.48801,19.10455 4.47372,4.77613 c 0.32763,-8.25028 -1.96706,-12.97358 -5.59216,-19.10453 8.34287,-1.2486 11.4897,10.32384 17.89493,12.73634 m -1.11843,-11.14432 c -1.05608,-3.49294 -0.91549,-2.83806 1.11843,-1.59202 m 49.21108,-3.1841 3.35529,-1.59205 m -139.80413,3.18409 h 3.35531 m 10.06589,0 c 2.44739,7.19959 5.28824,12.59558 2.23686,20.69659 m 62.63224,-17.51251 5.59217,-3.18408 m 17.89494,0 -3.3553,12.73638 3.3553,-4.77615 m 12.30275,-7.96023 c 2.08063,4.73853 3.66111,8.01149 8.94746,15.92046 l 5.59218,-7.96023 m -77.17188,-3.18408 3.35529,1.59204 3.3553,-4.77613 m 4.47375,0 c -1.08665,4.64027 -0.48403,2.42372 -2.23688,1.59202 m 7.82902,-1.59202 h 1.11843 m -38.02671,1.59202 c 4.67044,9.04832 14.76866,21.66125 16.77651,7.96024 m -4.47377,-7.96024 6.71062,3.18411 m 24.60551,-3.18411 -2.23683,3.18411 m 32.43453,1.59204 7.82904,-3.18408 m -129.73823,0 11.18431,14.3284 m 67.10599,-14.3284 v 3.18408 m 19.01337,-3.18408 1.11845,1.59204 m 1.11841,0 2.23688,-1.59204 m 10.06589,0 2.23686,3.18408 m 15.65807,-3.18408 -5.59215,20.69657 m -92.82997,-19.10453 c -2.99826,5.08378 -6.30576,9.06338 -3.35529,19.10453 m 65.98755,-19.10453 -1.11842,3.18407 m 44.73731,-1.59203 1.11844,1.59203 m -138.6857,0 1.11842,1.59206 m 53.68479,-1.59206 v 1.59206 m 85.00091,-1.59206 2.23688,3.18412 m -53.68479,-1.59206 -3.35531,3.18408 m 39.14518,1.59206 -6.71063,1.59203 c 2.9368,8.29425 1.67571,11.55391 -1.11841,17.5125 -2.84789,-8.6965 -3.40461,-12.67311 -1.11843,-22.28861 m -102.89585,0 -2.23687,3.18408 m 19.01337,-3.18408 v 6.36817 m 24.60553,-6.36817 c -3.20075,7.23341 -5.87318,6.40319 -8.94745,6.36817 m 17.8949,-6.36817 v 3.18408 m 11.18433,-1.59206 4.47373,1.59206 h -6.71059 l 1.11842,-1.59206 2.23688,3.18409 h -2.23688 m 58.15853,-4.77611 c 1.76168,6.35757 4.70748,6.56605 8.94746,4.77611 m -124.14608,-3.18409 2.23688,9.55227 m 48.09261,-9.55227 5.59218,1.59206 m 26.84241,-1.59206 -4.47375,3.18409 m 21.25024,-3.18409 2.23684,3.18409 m -46.97419,-1.59203 -4.47373,9.55226 c 3.57435,2.47899 5.73423,4.10168 6.7106,11.14434 l -4.47371,-3.1841 -1.11844,1.59203 5.59215,-4.77613 m 6.71063,-14.3284 2.23685,3.18409 m -44.73732,-1.59206 c 4.80653,12.69663 0.68915,21.65775 4.47373,35.025 l -1.11845,-6.3682 m 23.48712,-28.6568 1.11844,6.36818 m 12.30275,-6.36818 -3.35531,3.1841 m -48.09263,-1.59204 2.23688,3.18409 m 25.72397,-3.18409 c 3.94661,11.84307 -0.43122,15.70064 2.23686,28.65681 2.28066,-3.97134 4.98812,-6.6715 5.59214,-17.5125 m 53.68482,-11.14431 1.11843,7.9602 1.11841,-6.36816 m 12.30278,-1.59204 c 0.24978,7.32271 0.72774,10.19168 2.23689,15.92044 l 5.59214,-14.3284 m -116.31705,4.77613 4.47373,-3.18408 m 52.56636,0 -3.35529,1.59203 m 14.53965,0 c -1.09366,4.4665 -1.40773,5.22572 -4.47376,6.36819 m 19.01336,-6.36819 c -4.77496,4.88745 -7.58745,6.40089 -12.30277,11.14432 l 6.71063,-1.59203 m 10.0659,-9.55229 c -0.62322,12.09784 2.34078,16.73711 5.59214,22.28862 l 2.23688,-11.1443 m -21.25024,-3.18408 4.47373,-3.18411 v 0 m -68.22442,-1.59205 -3.35529,6.36821 3.35529,-1.59205 m 34.67142,1.59205 1.11845,-4.77616 3.35528,4.77616 m 11.18435,-4.77616 v 1.59206 m -55.92167,0 4.47376,3.1841 m 72.69813,-3.1841 c 3.56343,11.43393 6.76478,16.41873 11.18433,15.92043 m -74.93501,-4.77613 v -6.36817 m 38.02673,1.59207 2.23688,-1.59207 m 52.56636,0 c -0.94082,6.85744 -0.74749,19.05182 -1.24005,25.37001 -0.64662,8.29424 -4.26225,14.26412 -10.11557,19.49475 -7.30734,6.52999 -10.66362,-1.51854 -17.72367,-11.43184 l -19.01337,11.14433 c 5.45154,1.8597 9.58483,5.16033 12.71298,3.11242 m -67.51618,-46.0976 6.71057,6.36816 v -3.18411 m 62.63229,-3.18405 2.23685,6.36816 3.35529,-4.77615 m -41.38202,0 4.47374,4.77615 -4.47374,6.36818 2.23689,3.18409 3.35529,-9.55227 m 30.1977,-4.77615 -4.47375,9.55229 6.7106,-3.18411 m 23.48711,-6.36818 2.23685,33.43296 m -64.86914,-31.84092 3.35534,3.18411 m 41.38201,-3.18411 v 3.18411 m -10.06592,6.36818 c -5.74297,1.39769 -6.84325,-1.90563 -6.71056,-7.96024 l 4.47371,4.77613 m -31.31613,-3.18407 -6.71059,6.36818 m -20.13182,-4.77615 -10.11606,4.12501 m 43.66906,-4.12501 5.59218,3.18411 -2.23688,12.73634 3.35531,-12.73634 m 27.96082,20.69655 6.7106,-9.55225 -5.59215,-14.32841 m 0,0 5.59215,11.14431 m -46.97417,-7.9602 3.35529,3.18408 m 4.47373,-3.18408 -3.35529,4.77613 m 31.31611,-3.18409 2.23688,9.55226 c -0.78945,-3.37124 -1.51698,-1.02471 1.11842,-4.77611 m -45.85574,-3.18411 c 6.58565,14.62199 10.98701,13.01519 15.65804,9.55226 v 0 m -8.94744,-9.55226 -3.35533,4.77612 m 16.77652,-4.77612 1.11842,12.73636 -4.47373,-4.77614 m -33.3169,4.92256 c 0.0241,39.95144 15.04343,18.44784 22.13257,33.28651 -8.61128,20.72376 25.55899,17.86569 0,0 m 5.59218,-44.57724 v 3.18407 m 26.84238,-3.18407 5.59217,4.77612 m -7.82902,-3.18406 -6.71062,7.96018 m 17.89493,-4.77612 3.35531,4.77612 m -38.02674,-4.77612 -5.59214,6.36819 m 6.71057,-3.1841 1.11845,1.59203 m 49.21105,17.51251 c -1.52734,-3.92678 -4.7887,-11.07319 3.35532,-14.32839 m -55.92166,3.18406 c 7.82605,7.29486 15.27503,22.87844 20.30588,26.56006 m -33.72709,-13.8237 c 11.42837,-3.85685 13.54456,12.00745 13.42121,17.51248 m -17.89496,-20.69657 -3.3553,1.59206 m 34.67145,-1.59206 h 2.23685 m -21.25022,1.59206 -5.59215,7.9602 m -3.3553,-6.36817 -6.71063,3.18412 v 0 m 71.57975,0 c 0.8279,5.47383 0.67716,9.20214 -3.3553,17.51246 2.27338,6.41307 2.55481,10.34201 -3.35531,12.73637 -1.20498,-11.03562 -3.56263,-13.733 -5.59216,-17.51249 l 2.23688,-3.1841 5.59214,7.96022 m -49.21103,-15.92045 -4.47377,4.77615 m -11.1843,-3.18411 v 3.18411 m 59.27696,1.59204 4.47372,-4.77615 m 10.06589,6.36819 -3.3553,12.73636 m -55.1568,-5.65239 -10.83074,7.24444 m -6.71063,62.08973 -3.35527,7.96024 c 12.06238,4.53487 13.85148,-1.54155 15.26376,-14.36383 0.91492,-8.30677 3.76284,-9.5071 8.25609,-15.01933 4.85574,-5.95698 10.89915,-13.6608 17.75124,-25.46897 4.67127,-8.05001 7.17579,-12.22338 15.18091,-16.4567 m -26.25432,1.25886 12.30276,12.73634 m -31.31612,-6.36816 c -4.6147,5.0074 -7.69942,9.03098 -14.53964,9.55225 -5.34204,13.32328 -13.53549,21.58734 -22.36865,30.24888 2.1014,3.34197 6.37161,8.60727 7.82902,22.28861 l -1.11843,-1.59205 m 87.23779,-60.49769 -20.13181,22.28862 c 5.01938,7.14486 9.17587,13.06141 20.13181,28.65681 3.66658,-7.60329 4.90131,-10.87321 5.59215,-15.92047 m -35.87824,-37.82645 c -5.27394,7.50723 -21.57113,17.72188 -21.16185,42.60262 M 174.37794,391.9886 c 7.86544,-0.2918 9.69783,7.64895 12.30277,12.73637 l 3.3553,-9.55228 h -5.59217 m -17.89494,7.96022 c -0.48272,-3.35883 -1.34783,-6.39955 3.35531,-6.36816 m 12.30277,-3.18411 c -2.38559,3.3958 -0.82239,2.79391 -3.35532,1.59205 m 41.38203,-1.59205 c -2.63196,10.82896 -15.55529,31.1232 -26.84241,39.80114 m -46.97417,-38.20909 -1.11843,6.3682 10.06588,14.3284 m -1.11843,-6.3682 6.71061,-14.3284 3.35529,4.77616 m 7.82904,-1.59205 5.59219,-3.18411 m 71.5797,0 1.11841,4.77616 -1.11841,-4.77616 m 3.35529,3.18411 3.3553,-1.59205 c -1.92712,6.32157 -2.67215,9.57446 0,20.69656 l 5.59217,-7.96022 -7.82904,-3.18408 m 2.23687,-9.55226 c 5.12805,3.86064 4.22618,6.90371 3.3553,11.1443 m -110.72489,-6.36816 10.0659,-3.18409 m 16.77651,0 c 7.97147,9.4668 12.17795,10.21278 19.01334,9.55225 m 55.92166,-7.9602 2.23688,3.18406 m 8.94747,-3.18406 -4.47372,6.36816 m -97.3037,-4.77612 5.59218,4.77612 m 5.59216,-4.77612 10.0659,11.1443 2.23684,-4.77614 m 81.64566,-6.36816 7.829,7.9602 -5.59216,14.32841 11.18434,-14.32841 5.59215,9.55228 c 14.9649,-13.7413 10.91283,12.34896 -0.0124,15.43066 -7.92833,2.23633 -14.32144,11.39695 -16.76398,14.81818 l 5.59217,9.55227 3.35529,-6.36818 c 16.16692,24.54017 17.05752,-1.21171 29.07926,-1.59204 l -6.71061,17.51249 -6.71059,-3.18409 m -135.3305,-25.47269 c -1.514,-2.48545 -5.01555,-8.52714 -10.49284,-15.92707 -4.57988,-6.18752 -13.65558,-15.53726 -1.80994,-20.68999 0.98133,10.41715 3.69408,14.10623 6.71061,19.10457 m 3.35529,-19.10457 -2.23685,3.1841 m 68.22441,-3.1841 c 3.3478,5.91368 14.4333,24.51045 23.47857,35.684 5.89636,7.28379 12.8881,-1.37627 6.71911,-10.21127 m -18.83925,-32.99987 c 3.06912,4.36875 5.00647,19.67767 15.48396,34.5919 m -111.84331,-23.88066 -4.47375,3.18408 5.59219,-1.59204 m 4.47373,-3.18408 2.23687,6.36818 m 79.40877,-6.36818 2.23683,14.11344 m 44.73733,-12.5214 v 4.77614 m -154.34377,1.59204 8.94745,15.92045 c -21.32747,5.56315 -15.24565,-15.44386 6.7106,-20.69659 m 89.47467,0 c -2.67481,8.01375 -15.49934,22.59784 -12.30276,46.16929 -3.99905,0.52128 -8.9386,1.73227 -13.42122,-14.32837 m 102.45035,-9.04444 c -1.16,-7.3885 -47.80561,-18.52807 -44.29181,-22.79648 m 21.25024,1.59204 h 2.23686 m -148.75161,1.59206 10.06591,14.3284 c -21.29089,21.92521 -5.95778,15.13721 -30.19771,11.14431 l 10.0659,12.73635 m 14.53964,-38.20906 v 3.18408 m 117.43548,-3.18408 2.23687,3.18408 m 10.06589,-3.18408 4.47373,6.36816 m -140.92256,-4.77612 8.94745,14.3284 m 32.43456,-14.3284 c 4.96011,4.64771 7.74984,5.89348 13.42118,3.1841 m 11.18434,-3.1841 10.82433,-5.93512 m -81.28562,7.52716 -2.23683,3.18408 m 101.77739,-3.18408 c 12.8175,22.04236 -5.51613,54.32754 -19.01335,66.8659 m -45.85578,-63.68182 c 2.21546,2.61525 4.33566,8.21038 12.30276,6.36819 l 3.35532,11.1443 3.3553,-14.32839 m 81.64561,-3.1841 c 2.00958,4.35617 8.2651,16.74395 11.18433,7.96024 M 107.27194,438.1579 c -2.00583,-3.43424 -9.922567,-13.25261 0,-19.10453 m 64.86913,0 -3.35532,4.77613 m 8.94751,-4.77613 c 3.88373,4.08898 6.57078,6.51534 12.30275,7.96022 m 93.94836,-7.96022 -5.59215,11.1443 m -128.6198,-9.55226 -2.23688,3.18409 m -55.921653,9.55228 -4.473731,-4.77614 -6.7106,7.96022 c 9.141304,11.62229 10.321229,4.69101 19.013359,27.06477 13.463415,-22.84187 -17.990055,-19.21291 0,-39.80113 m 38.026735,1.59205 6.71058,-1.59205 m 41.38203,3.18409 -4.47372,12.73638 m -57.04012,-11.14433 6.7106,1.59203 m 33.55301,-1.59203 4.47372,3.18408 v 0 m -55.92162,-1.59205 -2.23689,3.18411 m 152.10691,-3.18411 -5.59215,4.77613 c 2.95425,4.40007 6.79471,18.18316 12.30274,17.5125 m 1.11844,-22.28863 h 7.82904 m 22.36868,15.92047 c 1.40171,-6.93975 7.78573,-23.57444 19.01335,-7.96024 l -14.53965,12.73636 m -140.92257,-19.10454 -4.47373,3.18408 m 30.19771,-3.18408 c -2.28011,4.25538 -3.60723,7.07947 -8.94747,15.92045 m 133.09353,-15.92045 v 6.36818 m -139.80413,-4.77612 2.23687,6.36819 c 3.74088,-1.77503 2.2632,1.70464 1.11845,-3.18411 m -92.829975,-1.59206 10.065892,7.96024 m 35.789843,-7.96024 7.82907,14.32841 c -2.15048,-1.02038 -1.31542,0.7509 -2.23688,-3.18407 m 16.77652,-11.14434 -6.71062,9.55229 m 20.13179,-9.55229 c 2.46176,7.05393 4.67317,9.81026 10.06591,11.14434 m 68.22441,-11.14434 -1.11844,1.59206 m 44.73732,-1.59206 c 0.38583,10.75658 -4.16097,15.27168 -7.82903,20.69658 M 79.311115,436.56586 h 1.118441 m 25.723964,0 -7.829033,4.77613 m 58.158523,-4.77613 1.11842,1.59204 m 27.96083,-1.59204 -2.23688,3.18411 m 99.54056,-3.18411 -11.18432,17.51248 M 166.5489,438.1579 l -6.7106,6.36819 m -31.31611,-4.77612 c 0.25038,4.06409 -0.98789,8.31336 -1.11845,20.69658 -9.18806,-0.0894 -15.40015,-0.34409 -23.48709,0 m 187.89674,-20.69658 7.82905,1.59202 m 21.25023,-1.59202 1.11843,6.36817 h 11.18432 -3.35527 m -251.647464,7.9602 v -12.73635 l 7.82904,9.55227 -8.94747,4.77612 5.59216,9.55228 2.236869,-12.73636 m 19.013365,-11.14431 10.0659,7.96022 m 139.80413,-7.96022 10.0659,9.55227 M 90.495457,442.93404 v 3.1841 m 123.426053,-12.88282 -23.8855,19.25098 c 4.93164,6.18716 7.01452,8.36292 11.18433,12.73636 l -4.47373,-3.18407 m 29.07926,-17.5125 c 2.29842,3.51626 6.89164,6.93789 6.99979,15.8703 0.15344,12.67455 -6.94453,12.93158 0.82923,25.52286 l -4.47375,6.36819 4.47375,12.73633 -7.82902,-11.14431 -6.71062,12.73636 1.11844,-1.59205 m -52.56637,-58.90563 -39.14513,15.92045 m 117.43547,-15.92045 c -6.75928,13.18321 -7.40397,32.07281 -11.18433,52.53748 m 13.4212,-52.53748 3.3553,12.73634 15.65805,-1.59203 m -5.59216,-11.14431 v 1.59203 m 60.39538,-1.59203 c -0.759,1.63663 -1.79812,3.30665 -2.3796,5.33941 -5.64563,19.73543 14.24991,2.93552 15.34887,3.98523 5.05046,4.82428 -2.76927,10.93306 -5.73161,17.89675 -3.14938,7.40339 1.42259,15.19846 2.82823,18.94791 l 6.71061,-1.59208 -6.71061,3.1841 m -201.31797,-46.16929 2.2369,6.36817 m -44.737323,-4.77613 c 1.593229,3.90501 2.594272,10.85524 11.184318,14.32842 m 16.776505,-4.77615 8.94747,-4.77614 v 0 m 13.4212,-4.77613 2.23685,3.18409 m 117.43547,-3.18409 -2.23686,6.36817 m 20.1318,-6.36817 v 3.18409 m -167.76497,-1.59204 v 7.96022 m 148.75162,-7.96022 2.23685,3.18408 m 49.21105,-3.18408 -7.829,19.10453 c 4.01712,4.00509 5.59071,2.29819 5.59213,-3.18409 m 23.48712,-15.92044 v 1.59204 m -194.60738,0 3.35532,4.77615 m 50.32948,-4.77615 h 1.11844 m 54.80321,1.59204 -2.23688,11.14432 m 68.22444,-11.14432 h 5.59217 m -36.90831,1.59204 -5.59215,3.1841 M 77.074256,457.26245 c 0.332685,4.74941 1.086724,8.29764 2.236859,17.5125 l -15.65806,-4.77616 7.82904,11.14434 -5.592171,7.96019 4.473731,-9.55226 M 197.86505,457.26245 v 3.1841 m 2.23685,15.92043 11.18432,-19.10453 m -123.027623,1.59203 c 2.162777,3.40449 3.143776,5.7206 7.82903,6.36818 m 126.382953,-6.36818 c 1.67912,8.45774 -1.59102,14.92241 -10.0659,27.06477 2.51596,5.74359 4.84307,9.93677 0,19.10452 l 4.4737,11.14432 1.11844,-7.96023 m 50.32949,-49.35338 h 2.23687 M 63.653055,469.99879 c -0.189785,-8.39564 4.350508,-7.52971 7.82904,-7.9602 l 1.11843,-1.59204 h 1.11843 1.11843 m 171.120275,0 h 4.47371 m 26.8424,0 2.23687,3.18408 m 67.10598,0 -8.94744,12.73635 -3.3553,-4.77614 12.30274,-7.96021 m -275.134525,0 c 2.661113,2.40468 4.750879,5.29997 10.065902,3.18407 m 4.473729,-3.18407 c 1.176812,4.58932 1.817118,5.88786 5.592161,4.77612 m -22.368661,-3.18409 v 3.18409 m 133.093524,-3.18409 1.11843,1.59204 m 116.31707,-1.59204 c -3.42966,4.50885 -6.29223,9.83496 -13.42122,9.55229 m -72.69814,-7.96025 4.47374,6.36817 m 83.88247,-6.36817 4.47374,3.18409 m 21.25023,-3.18409 c 10.98253,16.48471 3.49317,18.69389 10.0659,36.61702 l 6.7106,-15.92043 -8.94747,11.14433 m -129.73823,-30.24887 2.23685,3.18409 m -146.514723,-1.59205 5.592159,1.59205 m 212.502284,-1.59205 h 1.11846 m -231.515674,1.59205 v 4.77614 m 161.054364,-4.77614 6.71059,9.55229 m 69.34285,-9.55229 1.11844,1.59203 m 1.11843,-1.59203 h 4.47375 m 20.13177,0 h 1.11846 m -270.660825,1.59203 -5.592171,7.96026 -3.35529,-6.36818 c 4.446891,1.37319 6.651963,2.89275 12.302772,9.55225 m 17.894919,-11.14433 -5.59217,1.59208 m 270.660825,-1.59208 -5.59217,9.55226 c 5.45095,7.72843 2.98435,12.18646 0,14.32843 M 211.28622,474.77495 v 9.55225 m -135.330395,-7.96022 4.473731,1.59203 m -26.842402,0 v 6.36819 l 4.47373,-1.59207 m 281.845146,-4.77612 4.47374,4.77612 -5.59217,7.96023 m -277.371406,-11.1443 2.236861,7.96023 m 15.65806,-7.96023 c -6.80131,6.89596 -11.300269,12.07794 -16.776492,17.5125 L 55.824026,484.3272 m 170.001844,-4.77614 1.11842,12.73638 m 128.61981,-12.73638 -5.59216,6.36819 m -291.911056,-3.18412 2.236872,3.18412 m 155.462214,-3.18412 7.82902,4.77616 M 53.587154,484.3272 c -8.269175,10.74297 -12.090736,16.16514 -12.30276,25.47272 l 1.11844,-1.59206 1.118419,-1.59204 h -4.473729 m 163.291226,-22.28862 6.71061,3.18409 c 0.0457,5.73554 -0.1283,9.12043 2.23686,15.92043 m 0,-19.10452 -2.23686,3.18409 m 24.60553,-1.59204 h 2.23686 m -3.3553,1.59204 3.3553,4.77615 M 50.231863,490.69536 c 4.511426,5.26406 6.544536,6.79584 11.184331,6.3682 m 289.674156,-6.3682 h 2.23688 m -126.38294,1.59208 h 2.23685 m -3.35527,1.59202 5.59217,14.3284 c -10.19919,13.70468 -5.2707,83.12612 -11.18435,109.85108 -7.02428,-12.21195 -11.21366,-22.83303 -10.06589,-36.61701 6.03005,-1.05518 8.63251,-8.01752 7.82902,-17.51251 l 2.23687,-3.18408 5.59218,1.59202 m 114.08016,-65.2738 c 7.88801,10.87535 11.62962,4.42108 14.53963,1.59206 m -152.10691,0 h 5.59218 m -149.870046,3.18406 c -8.923203,12.24293 -14.8553,14.58891 -25.723951,12.73634 l 6.710591,12.73637 5.592171,-9.55227 m 171.120275,-15.92044 2.23685,3.18409 m -7.82902,-1.59205 c 0.18383,7.82395 0.66414,11.65763 3.35528,17.5125 l 3.3553,-4.77613 m 7.82903,-11.14432 v 9.55225 m 135.33042,-9.55225 5.59216,9.55225 c -0.87314,1.69876 -1.96151,3.32545 -2.63006,5.29382 -4.9352,14.53053 16.55709,10.4323 2.63006,-5.29382 m -332.174627,-1.59205 5.592161,-6.36815 m 162.172816,0 1.11841,6.36815 m 31.31614,-6.36815 c -1.25588,5.89326 -2.04458,9.39816 -6.7106,9.55227 m -182.304595,-6.36817 -4.473733,3.18405 m 182.304618,-3.18405 -2.23689,3.18405 m -178.949296,-1.59202 -1.118432,1.59202 m -7.829029,4.77615 c -15.91588,25.3513 11.205448,24.04539 -1.11843,3.1841 m 5.59216,-1.59205 3.355299,4.77614 m 191.252078,-4.77614 -2.2369,11.14431 m -16.77646,-9.55226 v 7.96021 c 7.43916,3.0112 8.991,10.3597 12.30273,15.92045 m 145.39633,-23.88066 -6.7106,9.55226 m -336.648368,-4.77613 7.829021,11.14431 m 184.541457,-7.96023 3.35533,-3.18408 m 150.98846,1.59204 c 13.10604,19.11368 23.3246,68.05893 31.37808,94.22037 M 212.40468,528.90443 c -1.1248,6.00064 -2.00122,18.82825 8.94745,14.32841 m -195.725797,-12.73636 6.7106,9.55229 m 184.541447,-9.55229 c 0.40162,4.1059 0.3,6.2441 3.35531,14.3284 M 22.271033,541.6408 c -2.599089,-2.08018 -5.168838,1.8856 -5.592161,7.96021 l 5.592161,-7.96021 7.82903,1.59204 m -12.302762,-1.59204 3.355301,3.18408 M 209.04936,541.6408 c 2.03402,9.47007 4.19987,16.51708 8.94746,22.28862 m -195.725787,-15.92047 4.473739,1.59206 m 187.896758,-1.59206 c -6.57395,10.98877 -3.86912,20.87054 -2.23685,33.43298 m 7.82901,-33.43298 v 12.73639 M 16.678872,549.60101 c 0.2002,12.90407 -5.736611,15.05155 -6.7106002,27.06475 l -1.1184404,1.59206 c -0.9086091,-3.88012 -1.1527168,-1.54327 1.1184404,-4.77613 m 14.5396202,-22.28862 -4.473729,7.96022 m 367.964487,-1.59203 -3.35531,12.73635 6.7106,-6.36819 M 210.1678,560.74534 v 3.18408 h 4.47373 m -197.962658,1.59203 -5.59217,11.14431 m 194.607348,-9.55224 3.35531,6.36817 4.47372,-6.36817 m 6.71061,4.77613 5.59218,9.55228 m -17.89494,-3.18411 v 3.18411 m 6.7106,-3.18411 1.11844,1.59204 m 2.23685,0 -3.35529,27.06476 m 5.59216,-23.88067 4.47372,3.1841 m -12.30273,-1.59204 -2.23688,6.36817 m 2.23688,6.36818 h 3.35529 m -10.06592,3.18408 v 1.59206 m 5.59217,3.18409 -4.47373,14.3284 m 5.59219,-9.55227 h 2.23685 m 1.11844,3.18407 c -2.55523,11.8407 2.14915,41.64348 -2.23689,58.90563 m -2.23686,-57.31357 2.23686,3.18409 m 6.71061,0 v 15.92045 m -7.82901,-6.36818 c 0.32217,12.46679 -0.82754,24.95677 3.35529,36.61702 m -2.23689,-30.24884 5.59217,4.77613 m -5.59217,1.59206 h 4.47374 m -10.06589,4.77612 3.35529,1.59204 m 2.23686,6.36816 h 2.23689"
       id="path1"
       transform="matrix(1.6203125,0,0,0.98444895,2.8397389,3.0645958)" /></g></svg>
