<svg xmlns="http://www.w3.org/2000/svg" xml:space="preserve" viewBox="0 0 1200 1199.9998" width="100%" height="auto">
  <defs>
    <filter id="a" width="1.00324" height="1.00183" x="-.001682" y="-.000856" color-interpolation-filters="sRGB">
      <feGaussianBlur stdDeviation=".209986"/>
    </filter>
  </defs>
  <g fill="#0f0" fill-opacity="1" style="mix-blend-mode:normal">
    <path stroke="#4b94cc" stroke-width="3.02269" d="m665.46195 15.797835 19.94923 17.797195-13.15829 8.501697c12.05071 17.401618 15.12577 26.146773 3.57836 39.533295l6.4445-23.691559m-16.73678-31.031636 3.36658 8.983572 9.86873-6.376266m-9.84947 9.153509c-8.67162 8.192641-8.55608 15.583744-3.097 29.897905m22.93073-28.764182-6.54056 9.805367m-19.41025 59.965698c14.93578 2.23495 19.8298 9.89781 33.2424 28.73625l-29.7024 5.24258c-6.51827-27.2428-11.8432-39.1164-10.29233-54.723173l13.31231 13.716253 6.57907-4.250851c-7.1332-9.383278-14.40623-16.96132-10.11897-29.727942m26.48994 7.991855.0577 8.331783-9.92646-1.95548m-6.61781-1.303683-3.23175 10.457188m23.10402-3.768955-19.75674 9.975234m-19.92989-15.019922.0386 5.55452m36.4164 9.947345-6.42517 26.468778m3.25108-7.67989 3.32814 3.42906m6.63688 4.08092-3.23186 10.45714m3.36666 8.98357c.91166 51.09675-.76299 40.55782-24.78787 67.2267-8.46099 9.39204-15.13132 18.98405-18.89781 26.77809-3.9284 8.12958-4.06012 25.53915 5.55669 27.43404 32.17709 6.33974 14.75375-24.24449 5.67612-36.30794M4.657765 24.294592l-.09628-13.886241C8.34589 20.912827 9.643871 29.468166 24.664793 50.423545l23.161874 4.562804-19.737483 12.752504 23.123326-.9917 13.350881 19.270779c10.216709 1.915576 8.867529 27.855398-9.599157 45.257808-8.075679-19.70861-4.052203-28.13985 9.599157-45.257808M666.34773 143.55126l3.50137 28.4243 26.39359-5.89437m-19.776 7.198 19.85303 3.91098m-29.76019-3.08921 10.1575 35.28244M24.664793 50.423545l.09628 13.886291m26.412925-3.117157.03851 5.554474m-16.467141 7.849889 13.350883 19.27082M676.73628 212.16064c14.04114 15.32705 31.58406 47.55144-6.13619 68.12762l13.31243 13.7163-26.31664 17.00338c-13.92905-24.20747-37.51501-21.89426-29.72174 2.46528l-23.14267-1.78553M54.964234 131.27574c14.076376 12.20464 21.233014 6.34238 29.760213 3.08913-3.018673-15.72592 5.00524-19.84694 16.351643-24.51326l.11554 16.66345-3.328081-3.42905-3.328095-3.42907 3.289582-2.1255 3.328074 3.42915 3.3281 3.42907 3.2896-2.12541m-49.690319-18.10918 6.617693 1.30366m33.088341 6.51828.03851 5.55443m13.254625 5.38465 19.96851 20.57439c-1.40609 4.27097-1.0173 14.87764 6.71395 15.18995m-39.898572-35.59442-13.158358 8.50162m-6.63687-4.08085-19.737501 12.75248M988.0557 315.09132l9.92644 1.95547.0189 2.77722-13.13898 11.27891-4.50701-25.09455M134.35674 144.14232l3.4051 14.53811m956.15696 174.49208c-19.073 23.83497-10.8763 35.18533-39.2247 61.6093l-19.9684-20.57448c-3.0252 6.79236-8.7455 23.04044 19.9876 23.35171m-367.76192-141.7841 6.61774 1.30367M84.762959 139.91942l23.335211 29.55804c8.12314-5.24843 13.20768-8.53362 29.60618-19.12879m-13.21607.16989-19.73748 12.7525m39.59047-8.84153 20.04557 31.68344 3.23183-10.45717c8.61203 20.42628-12.39354 24.71459-19.62193 29.416 7.07091 8.18646 20.34966 26.69388 31.7254 33.50547 21.02194 12.58743 35.19245-7.67188 47.95622 21.01994-25.47503 7.18448-12.46028 29.97416-6.21332 57.01851 24.54028-19.73014 34.80562-24.12505 9.54139-53.58951m856.37197 79.95159 9.9844 10.28723-9.8689 6.37626M144.39904 162.76121l6.67548 9.63544 9.90723-.82175m535.99267 100.04162c.20913 32.1251 16.15696 67.15516-12.67679 77.93299l16.69815 25.47706-.19256-27.77241M137.81989 167.01215c-19.27323 6.2322-42.758234 18.31892-28.85857 30.75728 7.23318 6.47264 12.97199-2.49576 16.51776-8.39533 6.31671-10.50987 14.99625-16.77497 22.26734-20.40646m16.54414 3.25914 3.32811 3.42908m813.95407 157.57249-26.12401 44.77585c-42.13334-35.6168-63.08886 7.55181-52.63327 34.00674 23.57365-8.53546 39.62601 14.69563 82.93266 46.84546 25.20888-16.06165 49.41308-23.80466 49.22818-48.54482-12.7683 3.75942-25.7153 7.83314-32.8959 21.25422l3.3281 3.42903 3.3281 3.42911 3.3281 3.42904M144.45681 171.09305l9.96505 7.51001m502.90444 93.52339.15405 22.21799m6.46349-20.91436 6.65625 6.85818m13.21614-.16998 9.92648 1.95547m268.15037 72.23883-19.85302-3.91097 6.48289-18.1371 19.93003 15.01999M108.11743 172.2547l9.98424 10.28718m949.75103 203.73819-16.6789-22.69985 23.1426 1.78554M177.64144 191.49754l16.60195 11.59088-3.28958 2.12546-6.6562-6.85815m863.56729 164.57263-13.1582 8.50172M171.06229 195.74842l-3.28957 2.12538m873.51308 169.30546 19.9686 20.57442M167.77272 197.87385l-13.11979 14.05618m787.38713 138.47162-9.86876 6.37626M128.10517 195.60638l16.56346 6.03641m52.92213 7.65199c27.97459 28.05506 53.98132 47.5373 89.66589 64.81257l-9.92645-1.95548m-132.66157-70.50908c-16.17745 29.16228 7.41467 44.13718 26.68251 35.76436m486.24474 73.60079-9.73405 25.81697c10.09668-3.11442 20.11213-12.51099 49.4592-15.21784m209.41021 51.59247c12.49059 11.86399 33.518 6.93765 48.77526 13.1364l-.0577-8.33174M114.96621 206.88531l13.3316 16.49356-6.6754-9.63539m479.76175 91.73787c-14.88414 19.85221-2.7552 25.41725 10.09981 26.95063l-16.64037-17.14531m403.67774 79.52304c5.75056-6.7127 7.23126-6.63239 16.48636-5.07261-8.8506 7.93486-16.15572 13.8679-6.4251 26.4688m6.4251-26.4688 6.6177 1.30368M244.06853 240.63842l-3.28954 2.12544m387.11447 73.48663 19.96844 20.57442M164.67569 227.7718l-23.02703 14.87793m85.89492-2.49318-39.57125 11.61877m-59.67459-28.39645 9.9843 10.28723m6.55989-7.02809 9.92654 1.95549m514.98129-39.5137c11.12941 11.46708-41.05431 150.05643-18.40575 173.39221l26.90131-33.27931m293.9979 88.17485c-9.69197-20.51721 3.49895-22.31547 23.06552-9.32348-23.8591 15.60738-14.79298 24.64892 3.46287 22.86988l-13.31234-13.71629m52.78723-11.78883-6.579 4.25091M250.78242 255.82827l-13.13905 11.2789m661.84405 141.47465-23.0271 14.87795c-34.11051-7.79469-44.46184-25.04216-36.64757-43.27429l19.94939 17.79719-10.04216-18.61906c22.03724-1.85283 31.40024 5.44076 43.05341 14.0283m43.01491 8.47377 13.15829-8.50166 9.9843 10.28729M181.31616 244.91713l-26.37438 8.67166m456.54212 78.84319c4.57132 4.77333 9.23912 9.37973 13.58683 14.36596 38.50007 44.15366-44.85325 26.07984-3.02483 79.23878 18.8524.86429 27.94999 7.82731 43.09181 19.58274l26.43222-.33986c-.0296-4.2742-.72834-3.44725-6.61759-1.30363m-33.76238-103.72205-6.42513 26.46891m198.33758 11.33713 6.61757 1.30365m-661.7284-124.81112-29.68324 8.01981m439.97875 72.80689-9.77247 20.26255-13.29315-10.9391-3.28954 2.12548 23.31597 26.78077c-5.99853-.14247-23.79593-10.25349-34.72057-4.42606-10.54109 5.62301 28.58417 52.87466 41.68477 55.72021l-16.64037-17.1454 13.15825-8.50167M201.24617 259.93705l6.6562 6.85818m79.3928 12.86668 33.26162 31.51345 19.75672-9.97521c4.23069 20.50777-6.07823 18.31765-6.25174 51.46403 14.43072-8.71623 22.98462-13.46284 39.57125-11.61876-8.90265 6.5795-15.4199 12.19491-32.85737 26.80872l16.60191 11.59081-19.75667 9.9753m671.00021 32.34022 13.3124 13.7163M310.51469 292.55639c10.31478.14988 11.38628 1.31628 16.58272 8.81364M578.49187 339.8l-3.28966 2.12542m-274.63317-54.10174c-24.92619 24.54111-29.54698 24.0481-45.99637 38.08767l13.17758-5.72445m578.93061 97.40643-3.15482 21.56616a24234220.96957 24234220.96957 0 0 0-46.59332-48.00705l33.04983.96376m29.77959 5.86647 16.64041 17.14534m-589.01111-121.5799 6.61769 1.30365m-115.82851-25.5912c3.49451 7.38734 4.79663 10.27341 16.60193 11.59085l3.40515 14.5381-13.27389-8.16184m23.04632-12.10065-9.8687 6.37623m499.57621 90.09433c-13.7417 8.40175-28.16275 17.55057-49.53623 4.10877m66.08054-.84961c2.78497 11.15418 9.75867 10.75028 16.62111 14.36815-.68842 9.33149 4.41507 16.41675 16.7175 28.2544l-9.81096 14.70792-13.3124-13.71625 13.27389 8.16179m-16.79456-39.36335 6.54071-9.80535 33.30018 37.06804-9.88805 3.59902m89.76213 78.69877 6.69481 12.41266c-32.06888-5.68469-37.23408-24.67595-33.31948-39.84529 8.09708 7.79632 20.3734 16.34694 46.53556 39.67534l39.53271-17.17331c-23.53866-27.70983-42.59546-38.07789-56.5198-49.9625-21.35564 2.96158-24.67928 1.26765-48.83176-10.95835-30.36339-15.36991-9.63917-31.47379 2.21918-39.82599m109.19154 21.51033c10.84842 13.24599 16.59344 28.28052 32.66567 43.6569 12.71138 12.16099 28.21473 10.63817 27.08596-4.15151M287.39144 293.54811l-29.70248 5.24251-3.32811-3.42899-3.3281-3.42914m449.96303 83.09413-32.91502 18.477m304.23948 34.97292.0963 13.88626m-383.9019-86.72106 26.6055 24.65536m99.1496 2.89135c-15.25559 10.11247-21.8729 15.31355-29.58696 21.90611l39.82147 24.48534 13.35091 19.27082-35.97358 53.92938 3.32811 3.42908c17.86117-11.81652 23.03519-15.87993 32.87653-24.03141l13.37011 22.048m207.66714-72.80204 6.61764 1.30366M224.58139 289.49517l19.85296 3.91097m489.70759 96.47058 23.2966 24.00353m234.79254 26.83908.0193 2.77716M320.55679 311.17536c5.79358 13.22253 21.34434 15.75929 36.49342 21.05639m46.65113 56.33881-26.75957-46.87333c26.96988-13.58515 45.19613 2.88613 72.89066 28.22647-22.91262 10.86251-33.57017 13.79735-49.13932 26.28085-22.08115 17.70465-20.68591 11.26108-69.57436 8.57552 18.77908 11.34284 35.05835 23.8275 46.32367 9.12559m343.48337-23.85909 3.32811 3.4291m228.40588 58.86244-.11553-16.66357m-532.60688-88.28077c23.09924-5.9494 32.67826 2.45587 46.36219 14.68011 21.47017-9.21553 62.8362 16.55927 62.7716-1.50158l-16.46717 7.84989m363.85633 55.03758 20.16108 48.34694-9.92649-1.95547m42.726-33.18497 13.21609-.16989M228.06349 315.1423l3.40509 14.538c15.69804-16.17161 21.47132-18.60903 39.49421-22.72779m423.66569 102.87476 26.33582-14.22612M539.01696 365.3051l13.21606-.16989m172.05939 33.89505-26.31667 17.00335M201.51576 298.81865l13.25462 5.3846m66.1574 10.25928 36.39718 7.1701m178.67706 35.19874-26.31665 17.00337c8.56672 4.7505 18.36001 9.59994 33.2118 21.31962 9.60541 7.57976 20.53712 19.0016 28.18537 14.47642 9.30323-5.5043-7.03323-18.85897-18.40153-30.09953 7.84184 16.69911 14.05642 22.19391 23.35444 32.33531m231.31033 1.19199 6.59844-1.47361m-479.76179-91.73782-6.44438 23.69155-19.94929-17.79721m39.62895-3.28705c.0156 8.61008-26.17075 50.89885-2.86589 63.22492l-9.96501-7.51002m624.96541 64.87334c-.74249 9.66005-2.33293 17.19861 10.17679 38.05973l3.28956-2.12547-6.71391-15.18986 10.02282 15.84171M578.76145 378.68162l-13.15835 8.50167m112.42334 11.05316 6.65632 6.8582m301.06536 53.76183-6.57915 4.25087M393.54376 353.28823l23.10402-3.76897m542.64898 106.89983 6.65615 6.85813M466.29956 362.07397l-6.54066 9.8053m317.57116 51.46655c-9.06857 9.84155-29.77675 41.49988-55.76883 58.35005M221.46504 316.61586l3.36665 8.98361m310.9727 52.94008 23.20034 10.1173 3.28963-2.12539m6.59835-1.47363 23.27739 21.22628m-79.50834-29.53016.0193 2.77721m383.8056 72.83486 16.56342 6.03636M257.90076 329.34039c-10.79494 19.86679 5.94332 31.41205 30.02985 41.97067m168.50023-2.86097c-3.0578 26.46693-13.31511 33.75878-42.68753 38.73948l-9.9842-10.28722m486.12918 56.93725-13.15839 8.50164m36.32013-3.93886.0386 5.55447m-453.32964-92.07767 9.92647 1.95547m23.20043 10.11727 16.50565-2.29531m221.69194 43.67249-6.57916 4.2508M244.704 332.28755l6.61768 1.30366m274.63339 54.10176 3.328 3.42907m23.1426 1.78554c7.18035 14.86428 14.81719 15.8023 23.25804 18.44908m248.06642 35.00084c11.96163 18.14754 20.14578 25.48318 43.32295 52.90977m-33.39643-50.95429 36.60902 37.71985 9.86872-6.37621 13.31231 13.7163m19.62193-29.41607-3.11628 27.12069-3.30883-.65182-3.28955 2.12538m49.42069-20.77232-6.57912 4.25085M231.48788 332.4575l13.2931 10.93907m13.1776-5.72445 16.56346 6.0364m59.53978 8.95566-9.86876 6.37627 16.58264 8.81369m142.18369 14.14231c15.48648 16.96455 18.44581 28.83802 46.51619 36.89805m-238.4094-71.92685 9.96505 7.50999m291.13892 51.80638c15.46566 15.05345 29.33806 26.85381 49.72877 23.66367m178.60006 24.08975-6.5021 15.35981M310.95764 356.43311l13.23542 2.60734m221.7112 46.44977 3.30879.65183m0 0c7.34996 7.04098 14.21226 19.0237 36.51278 23.83355m344.00323 51.12669-6.57916 4.25081m-102.59316-22.98387 26.62483 27.43258m-225.13562-63.76509-6.55991 7.02812m122.36915 15.78588 16.56337 6.03642m125.71654 21.9922.0193 2.77728m-486.39873-95.81876-29.60626 19.12875m238.06279 21.93643 9.98427 10.28717m-251.50988-55.09342-3.13563 24.34339m6.46367-20.91429 9.92658 1.9555m82.72081 16.29569c2.79382 14.20332 18.87737 27.6398 36.4661 39.61315 16.83842 11.46257 31.54869 55.73793-12.84209 31.60359-11.1983 13.23808-25.57431 8.04963-49.63251-9.77742 17.83164-16.75687 25.30472-23.92096 36.12754-31.71138m204.95523 12.6409 13.31243 13.71631c-14.05246-3.66083-15.14564-6.94694-19.91091-12.24277m26.45146 2.43743 10.00354 13.06446-13.23536-2.60731m72.71741 3.23125c13.22073 13.48518 23.41109 19.96151 43.09186 19.58274M681.68204 448.8786l3.32817 3.42916m76.08391 12.21473-26.35516 11.4489m-125.83215-38.6557c.3197 10.27268 2.36516 18.41074 16.73675 31.03159l3.25116-7.67984m241.41013 28.1427 6.65614 6.8581M522.8964 423.14536l-23.04636 12.10076m75.98764-1.67152c-13.76808 14.02674-18.74004 21.72483-16.27451 35.62237l26.31668-17.00329-13.33171-16.49363m16.52493.48186-3.21248 13.23445m89.24222 3.71309-24.96888-42.61819m-332.34681-22.22471 9.96502 7.50995 3.2896-2.12541-3.32812-3.42905-6.57913 4.2508 6.61765 1.30366m373.85985 68.10214 6.65622 6.85813m69.44699 8.13392-26.31664 17.00335m-450.13628-108.0894 23.21958 12.89459m9.86877-6.3763 3.32805 3.42907m79.39276 12.86663c7.30336 11.41629 13.2874 15.11998 26.58627 21.87811-5.14358 5.01051-11.24539 7.44858-9.75323 23.03974m158.53523-10.37095 9.92645 1.95547m181.98605 35.85058c5.11843 17.06509 13.49934 24.27282 23.33504 29.558m-13.40864-27.60254c6.88339 6.87818 13.98537 23.41775 43.14964 27.91452m-188.71913-53.81771 3.30887.65183m-86.01049-14.17031 9.98423 10.28724m-158.86254-36.84219c-7.86031 5.0852-12.77104 16.09585-42.87998 10.96695m337.36629 47.04576-9.77245 20.26247m-374.03317-93.09736 3.30887.65183m321.18807 96.55434 13.29304 10.93905c.8695-14.20128-5.97638-23.77821-16.77523-36.58609 24.66692 2.68411 34.11665 24.70567 53.09543 32.64719m-3.44367-20.09261c-3.16658-6.70874-2.74274-5.48441 3.28963-2.12533m145.55029 23.12592 9.9072-.82178m-413.56582-75.92402 9.92656 1.95549m29.77948 5.86646c7.32754 13.98568 15.79736 25.05438 6.86798 37.40789m185.0829 5.95259 16.50564-2.29533m52.9414 10.42926-9.77246 20.26253 9.86875-6.37627m36.30087-6.71615c6.21276 9.47872 10.92811 16.10936 26.66322 32.98711l16.44793-10.62708m-228.3481-50.53065 9.94573 4.73273 9.86872-6.37624m13.23542 2.60733c-3.15869 7.4614-1.40265 3.94594-6.59848 1.47351m23.14256 1.78561 3.30882.65184m-112.48108-19.38498c13.92674 18.50632 43.95444 46.39429 49.72884 23.66372m-13.33171-16.49363 19.89158 9.46553m72.75578 8.78567-6.57903 4.25091m95.97537 21.68025 23.12336-.9917m-383.82482-75.61206 33.26162 31.51349m198.35677 14.11447.0386 5.5545m56.21171 5.52658 3.32816 3.4291m3.30874.6518 6.59848-1.47358m29.77946 5.86644 6.65618 6.85817m46.28519 3.57109-16.29381 32.84509m-274.8645-87.42872c-8.80875 7.121-18.54569 12.1356-9.69539 31.37148m194.99016 5.13089-3.27031 4.90265m132.33411 23.29591 3.32811 3.42904m-410.29551-80.82669 3.32805 3.42909m158.80484 28.51049.0193 2.77728m251.45216 46.76166 6.65621 6.85821m-158.84332-34.06503-9.88805 3.59898m115.82854 25.59128-19.83382-1.13377c8.78871 16.18053 5.09724 21.13187-3.09697 29.89792-8.53054-16.83038-10.2257-24.09188-3.57842-39.53327m-304.4128-59.96819-6.5792 4.25082m56.21171 5.5266.077 11.10896m72.71733 3.23126c-9.38176 10.75294-17.29805 7.74716-26.39358 5.89435m52.86425-.67972.0385 5.55448m33.06907 3.741 13.25461 5.38459-19.85299-3.91097 3.28953-2.12545 6.65623 6.85816-6.61771-1.30367m172.00169 25.56337c5.28873 12.11721 14.00629 14.19772 26.52842 13.54632m-367.31921-77.90743 6.73326 17.96717m142.16432 11.36511 16.56347 6.03642m79.39286 12.86661-13.19689 2.94718m62.82935 6.83025 6.65614 6.85813m-138.99034-30.15401-13.11979 14.05617c10.60455 6.40764 17.01405 10.49712 19.98779 23.35173l-13.27376-8.16181-3.28962 2.1254 16.48636-5.07262m19.67981-21.08422 6.6561 6.85812m-132.3726-28.85038c14.37348 24.94996 2.30075 38.18259 13.65897 63.7068l-3.3859-11.76087m69.13896-36.30206 3.38588 11.76084m36.32013-3.9389-9.88804 3.59905m-142.29919-30.8059 6.65628 6.85819m76.06467 9.43753c11.81914 22.9598-1.0858 27.13773 6.96428 51.29413 6.69922-5.5986 14.67645-8.73103 16.33227-27.29062m158.68938 11.84705 3.40512 14.53805 3.23176-10.45713m36.37795 4.39283c.82753 12.91971 2.27628 18.20309 6.81032 29.07615l16.37078-21.73607m-344.06106-59.45842 13.19676-2.94719m155.51529 30.63594-9.90723.82176m43.01493 8.47378c-3.18152 7.15423-4.10154 8.29558-13.15841 8.50166m56.17318-.0279c-14.06738 5.74305-22.36971 6.74405-36.26243 12.27063l19.83388 1.13376m29.66398-10.79707c-1.69747 20.74091 7.1275 30.56133 16.81368 42.14058l6.4829-18.13705m-62.9064-17.93922 13.1968-2.9472m-201.85816-42.53878-9.84944 9.15355 9.90721-.82178m102.59311 22.98393 3.2511-7.67993 9.98423 10.28724m33.03061-1.81349.0193 2.77725m-165.44181-32.59141 13.27398 8.16185m215.03565 36.81429c10.68056 22.02278 20.21194 32.58428 33.28096 34.29075m-221.74971-52.00421-.077-11.10899m112.51965 24.93945 6.59848-1.47362m155.51525 30.63592c-2.70044 11.41418-1.981 32.79939-3.36181 43.53412-1.81265 14.09211-12.43714 22.39903-29.69065 28.1123-21.53946 7.13249-31.56621-8.86384-52.57301-30.27179l-56.11538 8.35971c16.15062 6.42135 28.41872 14.58804 37.64844 12.83867m-200.3012-119.76391 19.92996 15.01992-.0385-5.55452m185.25635 30.94796 6.69461 12.41262 9.86875-6.37631m-122.42689-24.11764 13.29312 10.9391-13.15833 8.50166 6.65624 6.85817 9.81096-14.70801m89.2808 9.2676-13.11986 14.05618 19.81447-1.64354m69.40856 2.5794 7.022 59.6259m-192.29761-93.35105 9.96514 7.51003m122.38836 18.56312.0386 5.55454m-29.7026 5.24249c-16.97338-.90881-20.26847-7.31254-19.94915-17.7972l13.29305 10.93903m-92.6859-23.80564-19.77598 7.198m-59.61684-20.06467-29.87804 1.3002m129.14311 18.25465 16.58271 8.81366-6.46367 20.91433 9.77251-20.2625m82.97119 52.3999 19.73744-12.75247-16.71743-28.25442m0 0 16.67892 22.69987m-139.0673-41.26299 9.96501 7.50999m13.19682-2.94719-9.8687 6.37627m92.6088 12.69667 6.73328 17.96718c-2.37636-6.34106-4.50034-2.67167 3.25096-7.67991m-135.70079-32.27948c19.66022 29.34554 32.66199 29.10769 46.43914 25.78907m-26.58615-21.8781-9.8688 6.37621m49.57481 1.44572 3.46285 22.86983-13.29312-10.93907m-98.50701-10.83006c.55448 69.70746 44.72845 40.94878 65.88083 70.96573-25.22547 31.13296 75.83124 46.06178 0 0m16.00505-74.5038.0386 5.55446m79.37348 10.0894 16.60193 11.59088m-23.20031-10.11723-19.7568 9.9752m52.88362 2.09752 9.98428 10.28722m-112.55817-30.49391-16.46711 7.84989m19.81443-1.64355 3.32814 3.42907m145.80054 59.23019c-4.56608-7.74023-14.3011-22.10754 9.75325-23.03974m-165.40331-27.03697c23.24124 17.28665 45.4672 48.81275 60.3953 58.16721m-99.94731-43.77115c33.76367-.0676 40.21617 28.84029 39.91788 38.37165m-53.19176-46.53346-9.9073.82177m102.55469 17.42942 6.61764 1.30366m-62.84858-9.60746-16.44783 10.62706m-10.00357-13.06448-19.81458 1.64357m211.76554 41.71703c2.5155 10.03136 2.11463 16.44735-9.71471 28.59419 6.80326 12.51226 7.68341 19.53014-9.77248 20.26254-3.69834-19.95341-10.70597-26.03292-16.75595-33.80888l6.57921-4.25086 16.64037 17.14536m-145.78125-56.45292-13.17766 5.72445m-33.12678-12.0728.0386 5.55453m175.38754 37.32415 13.17751-5.72448m29.85651 16.97546-9.77244 20.26251m-163.2473-42.00597-31.95469 6.32538M535.0566 747.26164l-9.83015 11.9308c35.74088 14.94088 40.96034 5.38356 44.98343-16.16126 2.60632-13.95751 11.01726-14.39166 24.24364-21.38883 14.29342-7.56172 32.07944-17.47854 52.2082-34.08392 13.72237-11.32042 21.08141-17.14104 44.71298-19.86045m-77.65702-13.10514 36.55124 29.38807m-92.72436-29.36012c-13.59181 6.0457-22.66918 11.26684-42.89935 8.18966-15.64303 20.12851-39.78304 29.76957-65.8108 39.73124 6.25731 7.05461 18.9542 18.72839 23.43135 43.44423l-3.32805-3.42909m257.35741-54.69281-59.28949 27.14853c14.93605 15.38923 27.30439 28.13279 59.90569 61.72341 10.75543-11.12668 14.36878-16.1113 16.35158-24.5134m-106.60174-86.8965c-15.51194 10.02236-63.6029 18.34324-62.09112 61.98509m-56.61599-63.84886c23.26604 4.075 28.78312 18.9952 36.55122 29.38812l9.81101-14.70802-16.5442-3.25914m-52.8451 3.45696c-1.46876-6.14063-4.06492-11.94924 9.8495-9.15345m36.35868 1.61556c-7.01657 4.53348-2.3992 4.39455-9.90729.82178m122.40765 21.34038c-7.65556 17.35672-45.64321 45.2273-78.93069 53.78738M435.27168 652.7211l-3.23179 10.45719 29.95276 30.86168m-3.38584-11.76084 19.67975-21.08426 9.98422 10.28727m23.14261 1.78552 16.50574-2.29536m211.76537 41.71698 3.36655 8.98362-3.36655-8.98362m9.96501 7.51002 9.90722-.82177c-5.62482 9.90455-7.78962 15.14483.25033 36.10418l16.44792-10.62707-23.20038-10.11728m6.50213-15.35983c15.21781 9.72336 12.58648 14.50625 10.06131 21.39621m-327.65172-75.63998 29.74098.31194m49.63262 9.77745c23.69774 21.16023 36.15141 24.9131 56.36562 27.74455m165.34551 18.7052 6.65622 6.85809m26.43218-.33979-13.15829 8.50166m-287.92647-65.04082 16.60202 11.59089m16.48637-5.0726 29.9143 25.30718 6.55987-7.02809m241.46802 36.4745 23.25803 18.449-16.37086 21.7361 32.91506-18.47696 16.65965 19.92261c44.10682-15.24939 32.43452 27.90227.15031 26.91095-23.42856-.71945-42.2315 11.53485-49.41625 16.07952l16.65971 19.92262 9.84944-9.15353c48.12594 52.23136 50.44929 7.82746 86.01048 14.17033l-19.64123 26.63875-19.89151-9.46548M465.59048 736.35058c-4.50918-5.21811-14.94145-17.79833-31.23526-33.89931-13.62419-13.46301-40.58735-35.0626-5.60484-37.14759 3.0292 18.74417 11.09935 26.7606 20.0841 37.23804m9.6954-31.37158-6.57913 4.25087m201.80034 34.20698c9.97582 12.26725 42.99674 51.16914 69.89192 75.93254 17.53222 16.14263 38.11222 5.11041 19.75468-13.89716m-56.13422-68.54634c9.13267 9.40974 15.0494 37.24456 46.227 69.36809M402.31815 665.64357l-13.19692 2.94716 16.52503.48193m13.1968-2.9472 6.69469 12.41267m234.85033 35.1708 6.78826 25.92391m132.20197 4.23011.0577 8.33177m-456.59996-87.17507 26.66323 32.98713c-63.02911-2.72509-45.29041-35.82637 19.60263-32.19329m264.70688 52.14629c-7.81639 12.4207-45.58082 30.38777-35.83876 73.37005-11.8247-1.42131-26.4235-2.18758-39.87939-32.81711m302.98545 43.93094c-3.52113-13.56496-141.65481-60.1827-131.31102-65.58087m62.88714 15.16198 6.61763 1.30366m-440.05578-83.9159 29.95286 30.8617c-62.72299 25.83908-17.44274 22.93393-89.20381 1.84134l29.93359 28.08446m42.55273-58.18018.0385 5.55447m347.38916 62.8875 6.65619 6.85813m29.74099.31198 13.31233 13.71626m-416.97091-90.46207 26.64393 30.20985m95.78293-6.09222c14.73046 10.9985 22.99883 14.79756 39.74444 13.37645m33.04987.96377 31.95153-4.04505m-240.38887-34.2429-6.57904 4.25085m301.0654 53.76188c38.18659 45.92198-15.66214 91.55704-55.4414 105.56342m-136.43256-137.815c6.58596 5.85336 12.92616 16.84946 36.47418 18.27914l10.06138 21.3962 9.75319-23.03972m241.50641 42.02893c5.99796 8.77035 24.65443 34.026 33.18464 20.40457m-473.00941-70.99347c-5.97571-7.15991-29.51574-28.90148-.23107-33.32699m191.91244 37.80604-9.86877 6.37627m26.41303-3.11712c11.5393 9.39652 19.51817 15.19523 36.49342 21.05636m277.84577 40.86729-16.40932 16.18164m-380.63152-91.62373-6.57919 4.25083M273.60087 687.4355l-13.29308-10.93906-19.75673 9.97524c27.18472 25.60217 30.59163 14.19855 56.57755 58.29434 39.55461-32.00006-53.4552-44.00071-.4814-69.43122m112.51965 24.93942 19.83371 1.1337m122.46541 29.67213-13.08128 19.61073m-168.88541-52.68401 19.87221 6.68819m99.24588 16.77763 13.27381 8.16177m-165.46091-35.36862-6.57925 4.25084m449.96308 83.09413-16.48636 5.07257c8.79323 9.39747 20.32179 35.67971 36.60893 37.71983m3.03926-38.22961 23.16187 4.56281m66.3693 40.80907c4.06297-11.28914 22.74863-36.58696 56.15387-2.8052l-42.86083 13.74425M488.65589 727.02706l-13.19685 2.94717m89.30009 12.04488c-6.69413 6.09445-10.5862 10.24753-26.27815 22.55788m393.55876 49.79505.077 11.10899M518.45466 735.6708l6.69467 12.41266c11.04579-.91625 6.71624 4.29268 3.27041-4.90272M253.7671 686.30173l29.8758 19.75272m105.78634 6.97222 23.33529 29.55809c-6.37445-3.03333-3.88253.54328-6.65619-6.85814m49.49778-9.66336-19.73753 12.75258m59.44347-4.93064c7.36833 13.73996 13.94401 19.8371 29.9143 25.30724m201.70413 20.32072-3.28959 2.12543m132.33413 23.29587c1.27156 18.98923-12.12532 24.21572-22.91151 31.54143M237.24216 685.81985l3.30885.65182m76.10322 14.99206-23.10408 3.76895m172.00167 25.56333 3.32802 3.42907m82.70164 13.51845-6.57918 4.25089m294.44779 52.45815-32.87648 24.03146m-311.22305-89.04432-19.77602 7.19804m-92.70512-26.58291c.78994 7.23556-2.82206 13.92653-3.05852 35.45241-27.18355-5.51074-45.56482-9.57554-69.48555-13.6884m555.6339 73.4029 23.18116 7.34001m62.8486 9.60753 3.38585 11.76081 33.08834 6.51829-9.92644-1.95547M234.14515 715.71775l-.15405-22.21797 23.2774 21.22631-26.41291 3.11706 16.65969 19.92266 6.46363-20.91435m56.11537-8.35964 29.87583 19.75272m413.50807 67.59227 29.89506 22.52997M270.40757 703.44715l.0385 5.55452m364.99471 49.4598-70.43135 19.66185c14.66487 13.66742 20.85331 18.67685 33.2424 28.73629l-13.27388-8.16178m85.8179-13.60219c6.84233 7.47346 20.47253 16.11931 20.90053 31.76452.60724 22.19955-20.38867 18.51124 2.76193 45.0067l-13.15837 8.50167 13.38944 24.82528-23.29659-24.00351-19.69902 18.30702 3.28962-2.12544M498.75563 753.9778l-115.6166 4.95851m347.23512 40.66948c-19.83757 19.05816-21.51641 51.63446-32.45288 85.13093m39.07054-83.82727 10.08057 24.17344 46.30439 6.34836m-16.67894-22.69986.0193 2.77721m178.6578 32.4215c-2.22568 2.41269-5.27967 4.72038-6.97537 7.9275-16.46362 31.13729 42.19324 13.42582 45.4572 15.89747 14.99984 11.35916-8.06056 17.45826-16.74027 27.87967-9.22775 11.07936 4.39249 27.3421 8.59635 34.702l19.83376 1.1337-19.8145 1.64353M389.58336 735.24469l6.6948 12.41265m-132.41119-34.40486c4.76074 7.74066 7.80632 20.44842 33.26163 31.51354m49.57475 1.44565 26.41291-3.11713m39.64827-.50978 6.65613 6.85811m347.38913 62.88749-6.54063 9.80531m59.48202.62395.0386 5.55446m-496.3445-100.55142.0963 13.88622m439.97883 72.80694 6.65613 6.85809m145.55021 23.12599-22.93068 28.76417c11.93292 9.32791 16.56766 7.2674 16.50555-2.29536m69.29305-14.08406.0193 2.7772m-575.7373-113.41812 9.9843 10.28728m148.83977 21.00047 3.30887.65184m162.15211 34.71682-6.48291 18.1371m201.70421 20.32078 16.54418 3.25915m-109.17233-18.73311-16.50564 2.2954m-582.37429-117.499c1.04166 8.47902 3.31538 15.10819 6.82946 31.85338l-46.38144-17.45737 23.29665 24.0036-16.44793 10.62704 13.11983-14.05617m376.93763 35.42696.0385 5.55453m6.81019 29.0761 32.85724-26.8087m-363.95256-68.92386c6.43965 7.19944 9.36989 11.81152 23.23884 15.67178m373.82136 62.54763c5.06988 15.7327-4.52645 25.10421-29.45216 41.34676 7.51281 11.48576 14.44818 20.15682.23107 33.32696l13.37002 22.04805 3.21258-13.23441m148.30063-56.76243 6.61768 1.30366m-611.99964-101.1475c-.66306-14.75641 12.7797-10.59973 23.06557-9.3234l3.28958-2.1254 3.30883.65183 3.30881.65181m506.25178 99.72973 13.23528 2.60731m79.41203 15.64388 6.65622 6.85813m198.53001 39.10969-26.3167 17.00335-9.98408-10.28724 36.30078-6.71611M214.40772 728.47031c7.90187 5.74577 14.11935 12.0144 29.81803 11.42093m13.19682-2.94717c3.53704 8.69172 5.4471 11.33015 16.60193 11.59089m-66.21521-18.59108.0386 5.55451m393.71281 72.01305 3.32806 3.42907M948.9884 875.9534c-10.09194 5.86667-18.4963 13.4895-39.59054 8.84157m-215.17052-56.25509 13.31239 13.71627m248.08556 37.77815 13.27387 8.16181m62.82914 6.83024c32.6909 35.1575 10.5607 34.64649 30.2225 69.74319l19.6605-23.86153-26.3359 14.22617M671.08479 826.75435l6.65615 6.85812m-433.4766-88.16674 16.56342 6.03639m628.65935 121.07012 3.30892.65183M207.8864 741.05287l.0577 8.33175m476.41444 85.53151 19.96854 20.57452m205.0322 23.7498 3.3281 3.42904m3.28958-2.12539 13.23537 2.60732m59.559 11.73291 3.3089.65183M191.36141 740.57094l-16.4479 10.62719-10.00352-13.06452c13.17255 4.98718 19.71451 8.9231 36.51274 23.83362m52.80653-9.01155-16.52492-.48184m800.71886 154.96514-16.4288 13.40434c16.2199 16.65875 8.9765 22.99803.1733 24.99526M628.14684 829.38957l.11553 16.66348M227.79712 753.2956l13.25457 5.38453m-79.41206-15.64388.077 11.10903 13.2161-.16999m833.76857 155.92898 13.2931 10.93904-16.4478 10.62712M184.82073 750.37631l6.71394 15.18989m46.2274-4.76065c-20.03798 8.06586-33.28528 14.48356-49.42071 20.77233l-20.00705-26.12896m502.88516 90.74614 3.46287 22.86982m380.36196 52.74227-16.4671 7.84986M174.93273 753.97529l6.65617 6.85818m459.88958 85.04961 23.21957 12.89456M161.71666 754.14528c-24.33407 13.92131-35.5744 21.15278-36.08906 37.26588l3.28957-2.12546 3.28955-2.12541-13.23532-2.60731m482.82029 56.28545 19.89155 9.46546c.20461 10.03204-.26929 15.83539 6.8102 29.07611m-.23108-33.32695-6.57912 4.25084m72.77509 11.56297 6.61763 1.30365m-9.90723.82176 9.98426 10.28724M151.8672 763.29875c13.41053 11.81219 19.44391 15.66921 33.16537 17.6273m856.91103 157.71449 6.6179 1.30368m-373.87913-70.87933 6.61759 1.30364m-9.90715.82177 16.71752 28.25439c-30.00811 17.96306-14.58775 141.93781-31.75975 185.11171-20.92873-25.3968-33.4513-46.3665-30.2224-69.7429 17.82687 1.6734 25.44195-8.9553 22.95-25.98711l6.57919-4.25072 16.56345 6.03629m336.71158-47.38067c23.4678 23.56871 34.4591 14.4902 43.0341 11.25103M601.965 865.83369l16.54419 3.25915m-443.34535-81.79053c-26.25086 16.15673-43.77232 16.79192-75.949168 7.2259l20.007058 26.12897 16.42864-13.40434m506.05921 71.95725 6.65612 6.85813m-23.18106-7.34006c.63848 13.75568 2.10581 20.72329 10.13829 32.50523l9.86871-6.37624m23.02704-14.87797.11553 16.66348m400.25349 62.20773 16.6597 19.92262c-2.5627 2.45457-5.7628 4.65803-7.717 7.70208-14.4247 22.47161 49.1097 27.84821 7.717-7.70208M102.50425 792.40277l16.46715-7.84979m479.7811 94.5151 3.3858 11.76075m92.57036 7.14225c-3.64415 9.54861-5.93513 15.20307-19.73745 12.75253M135.55408 793.36664l-13.19683 2.94708m539.30166 100.69363-6.57922 4.25073M125.64685 794.1884l-3.2896 2.12532m-23.104065 3.76901c-46.779784 34.9483 33.441655 48.47666-3.2703 4.90267m16.524915.48191 9.98425 10.28723m565.75308 103.13089-6.48302 18.13705m-49.74793-26.44089.0963 13.88623c22.04483 9.58845 26.72477 23.31201 36.58962 34.94257m429.8597 43.07891-19.7375 12.7525M82.805308 810.70984l23.296602 24.00352m545.86145 93.66542 9.88811-3.59898m446.71183 90.7741c39.0048 40.9812 69.828 132.3193 93.9703 182.6505M632.11046 924.46782c-3.25511 9.81227-5.69278 31.6787 26.64395 30.20986M79.554239 818.38975l19.968533 20.57449m545.842178 90.88814c1.23784 7.3966.96308 11.06736 10.09985 26.95071M69.762523 835.87499c-7.714458-5.14352-15.268969.27693-16.447884 10.62712l16.447884-10.62712 23.181097 7.34006m-36.416441-9.94737 9.965019 7.50998M622.33795 944.73031c6.13211 17.70555 12.62488 31.26101 26.74023 44.09608M69.839547 846.98397l13.254602 5.3846M638.95913 959.09843c-19.31581 15.33802-11.19417 34.15271-6.21322 57.01867m22.75741-53.75953.15405 22.2181M53.314639 846.50211c.74836 22.62715-16.789458 22.91336-19.525665 43.30222l-3.2896 2.12537c-2.735-7.29817-3.428934-3.36394 3.251088-7.67986m42.745235-30.40768-13.13905 11.2789M1151.944 1076.7954l-9.7725 20.2625 19.776-7.1981M625.87786 978.7092l.0385 5.55445 13.23532 2.60725M53.5072 874.27456l-16.409407 16.18159m575.621687 96.75469 10.00359 13.06446 13.15828-8.50163m19.91081 12.24263 16.65972 19.9227m-52.97989-15.9839.0385 5.5546m19.81449-1.6436 3.32814 3.4291m6.61761 1.3038-9.59914 45.2576m16.25535-38.3996 13.27379 8.1618m-36.41632-9.9472-6.5407 9.8053m6.69475 12.4126 9.92648 1.9555m-29.74109-.3121.0193 2.7773m16.5827 8.8137-13.06204 22.388m16.42874-13.4044 6.61759 1.3036m3.34739 6.2066c-7.41633 19.166 6.86186 73.8973-5.90526 101.4542m-7.31088-101.2846 6.65618 6.8582m19.85304 3.9109.19257 27.7726m-23.23882-15.6716c1.10391 21.9352-2.14637 43.0535 10.36936 65.832m-6.98359-54.0714 16.60193 11.5908m-16.5249-.4818 13.23534 2.6074m-29.72173 2.4653 9.94574 4.7325m6.6947 12.413 6.61773 1.3036"/>
  </g>
</svg>
